<svg id="Layer_1" data-name="Layer 1" xmlns="http://www.w3.org/2000/svg" viewBox="0 0 484.48 589.47"><defs><style>.cls-1{fill:none;stroke:#f7931e;stroke-miterlimit:10;stroke-width:5px;}.cls-2{fill:#f7931e;}</style></defs><title>kosit</title><path d="M382.29,573.3a57.24,57.24,0,0,0-8.5,0Q377.3,573,358,573c-1.57,0-2.44-.88-2.64-2.64-.19-1.56-.29-2.44-.29-2.64q.29-17.87.29-19.62V544.3q-.29-27.84,0-35.45.3-2.64-2.63-3.23l-3.81-.87a5.86,5.86,0,0,0-2.64,0,44.55,44.55,0,0,1-8.5.58H315.49q.58,0-5.57-.29a6.6,6.6,0,0,0-2.93,0q-2.62.29-12,.29H193.91q-31.93,0-37.5-.29l-45.12.29h-41a17.72,17.72,0,0,1-5.56-.58C63.54,504.55,63,504,63,503l-.59-3.81V405.72q0-3.51.3-12.3.29-2.64,3.22-2.93a72.45,72.45,0,0,1,13.18,0c0,.19.59.48,1.76.88a2.79,2.79,0,0,0,1.76,0,3,3,0,0,1,2.64-.88,32.78,32.78,0,0,0,6.15,0q4.68-.3,5.86-.3h11.42a27.27,27.27,0,0,1,5.57,0,34.93,34.93,0,0,0,9.08,0h3.81q14.36.3,20.51,0h90.82c1,0,2.93.1,5.86.3h5.56l14.95-.3h22.26q3.23,0,6.74.3a11.79,11.79,0,0,0,2.34,1.17v-.29a29.13,29.13,0,0,1,7.33-1.18h11.13q7,.3,11.43.59h2.63q-3.81.59,21.39-.88l2.05-.29a2.67,2.67,0,0,0,2.64-2.34,86.16,86.16,0,0,0,.58-9.38q-.29-12-.29-18.75V328.38c0-.59.1-1.86.29-3.81,0-2,1.07-2.93,3.23-2.93,1.95-.2,3.12-.29,3.51-.29q18.17.28,33.69,0a19.94,19.94,0,0,1,7.33,2,1.46,1.46,0,0,0,1.75,0c1.76-1,2.25-1.27,1.47-.88a12,12,0,0,1,3.52-1.17h14.94a23.21,23.21,0,0,1,5.56.58c2.54.59,4,1.95,4.4,4.1,1.76-1.17,2.73-1.85,2.93-2q2-2.62,6.44-2.63a23.84,23.84,0,0,0,5.28,0,4.16,4.16,0,0,1,4.1,2.63c2.14-.39,3.32-.58,3.51-.58a3.57,3.57,0,0,0,2.64-.88,6.66,6.66,0,0,1,3.52-.88,20.4,20.4,0,0,0,7.61-.29l1.47-.88v7.62c-1.57.19-2.45.29-2.64.29a6.51,6.51,0,0,0-2.93,1.17v.29a1.93,1.93,0,0,0,0,2.05v-2.05h5.57V341a17.42,17.42,0,0,0-5.28-.3,8.62,8.62,0,0,1-2.63.3,6.94,6.94,0,0,0-2.93,0q1.17-1.77,5.27-7.33h-4.1a2,2,0,0,1-1.47,0,3.94,3.94,0,0,0-5,1.47,3.3,3.3,0,0,0-.29,3.51,3,3,0,0,0,2.64,2.35c.19,0,1,.09,2.34.29a5.15,5.15,0,0,0,1.47,3.81,4.27,4.27,0,0,0,.88,1.17,8.92,8.92,0,0,1,1.17.88c.58.58.39,1.27-.59,2.05-1.17,1.17-1.37,2.24-.58,3.22.58.39,1.36,1,2.34,1.76l.59.29q2,.58,2.34-1.17.58-7,.58-7.32a5.36,5.36,0,0,1,1.76-2.35l1.47-.58v18.75a1.43,1.43,0,0,0,0,1.75v24.32c-2.54-2-4-3-4.4-3.22-1.56-1.17-2.73-.69-3.51,1.46a2.24,2.24,0,0,0-.3.88,2.2,2.2,0,0,0,.88,2.35,8,8,0,0,1,1.76.58v.88c.59,1.56,1.56,1.85,2.93.88l2.64-1.76v5.57a2,2,0,0,0-1.47,1.76h1.47v13.18a1.1,1.1,0,0,0,0,1.76V418a30.2,30.2,0,0,0-3.52-.59v-.58c.39-1.57-.2-2.45-1.76-2.64H464a16.08,16.08,0,0,1-6.15,0q-1.47-.3-1.17,1.17a3.73,3.73,0,0,0,.88,1.76l3.22,1.76c1,.58,1.76,1.07,2.35,1.46a1.21,1.21,0,0,1,.29.88c0,.78-.4,1.07-1.17.88,1,.19.09,0-2.64-.59-1.57-.39-2.34.3-2.34,2v3.52a5.23,5.23,0,0,1-1.47.58,3.15,3.15,0,0,0-2.05,2.93v1.76a13.85,13.85,0,0,1-.88,5.86,2.59,2.59,0,0,0,0,1.76,4.54,4.54,0,0,0,2.64,2.34c.19,2.35.88,3.81,2.05,4.4,1.36,2.53,2.15,3.81,2.34,3.81a2.13,2.13,0,0,0,1.47.88,8.23,8.23,0,0,1,1.46.29v1.76a8.31,8.31,0,0,1,.3,1.75,5.81,5.81,0,0,0,4.39-2.34l1.17-1.17h3.52v16.7a27.69,27.69,0,0,1-3.52-1.47,4.62,4.62,0,0,0,3.52,3.52v46.87a1.1,1.1,0,0,0,0,1.76v43.07a.81.81,0,0,0-.59.29h-.88l.88.88a3.26,3.26,0,0,0,.59.88v9.37q-2.94-1.17-3.52-2.63a5.42,5.42,0,0,0-3.81-4.1,1.73,1.73,0,0,1-1.46-.88c-.59-.59-1.66-.49-3.22.29a1.2,1.2,0,0,1-1.47-.59,859.91,859.91,0,0,1-1.76-3.51.93.93,0,0,0-1.46-.3c-.4.39-.49.69-.29.88a12.22,12.22,0,0,0,.29,2.35,20.38,20.38,0,0,0,.58,2.34q.58,4.68-4.39,5.27a70.1,70.1,0,0,1-11.13.3,5.26,5.26,0,0,1-3.23-1.47c-1-1-1.75-1.07-2.34-.29a5.63,5.63,0,0,1-4.1,1.76H416.86q-10-.3-22.56,0l-7,.29Zm71.19-249a2.51,2.51,0,0,0-2.05,1.17c-.4.78-.4,1.36,0,1.76.58.39,1.07.19,1.46-.59A2.7,2.7,0,0,0,453.48,324.28ZM398.69,326h.59l-.29-.58Zm33.4-.29a1.69,1.69,0,0,0-1.46.88,2,2,0,0,0,.29,2.64,2.42,2.42,0,0,0,2.34.58c1.17-.39,1.76-1.07,1.76-2a9.36,9.36,0,0,0-.29-1.46A12.69,12.69,0,0,0,432.09,325.74Zm11.43.29h-.59l.29.59Zm-20.22,4.11c.19.39.39.58.59.58.58.19.88-.1.88-.88v-1.75c-.2-.79-.59-1.08-1.18-.88a1.06,1.06,0,0,0-.87,1.46l.29.59S423.1,329.55,423.3,330.14Zm10,5.56a.84.84,0,0,0,.59.3,17.44,17.44,0,0,0,2.64-.3c.77-.19,1.17-.58,1.17-1.17-.2-.59-.88-.88-2.05-.88a4.82,4.82,0,0,0-2.05.59C433,334.43,432.87,334.92,433.26,335.7Zm-44.53,2.93-.29.3,1.17-.3Zm-27.54,1.76c1,.39,1.27.19.88-.59,0-.19-.2-.29-.58-.29H360C360.61,340.1,361,340.39,361.19,340.39Zm17,.59h.59c.39,0,.49-.2.29-.59,0-.59-.29-.59-.88,0Zm70.9,2.34a1.2,1.2,0,0,0,1.47-.59c.39-.78.09-1.27-.88-1.46a8,8,0,0,0-3.52-.29l-.29.58.59.88ZM460.8,341h.59l-.3.29a.25.25,0,0,0-.29-.29.25.25,0,0,1,.29.29h-.29Zm-88.47,4.1-.3-.59-.29.59Zm35.44,2.34a.85.85,0,0,0-.29.59,2.3,2.3,0,0,0,.88.29A3.51,3.51,0,0,1,407.77,347.42Zm12.9.88c-.79.39-1,.39-.59,0Zm-11.43,2.05q1.17,2.34,3.22,0a2.35,2.35,0,0,0,.29-.88,1.38,1.38,0,0,0-1.46-1.17c-.2,0-1,.1-2.34.29A15.52,15.52,0,0,1,409.24,350.35Zm26.66,1.47a.93.93,0,0,0,1.46.29c.59-.2.78-.69.59-1.47a.82.82,0,0,0-1.17-.58C435.21,350.06,434.92,350.64,435.9,351.82Zm14.94.87c-.39.78-.29,1.37.29,1.76a8.07,8.07,0,0,0,5.86,1.76l.88-.29a1.29,1.29,0,0,0,.3-1.76,3.58,3.58,0,0,0-2.64-.88,4.49,4.49,0,0,1-1.76-.59,6.89,6.89,0,0,1-1.46-.87h-1.18S451,352.11,450.84,352.69ZM360,352.4c.19,1.56.59,2.15,1.17,1.76.19-.39.19-.69,0-.88A1.14,1.14,0,0,0,360,352.4Zm74.12,7a9.75,9.75,0,0,0-4.39,1.18,12.74,12.74,0,0,0-4.1,3.22l1.46,3.51c1.36-1.37,2.24-2.24,2.64-2.63a5.57,5.57,0,0,1,4.1-1.76A86.61,86.61,0,0,0,445.27,360c1.37-.39,1.66-1,.88-1.76-1-1.17-1.75-2.05-2.34-2.64q-1.47-1.75-3.52,0a16,16,0,0,0-1.46,1.18A6.41,6.41,0,0,1,434.14,359.43Zm-58-2.63.88.58.88-.58c0-.79-.49-1-1.46-.59C376.23,356.21,376.13,356.4,376.13,356.8ZM408.36,358a2,2,0,0,0,1.47.58,3.43,3.43,0,0,0,.87-.58q0-.89-1.17-1.47a1.19,1.19,0,0,0-1.46.59C407.87,357.28,408,357.57,408.36,358Zm58.89,2.34-.59.3.59.29Zm-14.94.3h-.59l.59.58ZM370,362.36l.88.59c.78-.2,1.07-.59.88-1.17a.93.93,0,0,0-.88-.59C370.08,361.19,369.78,361.58,370,362.36Zm-10.84-.29.59.29.29-.58-.59-.3Zm55.37,2.34c.39.78.88,1,1.47.59a41.79,41.79,0,0,0,3.81-1.76,4,4,0,0,0-3.23-.88,2,2,0,0,0-1.46.59C414.51,363.14,414.32,363.63,414.51,364.41Zm6.74,3.81a.87.87,0,0,0,.59.3.52.52,0,0,0,.58-.59,10.72,10.72,0,0,0-2.34-4.4A8.35,8.35,0,0,0,421.25,368.22Zm-45.7-2.05a1.88,1.88,0,0,0,.88.88,1.65,1.65,0,0,0-.3-1.17C375.55,365.1,375.35,365.19,375.55,366.17Zm75,0a1.27,1.27,0,0,0-1.76-.29v.88c-.2.19-.2.48,0,.88.19,1.17.78,1.75,1.76,1.75.58,0,.88-.68.88-2.05Zm10.25,1.76a1.32,1.32,0,0,0-1.17-1.76,1.56,1.56,0,0,0-1.76,1.76c0,1.17.68,1.66,2.05,1.46A1.34,1.34,0,0,0,460.8,367.93Zm-9.08-.88c1,0,1.17-.1.59-.29Zm-19.92,1.47a1.66,1.66,0,0,0,.58,1.75q.89.59,1.47,0c.19,0,.29-.19.29-.58a1.49,1.49,0,0,0-.58-1.76A1.47,1.47,0,0,0,431.8,368.52ZM359.43,370l.59.59.59-.59c.19-.78-.1-1-.88-.59h-.59Zm105.77.29c.19,0,.29-.19.29-.58a.93.93,0,0,0-.59.88A.27.27,0,0,0,465.2,370.27Zm-77.05.3.29-.3-.29-.29Zm19.92.29.29.88.59-.3c.77-.58.68-1-.3-1.17h-.29Zm56.54.29a1.84,1.84,0,0,0-1.17.88.94.94,0,0,0,.58.88C464.61,373.1,464.8,372.52,464.61,371.15Zm-24.32,1.17c-1.37-.39-2,0-1.75,1.18.19.77.58,1.17,1.17,1.17l.88.29a1.93,1.93,0,0,0,1.17-.88c.39-.58.19-1-.59-1.17A3.51,3.51,0,0,1,440.29,372.32Zm18.46.88q-2.34-1.76-2.93.88a26.47,26.47,0,0,1-.29,2.64,8.16,8.16,0,0,0,3.22-.88Q460.22,374.37,458.75,373.2Zm-78.22,0a.83.83,0,0,1,.58.3c.59-.59.49-.88-.29-.88Zm38.67,2.35a2.64,2.64,0,0,0-2.93-.59,2.09,2.09,0,0,0,1.17,2.05,2,2,0,0,0,1.47,0c.39-.2.58-.39.58-.58A.57.57,0,0,0,419.2,375.55Zm29.88-.59c-.39,0-.19.59.59,1.76v-1.47A.87.87,0,0,0,449.08,375Zm-50.39,1.47q0,.87,1.17,1.17a1.36,1.36,0,0,0,.88-1.47c-.19-.39-.39-.58-.58-.58A1.06,1.06,0,0,0,398.69,376.43Zm53.91,4.39c.39,0,.58-.1.58-.29.39-.59,1.08-1.86,2.06-3.81a12.73,12.73,0,0,1-1.47-.59,3.28,3.28,0,0,0-2.34.3A5,5,0,0,0,450,377c.59,1.76,1,2.83,1.17,3.22C451.33,380.82,451.82,381,452.6,380.82Zm-20.8-3.22a7,7,0,0,0-2.35,1.46c-.19.39-.78,1.37-1.75,2.93h3.22c1.17-1.37,1.95-2.25,2.34-2.63.39-.59.2-1.08-.58-1.47A1.18,1.18,0,0,0,431.8,377.6Zm12,8.79a2.3,2.3,0,0,0,1.46-2.35c-.19-1.37-.29-2.15-.29-2.34-.2-.39-.49-1-.88-1.76a1.17,1.17,0,0,0-.88-.29,1.06,1.06,0,0,0-1.46.88q-1.47,4.39-1.17,6.15a.52.52,0,0,0,.58.59A18.57,18.57,0,0,0,443.81,386.39Zm-34.28-5.28.3-.58h-.59Zm48.93.3-.59.58.59.29Zm-53.62,0v.87l.59-.29Zm-26.95,2.34a.38.38,0,0,0,.59,0q.58-.3-1.17-1.47A10,10,0,0,0,377.89,383.75Zm-19.33.29.58.59c.78-.2,1.07-.59.88-1.17a.52.52,0,0,0-.59-.59l-1.17-.29Zm53.61,2.35.58,2.63c.2.78.59,1.17,1.18,1.17a.51.51,0,0,0,.58-.58,5.55,5.55,0,0,1,2.35-2.64l.29-.58a1.48,1.48,0,0,0-.59-1.76,4.63,4.63,0,0,0-2.93-.29l-1.75.29S412,385.21,412.17,386.39Zm21.09-.59c.78.19,1.17,0,1.17-.59q0-.58-1.17-.87A1.92,1.92,0,0,0,433.26,385.8Zm-10.84.88c1.37.39,1.37.29,0-.29h0Zm5.86,6.15q.29-.58,2.64-4.69c-1.57-.58-2.64-.39-3.22.59a4.5,4.5,0,0,1-4.4,2.34,2.07,2.07,0,0,0-2.05,1.47,8.33,8.33,0,0,0-.58,1.76,10,10,0,0,1-.59,1.75,2.64,2.64,0,0,1-1.76,1.76q-4.11,1.76-3.51,1.47a3,3,0,0,0-2.06,2.63,6,6,0,0,0-.29,2.64c.19,0,2.35-1,6.45-2.93a33.66,33.66,0,0,1,6.74-2.64q.87,0,.87-1.17A6.74,6.74,0,0,1,428.28,392.83Zm-20.8-4.1q-3.23.88-1.46,3.22a4.26,4.26,0,0,0,.88,1.47c1.17-1,1.85-1.57,2.05-1.76a1.36,1.36,0,0,0,.29-1.47C409,389,408.46,388.53,407.48,388.73Zm28.71,1.76c.19-.79-.1-1.17-.88-1.17a.51.51,0,0,0-.58.58c-.2.78.09,1.17.88,1.17Zm-79.1,0c.19.58.68.78,1.47.58a.85.85,0,0,0,.29-.58c0-.79-.29-1.17-.88-1.17C357.19,389.32,356.89,389.7,357.09,390.49Zm109.57-.3v0Zm-14.35.3a.37.37,0,0,0-.59,0c-1.37.58-1.47,1.27-.29,2.05a1.19,1.19,0,0,0,.88.29Q454.07,392.25,452.31,390.49Zm-84.09,1.76-.58-.59-.3.88Zm7.33,0c-.4.19-.49.58-.3,1.17a.86.86,0,0,0,.3-.59Zm-60.94,0c-.78,0-1.27.19-1.46.58l.29.59c.78.19,1.27,0,1.46-.59C315.1,392.63,315,392.44,314.61,392.25Zm-40.14.87c.2-.19.2-.29,0-.29a.89.89,0,0,1-.29.59ZM96.06,394v-.58l-.59.58Zm348.63,4.11c0-.4-.2-1.86-.59-4.4h-1.46a14.27,14.27,0,0,1-2.05,5,26.68,26.68,0,0,0-1.76,3.52,2.3,2.3,0,0,0,1.17,3.22q1.75,1.17,4.69,2.93a1.19,1.19,0,0,0,.88.29c1-.2,1.85-.39,2.63-.58.59-.2.59-1,0-2.35l-.29-.88C445.57,402.5,444.49,400.25,444.69,398.11Zm-62.4-2.35a1,1,0,0,0,1.17,1.17.78.78,0,0,0,.88-.88v-1.17q-.3-1.17-1.17-1.17c-.59,0-.88.39-.88,1.17Zm-41.9-.88.29.88c.78-.2.88-.58.3-1.17l-.3-.29S340.58,394.49,340.39,394.88Zm-225.58.59.29-.59h-.59Zm349.8.58a1.28,1.28,0,0,0-1.76-.29,43,43,0,0,0-4.1,1.76,1.35,1.35,0,0,0-.88,1.46v2.93a2.19,2.19,0,0,0,.3.88,1.46,1.46,0,0,0,1.75,0l.88-.88.59-.58q1.75-1.75,2.05.58c.39,2.74,1.46,4.49,3.22,5.28a1.19,1.19,0,0,0,.88-.3c.39-.19.59-.39.59-.58a8.31,8.31,0,0,0-.59-1.76q.58.88-.88-5.57A4.37,4.37,0,0,0,464.61,396.05Zm-15.23,1.18a.86.86,0,0,0-.59-.3c-1.17-.58-1.08-.58.29,0Zm-71.49-.3-.58.59a2.23,2.23,0,0,0,.29.88l.58-.59Zm-54.78,1.76v-.88l-.59.3Zm-75-.29h.58l-.58-.29Zm-122.46.88.29.58.88-.29a1.17,1.17,0,0,0-.3-.88l-.87-.58Zm-44.83,1.17v-.59l-.58.3ZM273,401.62c-.2.39,0,.59.58.59a3.21,3.21,0,0,0,1.47-.3l.59-.88-.3-.58A2.77,2.77,0,0,0,273,401.62Zm-54.79,0,.88-.29c-.19-.79-.58-1-1.17-.59l-.29.29Zm189.85.59c-.4-.2-.79,0-1.17.58h.58ZM302,402.79h.59a5.11,5.11,0,0,0,1.17-.29,1.7,1.7,0,0,1-1.17-.29h-1.47Zm88.48,0,.29.59.3-.59Zm-86.13,0v2.35c0,.77.39.88,1.17.29.19-.2.19-.49,0-.88A11.73,11.73,0,0,1,304.36,402.79ZM174.86,404a.83.83,0,0,0,1.18.59l-.59-.59Zm273.34.88c.39-.19.39-.29,0-.29ZM314,404.55l-.87.29.29.88.58-.29Zm97.86,1.17a1.21,1.21,0,0,0,.29-.88l-.29.3Zm-298.83-.88c-.59.59-.59.88,0,.88.39,0,.48-.19.29-.58Zm162,1.18v.58h.88c.58-.58.48-.88-.29-.88h-.59Zm63.57.58h.59l-.29-.58c-.2,0-.3.09-.3.29Zm59.48.88c-.2.59.19.88,1.17.88l.88-.29a.38.38,0,0,0,0-.59c-.2-.59-.69-.78-1.47-.59C398.3,407.09,398.11,407.28,398.11,407.48Zm63.57.29c-.2-.78-.69-1-1.46-.58-.59.19-.79.68-.59,1.46s.59,1,1.17.59C461.58,408.84,461.87,408.36,461.68,407.77Zm-322.26.3v-.88l-.88.58Zm294.14-.3c0,.39.09.59.29.59h.58l-.29-.88Zm-60.94.59a.92.92,0,0,0-.88.58l-.59,1.47c0,1,.3,1.56.88,1.76s1-.2,1.17-1.17a4.77,4.77,0,0,0,.3-1.47v-1.17Zm51.85,2.34c.59-.19.78-.68.59-1.46-.39-.79-.88-.88-1.47-.3a1.23,1.23,0,0,0-.29.88C423.3,410.6,423.69,410.9,424.47,410.7Zm-230,.88a1,1,0,0,0,.88.59c.59.19.88-.2.88-1.17-.2-.79-.58-1.08-1.17-.88C194.3,410.31,194.1,410.8,194.49,411.58Zm120.41.59c-.39.58-.19,1,.59,1.17a.89.89,0,0,0,.59-.29,1.23,1.23,0,0,0,.29-.88c0-.79-.4-1.08-1.17-.88C315,411.29,314.9,411.58,314.9,412.17Zm-37.79-.3c.19.59.78.69,1.76.3a3,3,0,0,0-1.17-.59C276.91,411.19,276.72,411.29,277.11,411.87Zm31.35,0c0,.2.19.3.58.3C308.26,411.38,308.06,411.29,308.46,411.87Zm108.1.3a.92.92,0,0,0-1.46.29,3.53,3.53,0,0,0-.59,1.47,8.53,8.53,0,0,1,1.47-.3c.39-.19.58-.39.58-.58C416.76,412.65,416.76,412.36,416.56,412.17Zm-56.83.58v-.29l-.59.29ZM407.19,416a8.93,8.93,0,0,1,2.05-2.05c.59-.79.39-1.18-.59-1.18a.83.83,0,0,0-.58.3C407.87,413.63,407.58,414.61,407.19,416Zm-110.45-2.64c-.2.78,0,1.27.59,1.46h.87a1.26,1.26,0,0,0-.29-1.75.84.84,0,0,0-.58-.3H297Zm-177.25,1.17q-.58-.58-1.17,1.17a3.7,3.7,0,0,0,1.47-.58C120,414.9,119.88,414.7,119.49,414.51Zm305,.59c-.39-.4-.88-.4-1.46,0a2.91,2.91,0,0,0-1.17.58h2.05C424.28,415.49,424.47,415.29,424.47,415.1Zm14.65,0a3.13,3.13,0,0,0-3.51,1.17,5.27,5.27,0,0,1-.59,1.46,7.13,7.13,0,0,1,3.52,2.64,2.77,2.77,0,0,0,2.34,1.17,5.11,5.11,0,0,1,4.39,1.47,5.07,5.07,0,0,0,4.11,1.76h1.75c1,0,1.47-.3,1.47-.88A3.17,3.17,0,0,0,452,423a5.54,5.54,0,0,1-4.39-3.23,2.27,2.27,0,0,0-.29-.87,15.26,15.26,0,0,1-1.47-1.18,17.75,17.75,0,0,1-3.52-1.17L440,415.39Zm-17.58,6.15a14.52,14.52,0,0,1,3.81,2.05,1.78,1.78,0,0,0,2.64,0q1.45-1.17-.88-2.93-5-3.51-3.81-2.64a7,7,0,0,1-1.76-1.75l-.87.29c-1,.78-1.28,1.56-.88,2.34a11.23,11.23,0,0,1,.88,1.17l.87.88Zm-30.76-4.69v.59c.39.19.68.19.88,0,.78-.59.68-.88-.29-.88Zm12.31,2.93a.93.93,0,0,0,1.46.29c.78-.39,1.47-1.46,2.05-3.22L403.67,418l-.58.58Zm-17.87-2.34-.3.58h.59Zm83.2.29h.29v.29Zm-225.59,0-.29.59h.59ZM75.55,422.13c1.36.19,2-.4,1.76-1.76A4.42,4.42,0,0,0,76.13,418a1.91,1.91,0,0,0-1.75-.3,1.72,1.72,0,0,0-.88,1.47A2.72,2.72,0,0,0,75.55,422.13ZM434.73,418a3.63,3.63,0,0,0-1.47.58c-.19,0-.39.2-.58.59a2.19,2.19,0,0,0-.3.88c0,.58.39.78,1.18.58.38,0,.58-.1.58-.29A10.17,10.17,0,0,0,434.73,418Zm-89.94,1.17c.77,0,1.07-.29.88-.88h-.88l-.59.59-.29-.3Zm118.06,17a13.13,13.13,0,0,1-4.39-6.74,9.15,9.15,0,0,0-.88-2.05,7.61,7.61,0,0,1,9.37,0l-.29-.29c1.95-.39,2.93-1.37,2.93-2.93s.88-3,2.64-4.4v28.13l-1.76.29A2,2,0,0,0,469,450a4.26,4.26,0,0,0-.58,1.76,24.43,24.43,0,0,1-5.27,0,32.38,32.38,0,0,0,2.05-2.93,12.38,12.38,0,0,0,1.17-2.35c.78-1.56.29-2.15-1.47-1.75a6.71,6.71,0,0,1-5.27-.88c-.39-.2-1.76-.69-4.1-1.47,1.36-3.12,3.41-4.3,6.15-3.51.59.19,1.07-.1,1.47-.88v-1.47Zm-133.3-14.65a2,2,0,0,0-1.46-1.76c-1,0-1.57.59-1.76,1.76ZM297,423.89a1.47,1.47,0,0,0,1.76,0,2.41,2.41,0,0,0,.59-1.76,2.14,2.14,0,0,0-2.35-2.05,1.34,1.34,0,0,0-1.46.88,1.43,1.43,0,0,0,0,1.75A10.5,10.5,0,0,0,297,423.89ZM319.88,421a.81.81,0,0,0-1.17-.59,1.76,1.76,0,0,0-1.17,1.17c-.2.78-.1,1.27.29,1.47a.94.94,0,0,0,1.47-.3A8,8,0,0,1,319.88,421Zm101.66.88-.29.29a2.13,2.13,0,0,0-.29.88c0,.19.09.09.29-.3h.29Zm-43.94,2.34c-.2.19-.2.48,0,.88a19.52,19.52,0,0,0,3.22,4.1,1.93,1.93,0,0,0,1.76.29,22.67,22.67,0,0,0,3.22-.58q-1.47-2.06-6.74-5.28C378.48,423.2,378,423.4,377.6,424.18Zm-38.09,2.64c-.19-.79-.58-1.08-1.17-.88-.39.19-.59.39-.59.58a1.68,1.68,0,0,0,.59,1.76h.59l.88-.59Zm51.57-.3-.59-.58-.59.29c.2.39.39.59.59.59Zm-306.16.3c.2.19.49.19.88,0v-.59C85,425.84,84.73,426,84.92,426.82Zm222.37.58c-.59,1.17-.49,2,.29,2.35a1.5,1.5,0,0,0,1.76,0,2.91,2.91,0,0,0,1.17-1.47c0-1.17-.69-1.76-2.05-1.76C307.87,426.33,307.48,426.62,307.29,427.4Zm150.29,0h-.29v-.29ZM365,428.57a2.19,2.19,0,0,0,.88.3c.39,0,.49-.3.29-.88,0-.2-.19-.4-.58-.59l-.59.29v.88Zm72.07-.58a.92.92,0,0,0-1.46.29,2.59,2.59,0,0,0,0,1.76,3.7,3.7,0,0,0,2.05,2.64c1.36.77,2.34,1.36,2.93,1.75,1.75,0,2.63-.1,2.63-.29q3.81-1.17,2.64-5c-.2-1-.69-1.17-1.46-.59a4.34,4.34,0,0,1-5.57.59A12.25,12.25,0,0,0,437.07,428Zm-104.59,1.46a1.5,1.5,0,0,0-2.34-.58l-.59.58.29.88a21.67,21.67,0,0,1,2.35,3.81c.39.78.88,1,1.46.59a1.08,1.08,0,0,0,.88-1.47c-.58-1.56-.88-2.34-.88-2.34Zm77.64,1.76c.19-1.17-.1-1.86-.88-2a.52.52,0,0,0-.59.59v1.46l.88.59Zm-177-1.76-.3.59a2.18,2.18,0,0,1,.88.29C234.14,429.55,233.94,429.26,233.17,429.45Zm154.68,1.47a5.24,5.24,0,0,0-1.46-1.47A5.38,5.38,0,0,0,387.85,430.92Zm-198-.59v-.58l-.59.29Zm127.73,0a2.3,2.3,0,0,1,.29.88c.39.19.68.19.88,0,.59-.59.39-1-.58-1.17Zm-197.17.59.3-.3-.59-.29Zm294.44.58a1.75,1.75,0,0,0,1.17,1.18c-.2-1.37-.49-2-.88-1.76A.81.81,0,0,0,414.81,431.5Zm-14.65,1.18a1.35,1.35,0,0,0,1.46.87,1.14,1.14,0,0,0,.88-1.17c-.2-.78-.58-1.17-1.17-1.17A1.38,1.38,0,0,0,400.16,432.68Zm-244.63-.88v-.59h-.59Zm219.14,2.05.88-.3-.3-.58-.58.29v.59Zm-63.87.29c-.2.78.1,1.17.88,1.17l.59-.58c.19-.79,0-1.18-.59-1.18A.94.94,0,0,0,310.8,434.14Zm111.92.59c-1.37-.79-2-.4-1.76,1.17a1.15,1.15,0,0,0,1.17.88.82.82,0,0,0,1.17-.59C423.49,435.41,423.3,434.92,422.72,434.73Zm5,.88a1,1,0,0,0-1.18-1.18l-.58.59a1,1,0,0,0,1.17,1.17ZM343.91,435l.58-.59h-.88Zm-76.76,0a1.07,1.07,0,0,0-1.47.88c0,.58.39,1,1.18,1.17.58.19,1-.1,1.17-.88C268.22,435.61,267.93,435.21,267.15,435ZM91.37,437.07a.85.85,0,0,0,.29.59l.59-.3-.3-.88Zm346.58.29a.52.52,0,0,0,.59-.58.81.81,0,0,0-.59.29Zm-85.55,1.17c.59.59,2,.59,4.1,0,.39-.19.59-.39.59-.58q0-.88-1.17-1.17H352.4a.81.81,0,0,0-.58.29A1.18,1.18,0,0,0,352.4,438.53Zm-183.69-1.17c.19-.19.1-.39-.29-.58h-.59l.3,1.17Zm226.17.59c-.78-.39-1.17-.1-1.17.88V440a3.67,3.67,0,0,0,1.47-.59c.19-.19.19-.49,0-.88A.83.83,0,0,0,394.88,438Zm-116,.58.58-.29-.58-.29Zm138.57.59c.39-.78.19-1.08-.58-.88l-.3.59c.2,0,.3.09.3.29Zm31.06-.88.29.59.29-.59Zm-316.12,1.47c-.19,0-.49.19-.88.58a.87.87,0,0,0,.59-.29Zm281,.29-.29.59h.58Zm-19.92.59a5.11,5.11,0,0,1-1.17.29c-.4.19-.59.39-.59.58a.37.37,0,0,0,0,.59c.39.39.78.29,1.17-.29A3.25,3.25,0,0,0,393.42,440.59Zm-14.94.58h-.3l.3.59Zm-233.5.59c0,.78.29,1,.88.58l.29-.58-.58-.59C145.37,441.17,145.17,441.36,145,441.76Zm284.18.88a.51.51,0,0,0,.59.58c.58,0,.88-.39.88-1.17l-.59-.59C429.26,441.66,429,442.05,429.16,442.64Zm26.37-.3h0l-.29-.29Zm-18.46,0c-.39-.19-.69-.19-.88,0-.39.2-.58.39-.58.59a3.92,3.92,0,0,0,2.34,3.51c.59.39,1.36.2,2.34-.58a25.81,25.81,0,0,0-2.05-2.64l-.29-.29Zm-52.15,1.18.59-.3-.29-.29Zm15.24,1.17a3.18,3.18,0,0,0,.88.58c.77,0,1.07-.39.88-1.17l-.59-.58A1,1,0,0,0,400.16,444.69Zm43.36.58c-.59-1-1.28-1.37-2-1.17s-1.08.78-.88,1.76h3.22A.83.83,0,0,1,443.52,445.27Zm-85.55.59-.59.29v.29l.3.3h.58C358.07,446.15,358,445.86,358,445.86Zm-286.52.88c-.4-.2-.69-.2-.88,0a3.13,3.13,0,0,1-.59,1.17h1.47Q72.6,447.32,71.45,446.74Zm341.89,2.34c.39-.78.19-1.27-.59-1.46a1.14,1.14,0,0,0-.87.29c-.59.59-.59,1.07,0,1.46h.87Zm-45.7-.58a1.15,1.15,0,0,0-.3.87l.3.88.58-.58.88-1.47Zm-227,1.46a.85.85,0,0,0,.58.29c.59-.58.49-.88-.29-.88Zm5.27,1.47c.59.58,1.07.58,1.47,0,.38-.4.38-.69,0-.88-.4-.4-.88-.3-1.47.29Zm179.88.29c-.19.58,0,.78.59.58l.29-.58-.29-.29-.59-.3Zm137.11,0h0v-.29c-.19,0-.1.09.3.29Zm-16.4.29c0-.2-.2-.39-.59-.58l-.29.87.58.3Zm22-.29h0Zm-89.65,0q-.88,1.17-1.17,1.17c-.39.78-.2,1.27.58,1.47a1.74,1.74,0,0,0,1.47-.88q.59-.89,0-1.47Zm54.79,2.34a1.29,1.29,0,0,0-.3-1.76,1.05,1.05,0,0,0-1.46,0q-5.87,3.81-4.1,3.23a5,5,0,0,0,2.34.88A4,4,0,0,0,433.56,454.06Zm-6.16,1.17a8,8,0,0,0-1.46-2.05q-.88-1.17-1.17,0a2.13,2.13,0,0,0,.29.88A3.3,3.3,0,0,0,427.4,455.23Zm-87-2.05-.58.3v.88l.87-.3Zm-257.22.88q.28,1.47.87,0l-.58-.88v.3Zm315.82.59c.58.39.87.29.87-.29l-.58-.3h0l-.29.3Zm40.43.29c.38-.58.09-.88-.88-.88-.4,0-.59.1-.59.3-.39.77-.2,1.17.59,1.17Zm21.09,0c-1-.2-1.66.29-2.05,1.47-.2.77.09,1.17.88,1.17a3.25,3.25,0,0,0,3.51-2.05A9.19,9.19,0,0,0,460.51,454.94Zm-115.43,1.17a.78.78,0,0,0-.88.88c-.2.78.1,1.07.88.88s1-.59.59-1.17A.52.52,0,0,0,345.08,456.11ZM412.46,459a26.49,26.49,0,0,0,1.76,2,.83.83,0,0,0,.59.3,1.37,1.37,0,0,0,.87-1.47c.2-1.56-.58-2.64-2.34-3.22-.78-.39-1.17-.2-1.17.58A13.34,13.34,0,0,0,412.46,459Zm-137.69-1.17.58.29a.87.87,0,0,0,.3-.58l-.88-.88Zm179.88.88a2.65,2.65,0,0,0-2.34-1.47c-.4,0-1.76.1-4.11.3V459a2.53,2.53,0,0,0,2.64,2,3.57,3.57,0,0,0,3.22-.88A1.18,1.18,0,0,0,454.65,458.75ZM291.76,459l-.29-.88c-.59-.58-.88-.39-.88.59-.2.19-.1.29.29.29ZM89,459.34l.3-.59h-.59Zm321.1,1.46c.58.59,1.07.49,1.46-.29a3.25,3.25,0,0,0,.59-1.17H410.7a3,3,0,0,0-.87.58C409.63,460.11,409.72,460.41,410.12,460.8Zm9.08.29c-.59,0-.49.59.29,1.76v-1.17C419.49,461.29,419.39,461.09,419.2,461.09Zm-107.52.59v-.59h-.29Zm151.47-.29c-.59-.2-.79,0-.59.58a2.72,2.72,0,0,0,1.46,2q.89.59,4.4,2.64A7.9,7.9,0,0,0,463.15,461.39Zm-217.68,1.17q.59,1.17,1.17,0l-.29-.59h-.59c-.39.19-.58.3-.58.3Zm142.68,0c-2.16-.4-3.42.29-3.81,2.05a13.66,13.66,0,0,0,3.51-.29.86.86,0,0,0,.59-.3,1.21,1.21,0,0,0,.29-.88A.51.51,0,0,0,388.15,462.56Zm32.22,2.34.59.59a.92.92,0,0,0,.88.58.85.85,0,0,0,.58-.29,1.27,1.27,0,0,0-.29-1.76,4.51,4.51,0,0,0-2.34-.88A4.65,4.65,0,0,1,420.37,464.9Zm-118.94-.58c0-.79-.4-1.08-1.18-.88-.78.39-.87.88-.29,1.46h.88Zm-193.36.29a2.1,2.1,0,0,0,1.46.88l.59-.3a1.34,1.34,0,0,0-.88-1.46h-.88A1.17,1.17,0,0,0,108.07,464.61Zm245.51-.29h0Zm10.54,1.17v-.88l-.58.58Zm-8.79.29a3.34,3.34,0,0,0-.58-.88v1.17A.85.85,0,0,1,355.33,465.78Zm-72.65.29c0,.59.39.78,1.17.59l.58-.29c.2-.4.2-.69,0-.88-.39-.4-.87-.4-1.46,0l-.29.29ZM382,469.59a1.39,1.39,0,0,0,1.47,1.17,1.9,1.9,0,0,0,1.17-1.46c0-.4-.1-1.76-.29-4.11L382.58,467A3.18,3.18,0,0,0,382,469.59Zm21.68-1.17a1.19,1.19,0,0,0-.58-1.47,1.91,1.91,0,0,0-2.35-.58q-2.62,1.75,0,3.22a4.19,4.19,0,0,0,2.35.59A4.53,4.53,0,0,0,403.67,468.42Zm28.71-.88c.2,0,.2-.2,0-.59,0-.39-.1-.58-.29-.58-.59-.2-.88,0-.88.58v1.47A9.34,9.34,0,0,0,432.38,467.54Zm17.87.58a3.16,3.16,0,0,0-2.63-.58,1.15,1.15,0,0,0-.88.29c-.2,0-.39.19-.59.59-.58.39-.68,1.27-.29,2.63.39,1.18,1,1.76,1.76,1.76h1.17a8.57,8.57,0,0,0,2.64-2.63C451.82,469.39,451.43,468.71,450.25,468.12ZM341.56,469a2,2,0,0,0,1.47.59l.29-.59a1.14,1.14,0,0,0-.88-1.17,1.23,1.23,0,0,0-.88.29V469Zm118.36-.58c-.78-.59-1.17-.49-1.17.29l.59.59C459.73,468.51,459.92,468.22,459.92,468.42Zm-26.07,7.32a9.36,9.36,0,0,0,3.22-1.46,2.79,2.79,0,0,0,1.47-2,52,52,0,0,1-7.33-3.52L428,471.93a2.54,2.54,0,0,1-2.64.88c-.19-.2-.78-.29-1.76-.29V474c0,1.37.49,2,1.47,2q5.28.3,6.15.3h1.17Zm7.32-2.05a1.07,1.07,0,0,0,.88-1.46,2.62,2.62,0,0,0-1.76-1.76c-.78,0-1.37.48-1.75,1.46a10.33,10.33,0,0,0,2,1.76A.37.37,0,0,0,441.17,473.69Zm-36.91-1.17c-.2-.39-.59-1.08-1.17-2v2.34c.19.78.58,1,1.17.59C404.45,473.2,404.45,472.91,404.26,472.52Zm5.57-.29c.77.19,1.26,0,1.46-.59.19-.2.1-.39-.29-.59a1.2,1.2,0,0,0-1.47.59C409.72,472,409.83,472.23,409.83,472.23Zm-41.31.58a5.73,5.73,0,0,1-1.18,2.93,9.74,9.74,0,0,0-1.75,2.64l.58.58a3,3,0,0,0,3.52-2,5.62,5.62,0,0,0,.58-3.51,2.41,2.41,0,0,1-.29-.88l-1.17-1.17S368.71,471.83,368.52,472.81Zm-8.5-1.46v.88l.59-.3Zm-47.75,2a1.68,1.68,0,0,0-1.18.58h.59Zm-2.35,3.22c.2.39.39.49.59.29.58,0,.78-.39.58-1.17a3.33,3.33,0,0,0-.29-1.46,5,5,0,0,0-.58,1.46A1.17,1.17,0,0,0,309.92,476.62Zm157-.88a.93.93,0,0,0-1.46.29c-.2.2-.2.49,0,.88s.39.59.59.59h2.63A3.66,3.66,0,0,0,467,475.74Zm-11.42,11.13c2-1,2.73-2.44,2.34-4.39v-1.76a8.33,8.33,0,0,1,1.47-4.39,12.69,12.69,0,0,0-2.64-.59q-2.93-.58-4.1,1.17a9.42,9.42,0,0,1-6.74,2.93,7.85,7.85,0,0,0-1.76.3.81.81,0,0,0-.58.29,1.28,1.28,0,0,0-.3,1.76,1.19,1.19,0,0,0,1.47.58,15.39,15.39,0,0,1,9.08,1.17l1.17,2.06Zm-75.59-10.25-.29-.59c-.2-.39-.39-.39-.59,0a2.19,2.19,0,0,0,.3.88l.29-.29Zm35.16,1.76a1.91,1.91,0,0,0,.58,2.34,14,14,0,0,0,2.06,1.76,1.77,1.77,0,0,0,2.34,0,6.38,6.38,0,0,1,1.46-.88q-1.76-4.11-2.05-4.69A1.35,1.35,0,0,0,418,476h-1.76C415.68,477.21,415.29,478,415.1,478.38ZM348,476.62a1.22,1.22,0,0,0,0,1.17v-1.17Zm-10,2.64.29.58h.88c.19-.39.19-.68,0-.88l-.88-1.17S338.24,478.28,338.05,479.26Zm-34.28-.59c0,.39.19.49.59.29a.78.78,0,0,0,.88-.87C303.87,478.09,303.38,478.28,303.77,478.67Zm94.34,1.76c-1.37,0-2,.59-1.76,1.76a.51.51,0,0,0,.58.58c1,.2,1.66-.29,2.06-1.46C399,480.53,398.69,480.23,398.11,480.43Zm68,1.17c.38.19.68.19.87,0a12.62,12.62,0,0,1,1.76-1.17h-2.34C465.58,480.62,465.49,481,466.08,481.6ZM375.25,481l.3-.59-.59.29Zm48.64,4.39a2.3,2.3,0,0,0,.88.29c.58-.39.68-1,.29-1.76-.39-1-1.47-1.66-3.22-2.05.78,1.56,1.26,2.54,1.46,2.93Zm-112.8-3.22v.88l.88-.59Zm-36.62,1.17h.59a2.18,2.18,0,0,1-.29-.88l-.59.29Zm179.3-.29v0Zm-157.32.29c-.59.58-.49.88.29.88.19,0,.29-.2.29-.59Zm109.27,1.76a1.34,1.34,0,0,0,1.47.29l.88-.59a2.19,2.19,0,0,1-.3-.88,1.73,1.73,0,0,0-1.75-.29C405.23,484,405.14,484.53,405.72,485.12Zm27.54,3.81h2.35a1.81,1.81,0,0,0,1.46-2.06c-.2-1.56-1.07-2.15-2.64-1.75a4.6,4.6,0,0,0-1.17.29Zm15.82-1.18c.59-.58.68-1.07.3-1.46s-.88-.29-1.47.29-.58,1.37,0,2.35Zm-76.75-.58c.58.58,1.07.48,1.46-.3l-.59-.58h-.58l-.59.29Zm92,0c-.4-.59-.88-.59-1.47,0a1.31,1.31,0,0,0-.29,1.46l.29.88a.82.82,0,0,0,1.17.59c.2,0,.39-.2.59-.59a2.35,2.35,0,0,0,.29-.88A3.56,3.56,0,0,0,464.32,487.17Zm-66.8,1.17v.88a3.23,3.23,0,0,0,3.22.58,1.7,1.7,0,0,0,.88-1.46,1.06,1.06,0,0,0-1.46-.88l-.88.29Zm-60.06,0c.78.59,1.07.48.88-.29l-.59-.3v.3Zm92.29,1.46-.59.59a1.07,1.07,0,0,0,.88,1.47h.88c.19-.2.88-1.08,2.05-2.64A19.35,19.35,0,0,0,429.75,489.8Zm-7.91.3-.59-.3v.59Zm-113.38-.3c-.59.78-.49,1.18.29,1.18.39,0,.59-.1.59-.3l-.3-.88Zm-12.6.59.59-.29-.59-.3Zm-21.68.29a.52.52,0,0,0-.59.59c-.19.78.1,1.07.88.88l.3-.88Zm175.78.59a1.31,1.31,0,0,0,.29,1.46c.39.39.59.3.59-.29C451,491.86,450.74,491.46,450,491.27Zm-194.82.88H256l-.59-.59Zm106.64,2.34c.39.19.68.19.88,0,.39-.2.58-.39.58-.58.2-.4.1-.59-.29-.59a2.63,2.63,0,0,0-2.93,0A1.88,1.88,0,0,0,361.78,494.49Zm24.31.29c.2.59.69.78,1.47.59s1-.59.59-1.17a1.36,1.36,0,0,0-1.47-.88A1.19,1.19,0,0,0,386.09,494.78Zm-35.15-.58a2.3,2.3,0,0,0,.88.29l.58-.29-.58-.59h-.88Zm59.47,2.34.59.59.58-.29c.2-.79-.1-1.08-.88-.88C410.51,496,410.41,496.15,410.41,496.54Zm22.56,0-.88-.58c-.59,0-.88.39-.88,1.17a.51.51,0,0,0,.59.58H433Zm-107.81,0,.29-.58h-.59Zm-53.32,1.17v-.29l-.3.29Zm124.51.88.58-.88h-.87Zm48-.58a.82.82,0,0,0-1.18.58c-.19.59.1.88.88.88a.78.78,0,0,0,.88-.88A.51.51,0,0,0,444.4,498Zm-23.15.88c-.78-.2-1.17.09-1.17.88v2.34a9.12,9.12,0,0,0,1.17-.88,3.81,3.81,0,0,0,.59-.88c.19-.39.19-.69,0-.88C421.84,499.28,421.64,499.08,421.25,498.89Zm39.55,1.46c-1.37-1.37-2.63-1.27-3.81.29a.83.83,0,0,0,.59,1.18,3.19,3.19,0,0,0,2.64,0C461,501.42,461.19,500.94,460.8,500.35Zm-75.29-.58h-.88a2.32,2.32,0,0,0,.29.87h.88C385.6,500.06,385.51,499.77,385.51,499.77Zm-27.54.58c-.2.59.1.88.88.88l.58-.29c.2-.79-.1-1.08-.87-.88H358Zm80-.29h-.59l.3.58ZM418,506.5a35.68,35.68,0,0,1-1.76,5.28,20.77,20.77,0,0,1,2.05,1.46c1.76,1.17,2.73.78,2.93-1.17a14.64,14.64,0,0,0-1.17-9.38A8,8,0,0,0,418,506.5Zm37.5.3c-.4-1-1.17-1.28-2.35-.88a1.14,1.14,0,0,0-.87,1.17,1.18,1.18,0,0,0,.29.88,8.17,8.17,0,0,1,1.76.58l.58-.29.88-.58Zm-61.53.58.3.59h.58v-.88Zm67.39.88c-.79-.78-1.17-.69-1.17.29l.87.3A.83.83,0,0,1,461.39,508.26Zm-48.64,3.81a.85.85,0,0,0-.29.59c-.2.77.1,1.17.88,1.17a4.35,4.35,0,0,0,2.64-2.05h-2.35A2.18,2.18,0,0,0,412.75,512.07Zm-14.94,2q.3,0,1.47,1.17c.39.19.58.39.58.59a1.17,1.17,0,0,1,.88.29,1.92,1.92,0,0,0,2.35-1.46c0-.59-.69-1-2-1.18a4.43,4.43,0,0,0-1.47-.87c-.58-.4-1.07-.4-1.46,0A.93.93,0,0,0,397.81,514.12Zm35.45.88c1-.39,1-.69,0-.88l-.58.29Zm-8.49-.29c.77,0,.88-.2.29-.59l-.59.29v.3Zm33.1,7.91,2.93,2.93a9.15,9.15,0,0,1,2.05.88A38.62,38.62,0,0,0,462,522a5.88,5.88,0,0,1,.88-4.1c.39-.78.68-1.37.88-1.76.19-.2.19-.49,0-.88a1.49,1.49,0,0,0-1.76-.58l-2.34.88a2.35,2.35,0,0,0-1.76,2.93,2.21,2.21,0,0,0,.3.87,1.17,1.17,0,0,0,.29.88,3.91,3.91,0,0,1-.88,2.35ZM369.4,519.1c.58.59,1.07.59,1.46,0a.93.93,0,0,0,.29-1.46,2.35,2.35,0,0,0-1.75-.59c.19-.78,0-1.27-.59-1.46-.78-.2-1.08.09-.88.87,0,.59.39.88,1.17.88A1.93,1.93,0,0,0,369.4,519.1Zm20.8-2.64-.59-.58-.59.29.3.59.29-.3Zm46.87,2.93c-.58.59-.2,1,1.17,1.18a3.25,3.25,0,0,0-.58-1.18C437.66,519,437.46,519,437.07,519.39Zm-54.78,2.35.88-.3-.59-.58ZM401,523.5c-.4.58-.1.87.88.87l.58-.29c.39-.2.59-.39.59-.58.19-.59-.1-.88-.88-.88h-.88S401.23,522.91,401,523.5Zm62.69,7c.59-1.76.39-3-.58-3.81a29,29,0,0,0-2.06,5.27,2.39,2.39,0,0,0,1.47-.29Q463.73,531.11,463.73,530.53ZM419.2,527.3l.59.59V527Zm-48.05.59v-.59l-.58.3Zm78.23,0a9,9,0,0,0-3.81,2.34,2.77,2.77,0,0,0-1.17,1.47,1.06,1.06,0,0,0,.87,1.46,6.52,6.52,0,0,0,3.23-.29,12.41,12.41,0,0,1,2.93-.59q-.3-2.92-.3-3.51C451.13,527.6,450.55,527.3,449.38,527.89Zm-87.6,3.81a2.88,2.88,0,0,0,.58,2.64c.39-.2.59-.4.59-.59a1.93,1.93,0,0,0,.59-2.34.52.52,0,0,0-.59-.59C362.17,530.62,361.78,530.92,361.78,531.7ZM469.3,532c-.4-.58-.88-.58-1.47,0-.39,0-.88.39-1.46,1.17-1.17,1.37-2.45,1.76-3.81,1.18a4.48,4.48,0,0,1-1.47-1.76,7.12,7.12,0,0,0-1.46,5.86c.19.78.59,1.17,1.17,1.17a40,40,0,0,0,8.2-1.47,1.16,1.16,0,0,0,.3-.87A6.23,6.23,0,0,0,469.3,532Zm-41.9.88a2.3,2.3,0,0,1,.88.29c.59.39,1.07.2,1.47-.58l-.3-.59a2.27,2.27,0,0,1-.87-.29h-1.47S427.21,532.09,427.4,532.87Zm24.32-.29a3,3,0,0,0,1.17.58c.59.39.78.3.59-.29A1.75,1.75,0,0,0,451.72,532.58Zm-36.33.88-.58-.59-.88.29.58.59Zm-28.71,2.63v.59h.88l-.29-.88Zm36.91,2q-.58.58.3,1.47l.58.29c.2,0,.39-.2.59-.58a1.34,1.34,0,0,0-.29-1.47l-.88-.88Zm-10.25.59c1,.39,1.07.29.29-.29a1.17,1.17,0,0,0-.88-.3A.52.52,0,0,0,413.34,538.73Zm-49.22,2.34.3.59.58-.29c.19-.4.19-.59,0-.59l-.88-.88Zm31.64,2q2.92-.29,3.23-2.93A9.09,9.09,0,0,0,395.76,543.12Zm-14.94-2c0,.78.39,1.08,1.17.88a.82.82,0,0,0,.59-1.17,1,1,0,0,0-.88-.59A.78.78,0,0,0,380.82,541.07Zm40.72.88c-.58-.58-1.07-.58-1.46,0a.94.94,0,0,0,.29,1.47c.78.19,1.27,0,1.47-.59A1.19,1.19,0,0,0,421.54,542ZM445,543.71c-.2,1.76.59,2.54,2.35,2.34a13.3,13.3,0,0,0,2.34-.87,3.75,3.75,0,0,0-3.22-2.64A1.38,1.38,0,0,0,445,543.71Zm-72.36,0,.88.29.29-.58-.59-.3h-.29Zm52.73,1.17.59-.29-.59-.29Zm-12.89-.29v-.29h-.58ZM469,545.76c-.58-.78-.87-.69-.87.29l.58.3C468.9,546,469,545.76,469,545.76Zm-31.64,0a.93.93,0,0,0-1.46.29,1.18,1.18,0,0,0-.29.88,12.43,12.43,0,0,1,1.17,2.05h1.76a11,11,0,0,0-.59-2.63C438,546.15,437.75,546,437.36,545.76Zm14.07,1.17a2.85,2.85,0,0,0-1.47-1.17A9.43,9.43,0,0,0,451.43,546.93Zm-72.37-.88c-.78.59-.68,1,.3,1.18l.88-.3a2.19,2.19,0,0,1-.3-.88C379.55,545.86,379.26,545.86,379.06,546.05Zm73.25,2.06c1,1,1.75,1.17,2.34.58.39-.2.59-.69.59-1.46a25.21,25.21,0,0,1-3.23.29A.83.83,0,0,1,452.31,548.11Zm-87.6,0,.29.58.29.29v-1.75Zm64.16.87c-.59.59-.79,1.08-.59,1.47.19.58.68.78,1.47.58,1.17-.39,1.56-1.07,1.17-2l-.59-.58A2,2,0,0,0,428.87,549Zm16.7.3c-.79-.2-1.28,0-1.47.58a.84.84,0,0,0,.3.59,6.44,6.44,0,0,1,1.75.88,4.35,4.35,0,0,0,1.47.88c.58.58,1.07.58,1.46,0a1.67,1.67,0,0,0-.58-1.76C448.1,549.86,447.13,549.47,445.57,549.28Zm-9.08,0c-.59,0-.59.19,0,.58v-.58Zm-67.39,5.86a2.3,2.3,0,0,0,.88.29q.88,0,1.17-1.17c.2-.79,0-1.28-.58-1.47L367.93,551a15.5,15.5,0,0,0-2.64-1.75,5.62,5.62,0,0,0,.3,5.27A29.72,29.72,0,0,0,369.1,555.14ZM392,551.91l.88-.29a.37.37,0,0,0,0-.59q-.58-1.17-1.17,0Zm71.2-.88a3.3,3.3,0,0,0-3.52.3.57.57,0,0,0-.29.88,2.88,2.88,0,0,0,2.63.58c.59,0,1-.39,1.18-1.17Zm-60.94-.29-.59.59h.59Zm6.74,2a2.72,2.72,0,0,0,1.46,2.05,1.17,1.17,0,0,0,.88.3,2,2,0,0,0,1.46-.59,1.47,1.47,0,0,0,0-1.76,1.18,1.18,0,0,0-1.46-.58A9.48,9.48,0,0,0,409,552.79Zm-21.68-.29h-.59l.29.59ZM418,560.7c.58.78,1.66,1,3.22.59,1.17-.2,1.85.09,2.05.88.39,1,.68,1.46.88,1.46.39,0,.68-.49.88-1.46a16.23,16.23,0,0,0,0-6.15c-.78-.2-1.17-.59-1.17-1.18v-1.46a24.21,24.21,0,0,1-2.64.58,7.77,7.77,0,0,0-2.93,2.35,1.15,1.15,0,0,0-.29.88A3.7,3.7,0,0,0,418,560.7ZM453.77,554v.59l.59-.29Zm-18.16,1.76a1.47,1.47,0,0,0-1.76,0,5.11,5.11,0,0,1-4.4.3h-4.39a23.6,23.6,0,0,1,4.39,4.39v-.29h0a31.16,31.16,0,0,0,3.23.88,8.18,8.18,0,0,0,2.34.87,38.76,38.76,0,0,1,.88-4.39c.19-.78.29-1.17.29-1.17Zm26.66,2a1,1,0,0,0-1.18-1.17,1.78,1.78,0,0,0-1.17,1.17,1,1,0,0,0,1.17,1.17C461.68,558.94,462.07,558.55,462.27,557.77Zm-21.39.3a.86.86,0,0,0,.59-.3v-.58l-.59-.3-1.17.3Zm-82.32.29c.19.78.58,1,1.17.58a1.2,1.2,0,0,0,.29-.87c0-.79-.29-1.08-.88-.88C358.56,557.19,358.36,557.58,358.56,558.36Zm24.9,1.76v.58c1,0,1.17-.29.58-.88C383.85,559.43,383.65,559.53,383.46,560.12Zm63.28,0a1.44,1.44,0,0,0-1.76,0,4.72,4.72,0,0,0-2.64,4.39,1.56,1.56,0,0,0,1.76,1.76H445c.39-.2.59-.39.59-.59a6.92,6.92,0,0,0,2.05-4.1l.29-.88Zm23.44,1.75-.3-.58v.29Zm-80.57,5.57c.78.39,1.36.29,1.76-.29a4,4,0,0,0,1.17-3.52,1.71,1.71,0,0,0-.88-1.46,1.74,1.74,0,0,0-1.76.29q-.58,1.17-1.17,2.64C388.34,565.88,388.63,566.66,389.61,567.44Zm20.8-3.22v-.59a2.42,2.42,0,0,1-.88.3l.3.58c.19-.2.29-.29.29-.29Zm-9.08,6.15c.39.19.68.19.88,0,.39-.2.58-.39.58-.59a15.54,15.54,0,0,0-2.05-5.27,1.27,1.27,0,0,0-1.75.29,3.79,3.79,0,0,0-1.18,3.23A25.24,25.24,0,0,1,401.33,570.37Zm-42.48-5.57.29.59.59-.29v-.59Zm57.71,4.11c-.19-.79-.58-1.08-1.17-.88-.2,0-.39.19-.58.58q-.88,2.92,1.17,1.76A1.18,1.18,0,0,0,416.56,568.91Zm-20.21-.59a.58.58,0,0,0,.88-.29h-.3Zm31.93,2.34c0,.2.19.3.59.3.78.19,1.17-.1,1.17-.88l-.59-.59A1,1,0,0,0,428.28,570.66Zm15.24-.29-.3.59.88-.3Zm19,1.17h0Zm.29,0a5.27,5.27,0,0,1-1.46.59c-.59.78-.4,1,.58.58a1.17,1.17,0,0,0,.59-1.17Z"/><path d="M466.36,79.65c-1.95-1-4.35-1-7.17,0-1.3.58-2.06.29-2.28-.88a4.65,4.65,0,0,0-3.33-3.14q1.17.44-15.89-4.77c-2.17-.78-3.15-1.08-2.93-.88a57.84,57.84,0,0,0-8.8-3.22c-4.12-1.17-7.06-2.05-8.79-2.64a27.66,27.66,0,0,0-7.82-2.05q-3.59-.3-4.56-1.46a4.21,4.21,0,0,0-2-.88q-1.63-.6-6.84-2.35l-6.84-2.05a49.19,49.19,0,0,0-13-3.22c-3.7-.2-6.41-1.17-8.15-2.93a15.63,15.63,0,0,0-3.9-1.76,19,19,0,0,0-3.91-1.17Q331.48,37.16,325,35.12a9,9,0,0,1-4.23-2.35,1.6,1.6,0,0,1-.38-.67l-61.7-19.23L177.55,32.15a.47.47,0,0,1-.16.33,32.38,32.38,0,0,0-3.26,2.05q-6.84.88-7.16,1.17-9.45,2.05-34.21,7.91-5.22,1.47-17.92,4.4Q103.11,50.65,96.6,52.4c-.87.19-2.5.49-4.89.88a46.82,46.82,0,0,1-5.21,1.17q-6.19,1.75-8.8,2.64c-.87.19-2.6.48-5.21.88a13,13,0,0,0-4.89,1.17q-17.91,4.09-18.24,4.1a5.24,5.24,0,0,0-2,.59,10.21,10.21,0,0,1-1.95.29q.64,0-22.15,5.57-4.89,1.17-5.87,2-1,1.45-1,6.44v102c0,.19.1,1.36.32,3.51a2.89,2.89,0,0,0,2.28,2,8.82,8.82,0,0,0,3.91-.29q7.82-2.06,76.56-21.39l36.16-10h.65a67.72,67.72,0,0,1,6.84-2.05q4.89-1.17,7.17-1.76c5.21-1.56,9.78-2.83,13.68-3.81q11.4-3.23,14-4.1,1.64-.59,6.84-2.05a66.29,66.29,0,0,0,6.85-2,12.6,12.6,0,0,1,2.93-.88,68.19,68.19,0,0,0,10.1-2.34q4.23-1.17,12.05-3.52,2.61-.58,14.34-3.81,8.79-2.62,14.33-4.1-2.28,1.17,9.77-2.63a11.66,11.66,0,0,1,8.15,0q17.6,5.85,26.71,8.2A23.72,23.72,0,0,1,293,130a18.5,18.5,0,0,0,6.85,1.76,10.76,10.76,0,0,0,1.95.58,5.44,5.44,0,0,0,2,.59q1.29.28,3.9,1.17a23.79,23.79,0,0,0,3.91,1.47,5.37,5.37,0,0,1,2,.58q3.26,1.76,13.36,4.69c6.94,2.14,10.53,3.32,10.75,3.51L357.55,150a6,6,0,0,1,2.93.88,61.73,61.73,0,0,0,10.43,3.81q20.52,6.15,19.87,6.15a8,8,0,0,1,2.93.88q4.23,1.75,25.41,7.91,3.58,1.17,8.8,2.64h1.95a16.42,16.42,0,0,0,2.94-.59,4,4,0,0,0,2.93,3.22q4.89,2.05,3.91,1.47,12.71,4.09,24.43,7.61l3.91.88v-.29a20.45,20.45,0,0,1,4.23,2.05v-17l-2.28,1.46c-.65.59-1.19.78-1.62.59-.66,0-1-.39-1-1.17v-1.76c0-1.17.65-1.66,2-1.46a28.78,28.78,0,0,1,2.93.58V141.46c-.87-.58-.87-1.17,0-1.75V92.83q-3.25-1.17-3.9-3.51l1.95.87a10.62,10.62,0,0,1,2,.59V79.65a28.78,28.78,0,0,1-2.93.58C468.2,80,467.23,79.84,466.36,79.65ZM26.23,161.39l-.65-.3.65-.29Zm14-84.67h-.65a1.13,1.13,0,0,0-.33-.88h1l.32.59Zm5.86,4.69c-.65.19-1-.1-1-.88v-.3h.66l.65.59Zm9.45,87.3-1-1.17H56.2l.33.88ZM69.23,87.56c-.44.39-1,.29-1.63-.29-.65-.79-.43-1.18.65-1.18a1.28,1.28,0,0,1,1.31.88C69.77,87.36,69.66,87.56,69.23,87.56Zm14.34,72.65c-.87.2-1.31-.1-1.31-.87,0-.2.22-.4.66-.59a1.26,1.26,0,0,1,1.3.88ZM94,62.36a1,1,0,0,1-.65.3,1.79,1.79,0,0,1,1-.59Zm3.59,32.52a.82.82,0,0,1,.32.59C97.9,95.86,97.79,95.66,97.58,94.88Zm6.51-22.26h-.32l-.33-.3c.21-.39.33-.58.33-.58C104.63,71.74,104.74,72,104.09,72.62Zm4.24-8.21H109l-.33.59Zm2.6,9.38a4.1,4.1,0,0,1-1.63.29.8.8,0,0,1-.32-.58.79.79,0,0,1,.32-.59,1.79,1.79,0,0,1,2,0C111.47,73.3,111.36,73.59,110.93,73.79Zm23.13-14.06-.32-.59c.43-.2.65-.2.65,0l.32.59Zm23.78-7v-.58l.66.29Zm49.2-.58-.65.29v-.58l.65-.3Zm10.1-11.72-.33-.59h.65Zm3.58,44.82-.65-.29v-.58c.65-.4,1.08-.2,1.3.58C221.37,85.11,221.15,85.21,220.72,85.21Zm10.43,29.3v-.58l1,.29Zm14-56a1.25,1.25,0,0,1-1.3.88,1.42,1.42,0,0,1-1.3-1.46c.21-.59.76-.78,1.63-.59S245.37,58,245.15,58.55ZM253,15.19l-.65.3a.93.93,0,0,0-.65.29A2,2,0,0,1,253,15.19Zm0,7.62a.79.79,0,0,0-.32.59H252A1.78,1.78,0,0,1,253,22.81Zm-.32,91.12-.65.58c-.44-.2-.66-.39-.66-.58a.35.35,0,0,1,0-.59l1.31-.88Zm-.33-8.79v-.3l.33.3Zm1-24.91-.65-.29V78.77l1,.88Zm1-51.56-1,.29-.33-.29v-.58l.33-.3C254.16,27.6,254.49,27.89,254.28,28.67Zm1,5.57q-.65-.89.33-.3a3.42,3.42,0,0,1,1.63.59C256.12,34.72,255.47,34.63,255.25,34.24Zm35.51.29-.65-.29-.65-.88Zm-13,.59c.65,0,1.09.39,1.31,1.17a1.16,1.16,0,0,1-.33.88c-.65.39-1.09.19-1.3-.59C277,35.8,277.08,35.31,277.73,35.12ZM262.1,89a1,1,0,0,1-.66-.29c-.43-.59-.22-1,.66-1.17h1l.65.58C263.5,88.73,263,89,262.1,89Zm8.47-7.91-.33-.58.65-.3.33.59Zm5.86,31.64v-.58l.65.29Zm1.95-66.5a4.28,4.28,0,0,1-2.6-1.47,2.4,2.4,0,0,1,0-1.75,1.38,1.38,0,0,1,1.63-.59,2.3,2.3,0,0,1,2.6,2.05C280.23,46.05,279.69,46.64,278.38,46.25Zm3.26,41H281c-.44-.2-.65-.4-.65-.59,0-.59.32-.88,1-.88a1.44,1.44,0,0,1,1,.29C282.73,86.48,282.51,86.87,281.64,87.27Zm3.91,14.35c-.87.19-1.41,0-1.63-.59-.22-.19-.22-.49,0-.87a2.63,2.63,0,0,1,1-.3,6.33,6.33,0,0,1,1.63.59A1.18,1.18,0,0,1,285.55,101.62Zm1.3-74.71v.3a1,1,0,0,1-.65.29l-.32-.59,1-.29Zm3.59,85.84c-.87-.19-.87-.39,0-.58l.65.29Zm.65-60.64-.65.29h-1a1.35,1.35,0,0,1-1-1.46c-.22-1.17.11-1.86,1-2a2.35,2.35,0,0,1,2,.29Q293.37,50.64,291.09,52.11ZM291.74,99v-.87a7,7,0,0,0,1-1.47,8.38,8.38,0,0,1,.32,1.47c.22.77,0,1.17-.65,1.17C292.17,99.47,292,99.37,291.74,99ZM293,83.46h.66l-.33.58Zm.33,21.68-.65-.3,1-.29Zm.33-8.79h-.33a4.33,4.33,0,0,0,1-.59Zm.65-39.26-.65.59c-.87-.2-1.2-.69-1-1.47v-.29h.65C294.24,55.92,294.56,56.31,294.35,57.09Zm1.63-29-.65-.3.32-.88h1.63Zm2.6,7.32a1,1,0,0,1-.65.29c-.87-.19-1.2-.68-1-1.46.22-.4.44-.59.66-.59.65-.2,1.08.1,1.3.88A1.12,1.12,0,0,1,298.58,35.41Zm3.26,17.87-.65.29-1-.29c-.22-.39-.32-.59-.32-.59h.32c.43-.58,1-.58,1.63,0A.36.36,0,0,1,301.84,53.28Zm0-7.91-1,.29-.65-.58c-.65-1.57-.11-2.35,1.63-2.35.43-.19.65-.1.65.3A2.26,2.26,0,0,1,301.84,45.37Zm6.52,73.24.32-.58.33.58ZM309,74.67c-.87-.2-1.09-.59-.65-1.17.21-.59.65-.69,1.3-.3.43.2.65.39.65.59C310.31,74.57,309.87,74.86,309,74.67Zm3.58-30.47c-.22,0-1.09-.1-2.6-.29a5.1,5.1,0,0,0,.65-1.47,1.74,1.74,0,0,1,1.95-.58c1.52,0,2.06.58,1.63,1.75C314,44,313.46,44.2,312.59,44.2Zm5.54,12.89c-.87.19-1.42,0-1.63-.59a8.51,8.51,0,0,0-1.63-2.34,12.27,12.27,0,0,1-1.3-2.34l.65-.88a2.28,2.28,0,0,1,2.61.58,19.71,19.71,0,0,1,2.28,4.1C319.32,56.4,319,56.89,318.13,57.09Zm3.26,8.2h-.65l.65-.58Zm1.95,45.41v.3l-1-.3.32-.58H323l.32.29Zm.65-8.49-.65-.3V101H324c.22,0,.33.2.33.59Zm.66-52.44c-.22.77-.66,1-1.31.58-.65-.2-.87-.69-.65-1.46a.92.92,0,0,1,1.3-.59A1.15,1.15,0,0,1,324.65,49.77Zm.65,80v-.59h.32Zm0-53-.33-.88.33-.59.65.88Zm32.58,17.87c.21-.2.43-.1.65.29a2.15,2.15,0,0,1,.32.88,19,19,0,0,0-1,2.35,8.83,8.83,0,0,0-.66-2.35Q357.22,94.59,357.88,94.59Zm-1.31-23.44.33.29-.33.59-.65.59-.33-.88C355.81,70.76,356.13,70.57,356.57,71.15Zm-2.93-21.38c.43.38.65.68.65.87l-.65-.29Zm-22.8-9.09c1.08.59,1,.88-.33.88l-.65-.58ZM328.23,92l-.33-.58.65-.59c.44,0,.66.1.66.29C329.64,91.85,329.31,92.15,328.23,92Zm1-35.15.65-.59c.21.39.21.59,0,.59C329.64,57.57,329.42,57.57,329.21,56.8Zm1.3,23.43c-.22,0-.44-.19-.65-.58a.84.84,0,0,1-.33-.59c.43-.78,1-1,1.63-.58l.65.58C331.81,79.84,331.38,80.23,330.51,80.23ZM338,116.86l-.65-.3V116h1C339.19,116.56,339.09,116.86,338,116.86Zm3.91,13.76V130h.65Zm-.32-42.18V87.27a.93.93,0,0,1,.65.87C342.45,89.12,342.24,89.22,341.59,88.44Zm1-28.13-.65.59a3.22,3.22,0,0,1-2.93.29l-.65-.58a2.15,2.15,0,0,1-.33-.88,1.27,1.27,0,0,1,1.31-.88,2.58,2.58,0,0,1,1,.29C342.24,59.33,343,59.73,342.56,60.31Zm2.94,62.4-.33-.29.65-.29Zm5.53-6.15c-.22.39-.43.59-.65.59-.44,0-1.41-.1-2.93-.29a2.81,2.81,0,0,1,2-1.47c.86-.2,1.4,0,1.62.59A.34.34,0,0,1,351,116.56Zm.66-28.71v-.58h.65Zm2.6,13.48a1,1,0,0,1-.65-.3c-.22-.39.43-.58,1.95-.58A2.08,2.08,0,0,1,354.29,101.33Zm3.26-2.93c0,1-.65,1.56-2,1.76A2.2,2.2,0,0,1,357.55,98.4Zm1.95,43.06c-.43.39-1,.3-1.62-.29a1.22,1.22,0,0,1-.33-1.46c-.87,0-1.3-.3-1.3-.88-.22-.79.1-1.08,1-.88.66.19.87.68.66,1.46a2.32,2.32,0,0,1,1.62.59C360.16,140.59,360.16,141.07,359.5,141.46Zm8.15-77.93.65.3h-.65Zm-5.87,46-.65-.59.33-.58a1.42,1.42,0,0,1,1,.29C362.87,109.43,362.65,109.72,361.78,109.53Zm2.61-53.61-.32.29h-.33v-.59l.65-.29v.29l.33.3Zm2.93,20.51c-.65-.59-.43-1.28.65-2.06.66-.58,1.09-.49,1.31.3a1.25,1.25,0,0,1-.33,1.46l-1,.3Zm2,22.55H369l-.32-.58c.21-.59.43-.69.65-.29a2,2,0,0,0,.32.87Zm65.81-22.55.65.29-.33.29a1,1,0,0,1-.65.29l-.33-.58Zm-8.15-1.76a1.75,1.75,0,0,1,2,0,1.62,1.62,0,0,1,.32,1.76.84.84,0,0,1-.32.58,4.33,4.33,0,0,1-1,.59q-2.94,2-5.21.29Q426.28,75.25,426.94,74.67Zm1,15.23a10.36,10.36,0,0,1-1.3.88V89.32c0-.59.32-.79,1-.59.22,0,.33.19.33.59C428.13,89.7,428.13,89.9,427.92,89.9Zm-8.47,17.87c0,.2-.33.2-1,0l-.65-.58-1.63-2.93c2,.19,3.15.88,3.58,2C420.21,107.09,420.1,107.58,419.45,107.77Zm.32,28.71v.59l-.65-.29Zm-3.25-50.09c.65.38.75,1,.32,1.75a1.4,1.4,0,0,1-1,.3c-.21,0-.43-.2-.65-.59l-.65-.58a4.2,4.2,0,0,0-.65-1.76A5.21,5.21,0,0,1,416.52,86.39Zm-3.26-2.93c.21,0,.32.19.32.58v1.17C412.71,84,412.61,83.46,413.26,83.46ZM412,98.4a1.93,1.93,0,0,1,1.62.88,21.28,21.28,0,0,1,2.28,4.68,7.55,7.55,0,0,0-1.62.88,2.15,2.15,0,0,1-2.61,0,20.54,20.54,0,0,1-2.28-1.75c-1.09-.79-1.2-1.86-.33-3.23a6.6,6.6,0,0,0,1-1.46Zm3.9,13.77v.58l-.65-.29Zm-11.07-41.9a1.27,1.27,0,0,1,1.63,0c.43.2.54.49.32.88a.93.93,0,0,1-1.3.59l-1-.59A2.05,2.05,0,0,0,404.79,70.27Zm-1.63,11.14c-.22,0,.43-.69,1.95-2,.66-.79,1.52-.79,2.61,0a3.68,3.68,0,0,1,1.63,2c.86,2.14-.11,3.12-2.93,2.93a6.21,6.21,0,0,1-2.28-.59C402.18,83.36,401.86,82.58,403.16,81.41ZM392.41,66.17c.43-.58,1-.58,1.63,0v.59c-.44.78-1,.88-1.63.29l-.33-.29Zm2.28,22.56c1.08.59,1.52,1.27,1.3,2a7.93,7.93,0,0,1-.65,1.76,3.75,3.75,0,0,1-2.61-.88c-1.09-.39-1.3-1.17-.65-2.34C392.51,88.34,393.39,88.14,394.69,88.73Zm-3.91-12c.43-.4.65-.49.65-.29.65.58.43.87-.65.87ZM375.14,65.29l.65.3-.65.29Zm-2.93,78.52.33-.59.65.59Zm2.28-52.15c-.22.78-.54,1.17-1,1.17a1.2,1.2,0,0,1-1.63-.88,2.62,2.62,0,0,1,.66-2.63c.21-.2.86-.79,1.95-1.76A12.36,12.36,0,0,1,374.49,91.66Zm1.3,31.05c-1.09.2-1.3-.1-.65-.87l.65.29C376,122.52,376,122.71,375.79,122.71Zm2.28-5a1.39,1.39,0,0,1-1.63-.58q-.65-.89.66-1.47a1.39,1.39,0,0,1,1.63.59C379.16,116.86,378.94,117.34,378.07,117.73Zm1-31.64c-.22.39-.44.59-.65.59-.65,0-2,.09-3.91.29q.64-2.64,4.24-2c.43,0,.65.19.65.59A.8.8,0,0,1,379.05,86.09Zm1.63,53c-.44,0-.65-.1-.65-.29-.22-.59,0-.69.65-.3Zm3.26-75c-.44.59-.87.68-1.31.29a.56.56,0,0,1-.32-.88,2.88,2.88,0,0,0,1-.29,6.15,6.15,0,0,0,1.3-.29A3.31,3.31,0,0,1,383.94,64.12ZM386.22,130a6,6,0,0,0-.7.18l-.28-.77h1Zm0-68.56c0,.2-.44.49-1.3.88a8.26,8.26,0,0,0-.66-2,1.12,1.12,0,0,1,.33-.88h1C387.08,60,387.3,60.7,386.22,61.48Zm1.63,42.78a2,2,0,0,1,.32-.88c.22-.59.76-.88,1.63-.88.43.19.65.39.65.59.87.77.54,1.46-1,2C388.61,105.33,388.06,105,387.85,104.26Zm1.3,7.32c-.44-.58-.65-.88-.65-.88l1.3-.29c1.74-.59,3-.59,3.91,0a1.68,1.68,0,0,1-1,1.46,3.72,3.72,0,0,1-2.93,0ZM394,146.44a1.43,1.43,0,0,1-1-.29c-.22-.39.43-.68,1.95-.88A1.88,1.88,0,0,1,394,146.44Zm1-9.37a1.38,1.38,0,0,1-1.62.59l-.33-1.76c-.87.78-1.52,1.36-1.95,1.76h1.62a2.35,2.35,0,0,1-1.62,0c-.88-1.18-1.09-1.86-.66-2l1-.59.65.59a2.61,2.61,0,0,1,1,.29Q395.67,136.19,395,137.07Zm1.63-41.31c-.65.39-1.09.19-1.3-.58V92.83c.65,1,1.08,1.66,1.3,2S396.86,95.56,396.64,95.76Zm2.94,11.72h-.66c-.87-.2-1.19-.59-1-1.17a1.37,1.37,0,0,1,1-.29,1.27,1.27,0,0,1,1.31.87C400.23,107.09,400,107.28,399.58,107.48ZM402.51,94l-.33-.29.65-.29h1l.65.29-.32.59A1.1,1.1,0,0,1,402.51,94Zm2.28,25.2a.68.68,0,0,1-1,.29l-.33-.88.66-.58C405,118,405.22,118.42,404.79,119.2Zm1.63,41.6a1,1,0,0,1-.65-.29.93.93,0,0,1,1.3.58Zm1.3-4.69v-.88h.65l.33.59Zm-1-19.92c-.87,0-1.19-.39-1-1.17a.8.8,0,0,1,.32-.59,2.76,2.76,0,0,1,1-.29h2.6A4.77,4.77,0,0,1,406.74,136.19ZM413.58,150h-.65v-.88a1,1,0,0,1,.65-.29Q414.89,149.38,413.58,150Zm2,14.94v.29h-.65l-.65-.58.32-.59C415.43,163.63,415.75,163.92,415.54,164.9Zm0-30.47c0,1.18-.76,1.66-2.28,1.47a16.46,16.46,0,0,1-3.26-1.76,27.07,27.07,0,0,0,2.28-6.15,5.7,5.7,0,0,1,2-2.93Q416.51,128.57,415.54,134.43Zm.65-11.72-1.95,1.76a7.75,7.75,0,0,1,.32-2.93,1.45,1.45,0,0,1,1-.29c.43.19.65.39.65.59C416.4,122.22,416.4,122.52,416.19,122.71ZM418.8,162a1,1,0,0,1-.65-.29l-.66-.88.66-.59,1-.29a1.17,1.17,0,0,1,1,1.17C419.88,161.87,419.45,162.16,418.8,162Zm1.3,5v-.29l.65.29Zm5.21-53c-.87-.2-1.19-.59-1-1.18.22-.39.44-.58.66-.58a22.34,22.34,0,0,1,3.58-.59c-1.3,1.56-2.17,2.35-2.61,2.35A.44.44,0,0,1,425.31,113.93Zm2,6.15-.65-.59c-.22-.78.1-1.17,1-1.17.43,0,.65.19.65.59C428.46,119.68,428.13,120.08,427.27,120.08Zm2.28,17-1,.29v-.88c.43-.19.65-.19.65,0C429.87,136.48,430,136.68,429.55,137.07Zm-.65-25.78a14.4,14.4,0,0,0-.33-3.52,11.34,11.34,0,0,1,1.63-.29c1.73-.39,2.71.19,2.93,1.76A1.69,1.69,0,0,1,431.5,111,6.06,6.06,0,0,1,428.9,111.29Zm3.91,60.06a11.26,11.26,0,0,0-1.31-2c-.22-.79.11-1.28,1-1.47.86,0,1.41.29,1.63.88.21.19.32,1.07.32,2.64Zm.32-29.59c.43-.4.65-.4.65,0a3.37,3.37,0,0,1,.65,1.46C432.91,142.83,432.48,142.34,433.13,141.76Zm.33-19,.32-.58.33.58ZM438,94.59c-.22.39-.44.59-.65.59a8.19,8.19,0,0,1-2.61-.59,4.42,4.42,0,0,1-1.63,2l-2.64,1.19a9.51,9.51,0,0,1-3.87.86c-.88,0-3.26-.1-7.17-.29-.87,0-1.42-.69-1.63-2.05q-.33-2.64,2.28-1.76a3.32,3.32,0,0,0,3.58-.88l.65-.59,1-.87,1.31-1.18a60.22,60.22,0,0,0,8.14,3.52,6.65,6.65,0,0,1,1-1.47,1.27,1.27,0,0,1,1.63,0A1.15,1.15,0,0,1,438,94.59ZM463.1,84l3.59,1.76,1.3,2.93-6.19-3.52a2.07,2.07,0,0,1-.33-.87C461.69,83.75,462.23,83.65,463.1,84Zm-.65,24.9c.87-.19,1.3.1,1.3.88v.88c-.21.78-.65,1.07-1.3.88a1.17,1.17,0,0,1-1-1.17A1.37,1.37,0,0,1,462.45,108.94Zm-4.56-18.45.65.29-.32.29c-.66.59-1,.39-1-.58ZM445.51,79.65a12.67,12.67,0,0,1,5.54,0c1.52.39,2.06,1.07,1.63,2a2.9,2.9,0,0,1-1.31,1.46,17.59,17.59,0,0,0-1.95.3h-1a2.78,2.78,0,0,1-2.93-2Zm-1.95,10.54a4.83,4.83,0,0,1,4.88.3l.65.88-.32.88c-.87,1-1.63,1.85-2.28,2.63q-2.28,1.75-3.26-.88c-.22-.78-.44-1.66-.65-2.63A1.18,1.18,0,0,1,443.56,90.19ZM440,120.66l.65-.58c.66-.2,1.09.09,1.31.88,0,.58-.44.88-1.31.88C440,121.84,439.75,121.44,440,120.66Zm6.19,53.91h-.77c-.43-.23-1.68-.81-3.79-1.76-.87-.39-1-.78-.32-1.17.21-.2.54-.2,1,0l2.94.29,1,.88A1.36,1.36,0,0,1,446.16,174.57Zm-2-6.15q-2.61.29-2.28-2.64a1.19,1.19,0,0,1,1.63-.88,4.09,4.09,0,0,1,3.58,2.64A22,22,0,0,0,444.21,168.42Zm-1.31-13.19c-.21.2-.54.2-1,0-.65-.39-.77-1-.33-1.75a3.46,3.46,0,0,1,1.3-1.18,7.11,7.11,0,0,1,4.24-1.17A5.72,5.72,0,0,1,442.9,155.23Zm2-46.29a1.53,1.53,0,0,1,1.95-.29c.44.39.33.88-.32,1.47l-1.3,1.17C444.53,110.31,444.42,109.53,444.86,108.94Zm2.93,41.31a.84.84,0,0,1-.32.59,1.14,1.14,0,0,1,.65-1.17Zm.33-35.15c-.65-.4-.87-.88-.65-1.47.86,0,1.3.39,1.3,1.17C448.55,115.19,448.33,115.29,448.12,115.1Zm2.28,55.08a1,1,0,0,1-.65-.3h1.95l1.63-.29A2.2,2.2,0,0,1,450.4,170.18Zm1-14.36v-.59l.66-.29.32.59A1.45,1.45,0,0,1,451.37,155.82Zm2-25.49-1,.29a1.87,1.87,0,0,1-2.28-1.17v-.58c.22-.59.76-.88,1.63-.88a1.39,1.39,0,0,1,1.63.58l.65.88Zm.33-21.09c-.88-1.37-1.53-2.35-2-2.93a9.49,9.49,0,0,0-1.95-.59l-8.8-.88c-.87,0-1.3-.39-1.3-1.17,0-.58.43-1,1.3-1.17a1.38,1.38,0,0,1,1-.29q-1,0,1.95-.3c2.82-.19,4.89-1.07,6.19-2.63a5.23,5.23,0,0,1,3.59-1.47q1.95,0,2.28,1.47c0,.19.1,2.34.32,6.44.22,1.17-.44,2.25-1.95,3.22Zm1.3,14.35v-.88a3.22,3.22,0,0,1,2.6-1.17l2.61.59s-.22.48-.65,1.46a4.33,4.33,0,0,1-1.63.88C456.37,124.47,455.39,124.18,455,123.59Zm5.21,6.74s-.11.29-.32.88l-1-.59.32-.58.66.29Zm-1.95,7.33a2.59,2.59,0,0,1,1-.3l2-.58a2,2,0,0,1,1.63.88q.32.28,0,.87a8.57,8.57,0,0,0-1,1.18,3.31,3.31,0,0,1-.65,1.17,3.38,3.38,0,0,0,0,3.51,17.3,17.3,0,0,0,2,3.23,4.16,4.16,0,0,1,.65,4.39,3.81,3.81,0,0,1-3.9,2.35c.21-1.37.32-2.16.32-2.35.43-1.56.33-2.74-.32-3.51a59.66,59.66,0,0,1-3.59-7.91C455.82,139.22,456.48,138.24,458.22,137.66Zm1.63,42.18-.33-.58c.43-.59.76-.69,1-.3C461.15,179.55,460.93,179.84,459.85,179.84Zm1.62-5a4.87,4.87,0,0,1-2,.3c-1.09,0-1.63-.3-1.63-.88s.43-1,1.3-1.17h2l1,.29C462.56,174,462.34,174.47,461.47,174.86Zm8.15-21.09a10.07,10.07,0,0,1-.33,5.57,1.89,1.89,0,0,1-1.3,1.17,66.63,66.63,0,0,1-8.14,1.46,1.5,1.5,0,0,1-1.63-1.17,6.53,6.53,0,0,1,1.63-5.86,4.55,4.55,0,0,0,1.62,1.76,3.42,3.42,0,0,0,4.24-1.47,7,7,0,0,1,2-2A1.76,1.76,0,0,1,469.62,153.77Zm-3.91-51.27H468a5.29,5.29,0,0,0-1.63,1.46c-.44.2-.76.2-1,0C464.73,103.38,464.84,102.89,465.71,102.5Zm2.93-2s-.11.58-.32,1.76c-1.75-1.37-2.94-2.25-3.59-2.64-.22,0-.32-.2-.32-.59,0-.78.43-1.17,1.3-1.17Q468.64,97.51,468.64,100.45Z"/><path class="cls-1" d="M19.46,317.47V568.54l330.34,2.05L19.46,568.54"/><path class="cls-2" d="M469,275.94c-1.31.78-2.18.58-2.61-.59a3.74,3.74,0,0,0-2.61-2.34c-1.08-.4-1.3-1.17-.65-2.35a3.63,3.63,0,0,1,1-1.46,2,2,0,0,1,2.61-.88c.43.19,2.28.88,5.53,2.05V247.81a1,1,0,0,1,0-1.76V214.12c-2.6-.2-4.56-.29-5.86-.29a3.41,3.41,0,0,1,2.28-1.17l3.58-.3v-17q-6.84,1.47-7.81,2c.43,3.12.21,5.47-.66,7a12,12,0,0,1-1.37-.69c-.26-.52-1.1-1.94-2.53-4.29a6.09,6.09,0,0,0-5.54-3.51H355V311c2,0,4.27.06,6.74.13.44,0,1.41-.1,2.94-.29a2.07,2.07,0,0,0,1.63-1.17V309c0-.19.1-.29.32-.29q1-2.36,2.28-1.17a9.42,9.42,0,0,0,9.12,3.22q-2.28.29,9.45.29h14l14-.29h17.59q5.87.29,15.31,0h15c.86,0,1.08-.69.65-2.05a7.2,7.2,0,0,0-.33-1.76,7.58,7.58,0,0,1-.32-1.76,2.78,2.78,0,0,0-2-2.05,11,11,0,0,0-2-.58,9.32,9.32,0,0,0-2-.59,4.67,4.67,0,0,1-3.25-3.51c-.22-.2-.11-.49.32-.88a1.4,1.4,0,0,1,1-.3,38.37,38.37,0,0,0,7.82.88c.43,0,1.52.1,3.26.3,1.3,0,1.95.58,1.95,1.75a14.11,14.11,0,0,1-.32,1.76,19.65,19.65,0,0,1,3.9.29v-5.86a1.35,1.35,0,0,1,0-1.75V281.5c-1.08-.58-1.08-1.17,0-1.75v-5.57A19.91,19.91,0,0,0,469,275.94ZM360.81,228.48l.32.58h-.65Zm-4.56,48-.66-.58h1Zm1.63-75.88c-.66.39-1.09.2-1.31-.58l.33-.88c.86-.2,1.3.1,1.3.88C358.42,200.25,358.31,200.45,357.88,200.64Zm.65,44.83.32-.29h.65c.66,0,1,.38,1,1.17l-1,.58C358.63,246.74,358.31,246.25,358.53,245.47Zm3.91,48.63a2.07,2.07,0,0,1-1.31,2h-.65a2.32,2.32,0,0,1-.32-2.63c.21-.79.75-1.08,1.62-.88C362.44,292.83,362.65,293.32,362.44,294.1Zm2.6-17.87a1.16,1.16,0,0,1-.32.88h-1q-1-.58,0-1.47l.65-.58C365.26,275.06,365.47,275.45,365,276.23Zm-.32-10c-.22,0-.33-.1-.33-.29a1,1,0,0,1,.65.29l.33.29A1,1,0,0,1,364.72,266.27Zm1-14.94L365,251v-.87l.65.58Zm-.32-10v-.59a1.09,1.09,0,0,1,1.63-.29.35.35,0,0,1,0,.58A1.1,1.1,0,0,1,365.37,241.37Zm2.6,40.72h-1l-.33-.59v-1.17l1.3.29c.22,0,.33.2.33.59A1.12,1.12,0,0,1,368,282.09Zm-.32-56.84v-.58a1,1,0,0,1,.65-.3c.21.39.33.59.33.59Zm5.54,55.08c-.65,0-1-.39-1-1.17a1.06,1.06,0,1,1,2,0C374.16,279.94,373.84,280.33,373.19,280.33Zm1.63-43.65-.33-.59,1,.3Zm3.25-10.55v-.29h.33C378.4,226,378.29,226.13,378.07,226.13Zm1,28.42-.65-.29h.65Zm1.3,11.13-.65.3-.32-.59c0-.39.1-.59.32-.59C380.57,264.61,380.79,264.9,380.35,265.68Zm.33-61.52a1.11,1.11,0,0,1-1.63-.29c-.65-1.57-1-2.35-1-2.35l.33-1.17a2,2,0,0,1,1.63-1.17c.86-.2,1.3.1,1.3.88v3.51C381.33,204,381.11,204.16,380.68,204.16Zm1.3,82.62-.32.58-.33-.58Zm.33,14.65h-.65c-.65-.59-.44-1,.65-1.18l.65.3A3,3,0,0,0,382.31,301.43Zm73.95,4.68c.22-.58.76-.78,1.63-.58a1.35,1.35,0,0,1,1,1.46c-.22,1.37-.87,1.86-2,1.47C455.82,308.26,455.61,307.48,456.26,306.11Zm9.45-51.56a9.2,9.2,0,0,1-3.91,5.86,8.83,8.83,0,0,0,.33-1.47,5.55,5.55,0,0,1,1.95-5c.65-.58,1.19-.68,1.63-.29Zm1-9.67c-.22.19-.44.1-.65-.29a.8.8,0,0,1,.32-.59l.65.3Zm1-8.2.33.88-.65.58c-.44.59-1.09.69-2,.3a4.62,4.62,0,0,1-2.93-2.35v-.88a1.27,1.27,0,0,1,1.3-.87A3.8,3.8,0,0,1,467.66,236.68ZM466,214.41l-.33,1.47A1.23,1.23,0,0,1,466,214.41Zm-7.17,3.23,1,.29h.32a2.38,2.38,0,0,0,1.63,0h.33a19.56,19.56,0,0,0,3.91.29,41.07,41.07,0,0,0-2.61,3.52,2,2,0,0,0,0,2.63q.31.3,2.61,2.64a1.78,1.78,0,0,1,0,2.05v1.76a7.3,7.3,0,0,1-5.54-2q-1.31-1.47-4.89-4.69-3.25-2.64-.33-5.86c.87-1,1.31-1.46,1.31-1.46Zm2.6,43.94a.79.79,0,0,0-.32.59C461.15,261.77,461.25,261.58,461.47,261.58Zm-2-8.79a1.76,1.76,0,0,1-2,.59c-1.08-.4-1.41-1.08-1-2a1.41,1.41,0,0,1,2.28-.88C460,250.84,460.17,251.62,459.52,252.79Zm-7.82-47.17q2.28-3.23,4.89,0a1.16,1.16,0,0,1,.32.88,3.34,3.34,0,0,1-.65.88,15.15,15.15,0,0,0-5.21,2.35c0,.19-.55.38-1.63.58C449.42,209.14,450.18,207.57,451.7,205.62ZM447.79,198h1v1.17a.84.84,0,0,1-.33.59l-.65.29c-.87-.2-1.3-.59-1.3-1.17C446.49,198.1,446.92,197.81,447.79,198Zm-.32,27.54c.86.19,1.08.68.65,1.46a1.47,1.47,0,0,1-1,.29l-.65-.58a3.37,3.37,0,0,1-.65-1.47A10.32,10.32,0,0,0,447.47,225.55Zm-8.15-14.65c.21,0,.33.09.33.29H440l-.32.29s-.12.2-.33.59Zm-.32,2v1.17A.68.68,0,0,1,439,213Zm-4.89,22.56a1.54,1.54,0,0,1-1.63.88c-.87-.2-1.2-.59-1-1.18a1.51,1.51,0,0,1,1.63-1.17C434,234.23,434.32,234.72,434.11,235.51ZM431.5,220h-1.95c-.65,0-1-.39-1-1.17v-.88h3.26l1.63.59C434.32,219.1,433.67,219.59,431.5,220Zm-4.56-5.86a1.71,1.71,0,0,1-1-1.46q-.33-3.53,2.94-2.64a11.48,11.48,0,0,0,2,.59,5.16,5.16,0,0,1,0,2.63C430,214.41,428.68,214.71,426.94,214.12Zm5.87-6.44c0,.58-.66,1.46-2,2.63-.65-1.56-1.09-2.54-1.3-2.93a12.18,12.18,0,0,0-.65-2.63c1.3.19,2.06.29,2.28.29C432.91,205.43,433.46,206.31,432.81,207.68Zm-3.26-6.16c.21-.39.43-.49.65-.29q1.29.59,0,1.17a2.87,2.87,0,0,1-1.63.29A9,9,0,0,1,429.55,201.52Zm-3.91,1.76a1.38,1.38,0,0,1,1-.29h1.62a7.12,7.12,0,0,1,.33,1.76,18,18,0,0,0-1.95-.3C425.74,204.45,425.42,204.06,425.64,203.28Zm-4.24,43.07c.65-.4,1.52-.88,2.61-1.47a9,9,0,0,0,2.93-2.63l3.58.29v-.29c2,1.17,3.59.87,4.89-.88a2.05,2.05,0,0,1,.33-.88l.65-.59.65-.58c1.08-1,2.06-1.08,2.93-.3q3.25,2.34,3.91,4.1l.33.59-.65.29a91.63,91.63,0,0,1-10.75,2.35,7.7,7.7,0,0,1-2.61.29,17.42,17.42,0,0,1-2.09.28q-.33.2-5.08,1.77a1.4,1.4,0,0,1-1.63-.58A1.36,1.36,0,0,1,421.4,246.35Zm14.66,43.06a2.23,2.23,0,0,1-1-3.22,30.45,30.45,0,0,1,2-3.22,29.8,29.8,0,0,0,2.28-5H441c.43,2.53.65,4,.65,4.39q0,2.92,3.26,5.57c.43.39.43.88,0,1.46q0,.88-2,5C439,291.66,436.71,290,436.06,289.41Zm.33,5.28-.65-.3v-.58h.32C436.93,293.81,437,294.1,436.39,294.69Zm1.3-36.33c-1.09.39-1.85.19-2.28-.59l-.32-.29s.1-.2.32-.59l.65-.29h1a1.87,1.87,0,0,1,1.3,1.17C438.34,258.16,438.12,258.36,437.69,258.36Zm1,5.86a3.4,3.4,0,0,1,1-.59,2,2,0,0,1,1.63.88,6.21,6.21,0,0,1,1,3.52,2.3,2.3,0,0,1-1.3,2.34,18.75,18.75,0,0,0-1.95.29c-.88,0-1.42-.29-1.63-.88A9.6,9.6,0,0,1,438.67,264.22Zm-4.56,14.35-.33.59-.32-.59Zm-1.63-4.39-1,.88-.65-.29a.89.89,0,0,1,.33-1.47.43.43,0,0,1,.65,0Zm-3.58-4.1.32-.3a1,1,0,0,1,.65-.29l.19.33A5.33,5.33,0,0,1,428.9,270.08Zm1,21.68v.29l-.65-.29Zm-3.25-27.25h-2a3.54,3.54,0,0,1,3.58-3.51,1,1,0,0,1,1,.58.35.35,0,0,1,0,.59A3.1,3.1,0,0,1,426.62,264.51Zm3.25-10.25a1.52,1.52,0,0,1-1.95-.3,1.21,1.21,0,0,1-.33-1.46c0-.2.22-.39.65-.59.87,0,1.41.3,1.63.88l.33.88Zm-11.07,39,.32-.58.65.88h-.32l-.33.29Zm.32,6.15v.3l-.65.29h-2.28a3.55,3.55,0,0,1,1.3-.59A1.27,1.27,0,0,1,419.12,299.37Zm-2.6-15.82a5.82,5.82,0,0,1-.66-7.32,1.36,1.36,0,0,1,2-.59,3.46,3.46,0,0,1,1.3,1.18,37.69,37.69,0,0,1,2.28,4.1c.87,1.36.54,2.05-1,2.05A11.55,11.55,0,0,0,416.52,283.55Zm2-68.84v-.59a.84.84,0,0,0,.33.59.82.82,0,0,1,.32.58C418.68,215.68,418.47,215.48,418.47,214.71Zm-2.28-3.52c0-.58.43-1,1.3-1.17,2.17,0,2.72.78,1.63,2.34a4.18,4.18,0,0,1-1,1.47l-2-1.76C416,211.87,416,211.58,416.19,211.19Zm-1.3,21.09q.64,0-.33.3Zm1.95,19.93a.82.82,0,0,1-.32.58,1.43,1.43,0,0,1-1-.29q-1.31-1.47-1.3-4.69A8.56,8.56,0,0,1,416.84,252.21Zm-8.14-5.28a1,1,0,0,1,.65-.29,5,5,0,0,1,4.56.88,28.92,28.92,0,0,0-4.24,1.76c-.65.39-1.19.19-1.62-.59A1.58,1.58,0,0,1,408.7,246.93Zm4.88,13.19c0,.19-.22.39-.65.58a3.26,3.26,0,0,1-3.91-1.76v-.87l1-.3a5.93,5.93,0,0,1,3.26,1.47A1.13,1.13,0,0,1,413.58,260.12ZM399.9,231.41c.43-.4.65-.4.65,0a3.37,3.37,0,0,1,.65,1.46C399.68,232.09,399.25,231.6,399.9,231.41Zm1,22.85h.65l.65.29-.32.88c-.88.39-1.2.1-1-.88Zm-9.77-46c.21-.2.75-.69,1.62-1.46a8.66,8.66,0,0,1-.65,2c-.22.78-.65,1.07-1.3.88-.22,0-.33-.2-.33-.59C390.45,208.94,390.67,208.65,391.11,208.26Zm-.66,52.44c-.22-.58,0-1,.66-1.17.86-.39,1.4-.2,1.62.59.22.58,0,1-.65,1.17A1.39,1.39,0,0,1,390.45,260.7Zm2,31.64-.65.3-.33-.3-.32-.88,1-.29Q393.39,291.76,392.41,292.34Zm4.23,11.14a1.37,1.37,0,0,1-1-.3c-.44-.39.1-.68,1.62-.88A1.16,1.16,0,0,1,396.64,303.48ZM396.32,208a1.39,1.39,0,0,1-1.63-.59,4.84,4.84,0,0,1-1.63-.88,6.4,6.4,0,0,0,1-1.75c1.08-1.18,1.95-1.37,2.6-.59a4.68,4.68,0,0,1,1.31,1.76C398.16,207.09,397.62,207.77,396.32,208Zm4.56,78.81h-.65v-.88h.65Zm-.65-10.84c-1.53,0-2.18-.49-2-1.47,0-1.17.65-1.76,2-1.76a1.52,1.52,0,0,1,1.63,1.18C402.29,275.06,401.74,275.74,400.23,275.94Zm1.95,21.38h-.65v-1.17h.33C402.72,296.34,402.83,296.74,402.18,297.32Zm0-32.52.33-.58.32.58ZM403.81,242a2.19,2.19,0,0,1-2.61-.29v-.59a2.12,2.12,0,0,1,2-.29C404,241,404.24,241.37,403.81,242Zm-.65-7a1.85,1.85,0,0,1-1.3-1.17.86.86,0,0,0-.33-.59,9.24,9.24,0,0,1,3.91-.29v.88A2.14,2.14,0,0,1,403.16,234.92ZM407.07,268a38.09,38.09,0,0,0,4.89-1.17,22.15,22.15,0,0,0-.33,2.63,2.11,2.11,0,0,1-1.63,2.05,2.77,2.77,0,0,0-1.63,2,1.2,1.2,0,0,1-1.63.88,3.34,3.34,0,0,1-.65-.88c-.22-1.37-.44-2.54-.65-3.51S405.77,268.42,407.07,268Zm-1.3,20.8a5.28,5.28,0,0,1,.32-3.22q1.31-3.24,4.56-2.64a45.1,45.1,0,0,1,5.54.88c-5,2.53-8.14,4.19-9.45,5Zm3.9,8.79a6,6,0,0,0-1.62.58,3.26,3.26,0,0,1,.65-1.46c.21-.79.65-1,1.3-.59a1.15,1.15,0,0,1,.33.88Zm4.89,10.25.33-.59.32.59Zm8.15-1.17a1.39,1.39,0,0,1-1.63.58l-.65-.29-.33-.29q-3.25-2.35-5.54-3.81c-.65-.59-.76-1.17-.32-1.76l1.62-.88a10.79,10.79,0,0,0,3.26,2.35,13.33,13.33,0,0,1,3.59,2.63Q423.36,305.82,422.71,306.7Zm.32-31.64a1.26,1.26,0,0,1,1.3-.88,1.14,1.14,0,0,1-.65,1.17C423.25,275.74,423,275.64,423,275.06Zm1.3,19-.65.29-.32-.87c0-.79.32-.88,1-.3l.33.3Zm0-20.21a23.12,23.12,0,0,1-2.28-5,19.12,19.12,0,0,0,6.19,1.46A10.58,10.58,0,0,1,424.33,273.89Zm6.19,30.76a1.37,1.37,0,0,1-1.62.58,1.43,1.43,0,0,1-1-.29,1.34,1.34,0,0,1,0-1.76,3.77,3.77,0,0,1,2.6-.88A2.23,2.23,0,0,1,430.52,304.65Zm12.38,2.63c-2.6-1.36-4.45-1.95-5.53-1.75a5.44,5.44,0,0,1-2-.59l-1.3-1.17a8.45,8.45,0,0,0-3.26-1.76,5,5,0,0,0,.65-1.46,3.55,3.55,0,0,1,4.56-1.18l3.26,1.47,3.26.88q2.6.58,2.6,4.39Q444.87,308.45,442.9,307.28Zm1-82.32a.87.87,0,0,1,1.3,0Zm2.28,34.28-.32-.59c.43-1,.65-1.46.65-1.46s.1.48.32,1.46Zm0-8.21a2,2,0,0,1,.33-.87c.65-.59,1.41-.1,2.28,1.46a1.14,1.14,0,0,1,.32.88c-.22.59-.76.88-1.62.88A2.31,2.31,0,0,1,446.16,251Zm4.24,57.43-.33-.59.33-.59.32.59Zm.32-22-.65-.29h.65Zm-.32-10.25-.33.59a1.3,1.3,0,0,1-1.63,0,1.59,1.59,0,0,1,0-2.93,1.42,1.42,0,0,1,1,.29l1.3.59S450.61,275.25,450.4,276.23Zm1-11.72-1,.29-1.31.3-.32-1.17a3.28,3.28,0,0,1,1.3-3.81c.43-.59,1-.49,1.63.29Q453,262.16,451.37,264.51Zm2.94-24.32a10.28,10.28,0,0,1-4.24-.87c-2.82-1.18-3.15-2.64-1-4.4a21.18,21.18,0,0,1,2.28-1.46c0,2.34,1.31,3.81,3.91,4.39q1.31.28.66,1.47l-.66.58A2.78,2.78,0,0,1,454.31,240.19Zm.32,17.88a1.1,1.1,0,0,1,.33-.88q1.95-1.47,2.93.88c.43,1.36-.11,1.95-1.63,1.75A1.68,1.68,0,0,1,454.63,258.07Zm2.61,7.61-.33.59-.65-.29a.35.35,0,0,1,0-.59C456.69,264.8,457,264.9,457.24,265.68Zm2.61,27.54-1,.3c-.87-.4-1.09-.88-.65-1.47a.93.93,0,0,1,.65-.88c.86-.2,1.41,0,1.63.59C460.71,292.54,460.5,293,459.85,293.22Zm2.93-6.74c-.22-1.75-1.09-2.05-2.61-.87a4.13,4.13,0,0,1-1,.58l-.65.59c-1.3.78-2.17.48-2.6-.88q-1-3.22,2.28-4.69a7.33,7.33,0,0,1,2.6-1.17Q465.71,278,466,283a25.07,25.07,0,0,0,1.95,7.62A4.85,4.85,0,0,1,462.78,286.48Z"/><path d="M344.91,275c-.66-.08-.91-.45-.72-1.13,0-.44.24-.65.72-.66V196H284.57l-43.65.29-8.47-.29h-42q-9.45-.3-13-.3L138,196q-5.53-.3-37.46,0H95.62c-2,.19-3.48.29-4.56.29Q78.67,196,58.81,196H21.34q-4.56.28-4.56,4.1c-.22,6.44-.32,10.55-.32,12.3a19,19,0,0,0,.32,3.52,2.37,2.37,0,0,0,2.28,2.64,4.13,4.13,0,0,0,1,.58q2.28.89,0,2.05-3.59,1.75-3.58,5.28V302.3l.32,3.81v1.76a3.35,3.35,0,0,0,3.58,2.93H51q3.59.29,5.86.29h174q53.43-.29,58.32-.29l1.3-.29,1.63.29a94.94,94.94,0,0,0,10.42,0q-1,.29,11.4.29a67,67,0,0,0,8.48-.58,17,17,0,0,1,4.56,0,30,30,0,0,0,4.56.58,44.2,44.2,0,0,1,7.16,0h6.26ZM37.31,210.61c0-.59.1-.88.32-.88.65-.4,1.09-.1,1.3.88a22.45,22.45,0,0,1,.33,3.51c.21.78-.11,1.17-1,1.17-.65,0-1-.39-1-1.17ZM38,247.52v.59h-.33ZM20,287.66h.65a9.18,9.18,0,0,1,1,1.17C20.58,288.43,20,288,20,287.66Zm8.14-76.76-.65.58-1-.29-.65-.88,1-.58c.65-.4,1.08-.2,1.3.58A.35.35,0,0,1,28.18,210.9Zm1.31-10.84a3.37,3.37,0,0,1,1.3-1.17,1.5,1.5,0,0,1,2,.29v.88a3.6,3.6,0,0,1-2,2.05,1.63,1.63,0,0,1-1.63-.29l-.65-.88Zm1.3,105.47-1-.3-.32-.87-.33-.59c-.22-1.37.21-2,1.3-2,.87,0,1.41.29,1.63.88a1.87,1.87,0,0,1,.65,1.46Q33.07,306.12,30.79,305.53Zm6.52-20.8-.66-.3.66-.29Zm.32-9.09c-.65,0-.87-.49-.65-1.46,0-.78.33-1.17,1-1.17a1.34,1.34,0,0,1,1,1.46C38.93,275.25,38.5,275.64,37.63,275.64Zm1.3-17.87.33-.58.33.58Zm7.5-54.49c-.22.78-.65.88-1.31.29a2.4,2.4,0,0,1-.65-3.22c.43-.78,1-1.07,1.63-.88s1,.78,1,1.76C46.86,202.59,46.64,203.28,46.43,203.28Zm4.23,59.47v-.58h.65ZM53.27,278v-.59l.65.59Zm4.56-26.37a1.59,1.59,0,0,1-1.63.29c-1.3-.19-1.74-.78-1.3-1.75.21-.79,1-1,2.28-.59a3.71,3.71,0,0,1,1,.59C58.59,250.54,58.48,251,57.83,251.62Zm2.61-44.53h-.66l.66-.59Zm10.1,27.83.32.59C70.64,235.9,70.54,235.7,70.54,234.92Zm2.28,54.79h-.66l.33-.59h.65Zm2.28-10.26c-.44.39-.66.2-.66-.58h.66A.35.35,0,0,1,75.1,279.45Zm1-68.55c0,.19-.22.39-.65.58h-1a17.59,17.59,0,0,0-2,.3H69.23a3.87,3.87,0,0,1-2.93-2.35,1.12,1.12,0,0,1,.33-.88L67,208h.33c3.91.39,6.51.88,7.82,1.46C76,210,76.29,210.5,76.07,210.9Zm1.31,7.62s-.12-.2-.33-.59c.21-.78.65-1,1.3-.59.22,0,.33.2.33.59C78.46,218.71,78,218.9,77.38,218.52Zm2,56.54-.32-.29v-.59A.56.56,0,0,1,79.33,275.06Zm.65,24-.32-.58,1,.29Zm2.28-68.85a2.33,2.33,0,0,1-1.63.59,1.27,1.27,0,0,1,1.31-.88C82.37,229.74,82.48,229.84,82.26,230.23Zm2.28-24.9c0-.78.44-1.17,1.31-1.17,1.73.19,2.38.78,2,1.76-.22,1.36-.44,2.53-.65,3.51,0,.2-.22.49-.65.88l-1-.58A15.62,15.62,0,0,1,84.54,205.33Zm2.94,17v.59l-.66-.29Zm-1.63,17.29v-.29h.65a1.14,1.14,0,0,1,.65,1.46H86.5C85.85,240.58,85.63,240.19,85.85,239.61Zm2,43.65-.65.29-.33-.87c0-.4.22-.59.66-.59C88.56,282.28,88.67,282.68,87.8,283.26Zm1-11.72-.33-.58c.65-.2,1,0,1,.58Zm.32-37.79-.65-.29.33-.59.65.29Zm8.48,41.89c-.22-.39-.22-.58,0-.58l1.3-.59C98.44,275.64,98,276,97.58,275.64Zm30.94-41.3-.32.29-.33-.59Zm-4.88-5.28-.33.3-.32-.3Zm-22.16,63.28v-.58a1,1,0,0,1,.66-.3C102.57,292.05,102.35,292.34,101.48,292.34Zm2.29-87.89.65-.29.32.88C103.87,205.62,103.55,205.43,103.77,204.45Zm10.09,6.16c.44-.79.87-.79,1.31,0a2.16,2.16,0,0,1,.32,1.46,3.62,3.62,0,0,0-1.3-.59C113.75,211.09,113.65,210.8,113.86,210.61Zm2,16.69c-.44.78-.87.78-1.3,0a.79.79,0,0,1,.32-.58l1-.29Zm1.63-5.27.32-.59.33.59ZM121,271.84h-.65a1.14,1.14,0,0,1,1.3-.3Zm0-65.63-.65-.59.65-.29.65.29ZM125.59,244l-1,.3-1-.3c-.44-.58-.65-.88-.65-.88l2-1.46h1Q127.87,241.95,125.59,244Zm3.59,18.17c-.44,0-.66-.2-.66-.59l-1-1.17,2-.59c.43-.19.76-.19,1,0l.65.88A1.77,1.77,0,0,1,129.18,262.17Zm13.68-53.62-.33-.58c.22-.4.44-.49.65-.29C143.84,208.06,143.72,208.36,142.86,208.55Zm5.21-9.37v-.59l.33.3Zm5.54,94.92-.33-.29.66-.29Zm8.47-83.79v-.58l.65.58Zm3.26,85.26-.65.58a.94.94,0,0,1-1.31-.58c-.22-.59-.32-.88-.32-.88l1-.59a1,1,0,0,1,.66.29c.43,0,.65.2.65.59Zm3.91-51c-1.31.19-2.18-.49-2.61-2.05-.22-.39-.22-.69,0-.88a2.57,2.57,0,0,1,1-.29c1.3.58,2.06,1.17,2.28,1.75C170.33,243.71,170.11,244.2,169.25,244.59Zm30.3-12.89c-.22,0-.33-.2-.33-.59a1.17,1.17,0,0,1,1-1.17c.43,0,.65.1.65.29a2.19,2.19,0,0,1,.32.88A1.38,1.38,0,0,1,199.55,231.7Zm6.84,4.39-.66.3a1.16,1.16,0,0,1,.66-1.18Zm10.42,26.66.33-.58.32.58Zm1-17c-1.09.39-1.42.1-1-.88a4.88,4.88,0,0,1,1-2,11.73,11.73,0,0,1,.32,2C218.11,245.47,218,245.76,217.79,245.76Zm-.65-43.36a9.39,9.39,0,0,1-4.56-1.76,1.1,1.1,0,0,1-.33-.87c0-.79.43-1.18,1.3-1.18a9.48,9.48,0,0,1,4.56,1.76,1.11,1.11,0,0,1,.33.88C218.44,202,218,202.4,217.14,202.4Zm6.19,80.28-.33-.3h.33Zm88.94-29.89.32.59h-.65Zm-10.1-31.64.65.59V222s.1.39.32,1.17C302.27,222.42,302,221.74,302.17,221.15Zm-3.91-7.91c.43-.2.65-.1.65.29V215a.68.68,0,0,1-1,.29C296.63,214.71,296.73,214,298.26,213.24ZM279,297.91a1.16,1.16,0,0,1-.33.88c-.65.39-1.09.19-1.3-.59v-.88l.65-.58C278.71,296.74,279,297.13,279,297.91Zm-3.59-56,1.31-1.76h1l.65.3a2.69,2.69,0,0,1-1.3,2.34,1,1,0,0,1-.65.29C275.34,243.12,275,242.73,275.45,242Zm-32.25-.58.33.58-1,.3C241.9,241.66,242.11,241.37,243.2,241.37Zm-11.73.29h.65l-.65.59Zm1.3,11.72-.65-.29.33-.59.65.29Zm-.65-29.59c-.43-.2-.54-.49-.32-.88.43-.78.86-.69,1.3.29.21.39.54,1.07,1,2.05A5.16,5.16,0,0,1,232.12,223.79Zm5.22,41.89h-.66l-.32-.58c.21-.4.43-.59.65-.59C238.09,264.7,238.2,265.1,237.34,265.68Zm-2.28-40.13,3.58.29A4.69,4.69,0,0,1,235.06,225.55Zm3.25,22,.65-.29h.66l1,.58A2.72,2.72,0,0,1,238.31,247.52ZM238,219.39a1.4,1.4,0,0,1-.65-1.75c.21-.59.75-.88,1.62-.88a7.53,7.53,0,0,1,2.61,1.17,2.15,2.15,0,0,0,.33.88c0,.78-.33,1.17-1,1.17A4.22,4.22,0,0,1,238,219.39Zm3.58,50.1.65.29a1,1,0,0,1,.65.3A1.35,1.35,0,0,1,241.57,269.49Zm2.61-12.3c-.65.19-1-.1-1-.88a1.1,1.1,0,0,1,.33-.88c.65-.39,1.08-.29,1.3.29C245.26,256.5,245,257,244.18,257.19ZM250,217.05h.65l.65.59A1.36,1.36,0,0,1,250,217.05Zm2.28,68h-.65a1.13,1.13,0,0,1,1.3-.29Zm1.3,5.27-.32-.58c.43-.2.65-.2.65,0C254.38,290.1,254.28,290.29,253.62,290.29Zm0-14.06.33-.29.33.58Zm2.61,19.63h.65a.8.8,0,0,0,.33.58A1,1,0,0,1,256.23,295.86Zm7.82-85.25c.65-.59,1.19-.5,1.63.29v.58c-.44.78-1,1-1.63.59C263.4,211.48,263.4,211,264.05,210.61ZM266,233.46c-.65.77-1.41.58-2.28-.59V232l.66-.58c1.08-.4,1.73,0,1.95,1.17A1.12,1.12,0,0,1,266,233.46Zm1.31,59.47v-.59l.65.3Zm1-32.52v-.59l.65.3Zm1.62-52.15-.32-.88a.92.92,0,0,1,1.3-.58c.22,0,.33.19.33.58C271.22,208,270.78,208.26,269.91,208.26Zm4.57,58.89c.21-1.37.86-1.57,1.95-.59a.89.89,0,0,1,.33,1.47c-.22.58-.77.78-1.63.58C274.48,268.22,274.26,267.73,274.48,267.15Zm.65,6.74a10.32,10.32,0,0,1,1.63-.3c.86-.19,1.41,0,1.62.59a1.57,1.57,0,0,1-.65,1.76q-2,1.17-2.6-1.17ZM280,306.41a2,2,0,0,1-1.3,1.46,2.64,2.64,0,0,1-2.93-1.76v-.88l.32-.58a2.52,2.52,0,0,1,2.61-.29A1.65,1.65,0,0,1,280,306.41Zm2-72.66c-.22,0-.33-.2-.33-.59-.22-.39-.22-.68,0-.88,0-.19.33-.58,1-1.17a8.83,8.83,0,0,1,.33,1.47C283.16,233.16,282.83,233.55,282,233.75Zm1,30.76v-.58l.65.58Zm0-33.69q.65-1.47,1.95-1.17l-.65.58A3.7,3.7,0,0,1,283,230.82Zm2.28,8.79-.66-.59c-.43-.78-.22-1.07.66-.88.43,0,.65.2.65.59C285.88,238.92,285.66,239.22,285.23,239.61Zm1.62,49.22v.29l-.32.29h-.33l-.32-.58,1-.3Zm2.94-26.08-.65.3c-.66.19-1-.1-1-.88a1,1,0,0,1,.65-.3C289.67,261.87,290,262.17,289.79,262.75Zm.32,33.4c-.22-.58,0-.49.65.29Zm2-73.83-.33-.58h.65Zm4.23,67.39a1,1,0,0,1-.65.29l-.32-.88,1-.29ZM295,277.4c-.87-.2-1.09-.68-.65-1.46a1.73,1.73,0,0,1,1.95-.59c1.74,0,2.39.49,2,1.47a1.27,1.27,0,0,1-1.31.87A3.74,3.74,0,0,1,295,277.4ZM298.58,297l-.65.59c-.87-.4-1.09-.88-.65-1.47v-.58l.33-.3c.86-.19,1.3.1,1.3.88A1.12,1.12,0,0,1,298.58,297Zm-1-46.29c-.66-.78-.55-1.27.32-1.46.22-.2.54-.2,1,0a8,8,0,0,1,2.6,2.05,20.32,20.32,0,0,0,2.61,2c.87.39.87.88,0,1.46l-1,.3a3.75,3.75,0,0,1-2.6-.88l-1.63-1.76ZM301.84,307l-.65.29-1-.29c-.44-1-.11-1.76,1-2.34a1.38,1.38,0,0,1,1-.29l1.63.87Zm1.63-33.4-.65-.29c0-.78.32-.88,1-.29A.8.8,0,0,0,303.47,273.59Zm1.95-8.49q-2.28,1.45-4.23-1.17c-.87-1-.76-1.76.32-2.35a1.27,1.27,0,0,1,1.63,0c.66.19,2.17.78,4.56,1.76C306.4,264.31,305.64,264.9,305.42,265.1Zm3.26,41.6.65-.59C309.55,306.11,309.33,306.31,308.68,306.7Zm5.21-.88h-3.58a3.81,3.81,0,0,1,1-2.05,1.77,1.77,0,0,1,1.95,0,1.71,1.71,0,0,1,1,1.46C314.22,305.62,314.11,305.82,313.89,305.82Zm0-31.05a2.36,2.36,0,0,1-1.62.58h-1a3.1,3.1,0,0,1-1.63-1.17c-.22-.78.33-1.47,1.63-2.05a3.24,3.24,0,0,1,1.95,0C314.33,272.71,314.55,273.59,313.89,274.77Zm3.59-51.86-.65-.29c-.22-.79.1-1.18,1-1.18a1.12,1.12,0,0,1,.33.88Zm4.23-11.43v-.87s.11-.11.33-.3A1.54,1.54,0,0,1,321.71,211.48Zm2-4.68a2.37,2.37,0,0,1,2.28-1.18,2,2,0,0,1,1.63.88c.21.2.21.49,0,.88a3.76,3.76,0,0,1-1.63,2.05,9,9,0,0,1-3.58.59A31.87,31.87,0,0,1,323.67,206.8Zm4.23,9.08a2.16,2.16,0,0,1-.32,1.46c0,.2-.22.3-.65.3-.87-.2-1-.59-.33-1.18A3.52,3.52,0,0,0,327.9,215.88Zm-.32,75.58-1.31,1.18a26.8,26.8,0,0,1-2.28-1.47c-.65-.39-.87-.88-.65-1.46s.76-.79,1.63-.59a10.18,10.18,0,0,0,2,.29C328,289.61,328.23,290.29,327.58,291.46Zm-2.28-12.3.32-.29c.65-.4,1-.2,1,.58l-.33.59-.65-.29Zm1.3-51.56a1.1,1.1,0,0,1-1.63-.3c-.22-.39-.11-1,.33-1.75q1.62-1.77,2.6,0a13.37,13.37,0,0,0,.33,1.75A5.79,5.79,0,0,1,326.6,227.6Zm5.86,75v.29l-.65.29h-.65c-1.09.2-1.52,0-1.3-.58a2.31,2.31,0,0,1,1.63-.88C332.35,301.32,332.68,301.62,332.46,302.6Zm-2.28-67.09,1-.3v.88Zm-1.3-4.69-.33-3.52a20.62,20.62,0,0,1,6.19.3A10.28,10.28,0,0,1,328.88,230.82Zm6.19-8.5c-.44-.19-.65-.39-.65-.58l.32-.59.66.29Zm3.58-19c-1.09.19-1.52-.1-1.3-.88,0-.2.21-.39.65-.58a9.48,9.48,0,0,1,4.89-.59A6.61,6.61,0,0,1,338.65,203.28Z"/></svg>