<?xml version="1.0" encoding="utf-8"?>
<!-- Generator: Adobe Illustrator 22.1.0, SVG Export Plug-In . SVG Version: 6.00 Build 0)  -->
<svg version="1.1" id="Layer_1" xmlns="http://www.w3.org/2000/svg" xmlns:xlink="http://www.w3.org/1999/xlink" x="0px" y="0px"
	 viewBox="0 0 600 800" style="enable-background:new 0 0 600 800;" xml:space="preserve">
<style type="text/css">
	.st0{fill:none;stroke:#F7931E;stroke-width:5;stroke-miterlimit:10;}
	.st1{fill:#F7931E;}
</style>
<title>kosit</title>
<path d="M440,678.6c-2.8-0.2-5.7-0.2-8.5,0c2.3-0.2-2.9-0.3-15.8-0.3c-1.6,0-2.4-0.9-2.6-2.6c-0.2-1.6-0.3-2.4-0.3-2.6
	c0.2-11.9,0.3-18.5,0.3-19.6v-3.8c-0.2-18.6-0.2-30.4,0-35.5c0.2-1.8-0.7-2.8-2.6-3.2l-3.8-0.9c-0.9-0.2-1.8-0.2-2.6,0
	c-2.8,0.5-5.7,0.7-8.5,0.6h-22.3c0.4,0-1.5-0.1-5.6-0.3c-1-0.2-2-0.2-2.9,0c-1.7,0.2-5.7,0.3-12,0.3H251.7
	c-21.3,0-33.8-0.1-37.5-0.3l-45.1,0.3h-41c-1.9,0.1-3.7-0.1-5.6-0.6c-1.2-0.2-1.7-0.8-1.7-1.8l-0.6-3.8V511c0-2.3,0.1-6.4,0.3-12.3
	c0.2-1.8,1.3-2.7,3.2-2.9c4.4-0.4,8.8-0.4,13.2,0c0,0.2,0.6,0.5,1.8,0.9c0.6,0.2,1.2,0.2,1.8,0c0.7-0.7,1.7-1,2.6-0.9
	c2,0.2,4.1,0.2,6.1,0c3.1-0.2,5.1-0.3,5.9-0.3h11.4c1.9-0.2,3.7-0.2,5.6,0c3,0.4,6.1,0.4,9.1,0h3.8c9.6,0.2,16.4,0.2,20.5,0h90.8
	c1,0,2.9,0.1,5.9,0.3h5.6l15-0.3h22.3c2.2,0,4.4,0.1,6.7,0.3c0.7,0.5,1.5,0.9,2.3,1.2v-0.3c2.4-0.7,4.8-1.1,7.3-1.2h11.1
	c4.7,0.2,8.5,0.4,11.4,0.6h2.6c-2.5,0.4,4.6,0.1,21.4-0.9l2-0.3c1.3,0,2.5-1,2.6-2.3c0.4-3.1,0.6-6.2,0.6-9.4
	c-0.2-8-0.3-14.3-0.3-18.8v-30.8c0-0.6,0.1-1.9,0.3-3.8c0-2,1.1-2.9,3.2-2.9c2-0.2,3.1-0.3,3.5-0.3c12.1,0.2,23.3,0.2,33.7,0
	c2.5,0.2,5,0.9,7.3,2c0.5,0.4,1.2,0.4,1.8,0c1.8-1,2.3-1.3,1.5-0.9c1.1-0.6,2.3-1,3.5-1.2h14.9c1.9,0,3.7,0.2,5.6,0.6
	c2.5,0.6,4,2,4.4,4.1c1.8-1.2,2.7-1.9,2.9-2c1.3-1.7,3.5-2.6,6.4-2.6c1.8,0.2,3.5,0.2,5.3,0c1.8-0.1,3.4,1,4.1,2.6
	c2.1-0.4,3.3-0.6,3.5-0.6c1,0.1,1.9-0.2,2.6-0.9c1.1-0.6,2.3-0.9,3.5-0.9c2.5,0.4,5.1,0.3,7.6-0.3l1.5-0.9v7.6
	c-1.6,0.2-2.5,0.3-2.6,0.3c-1.1,0.1-2.1,0.5-2.9,1.2v0.3c-0.4,0.6-0.4,1.4,0,2v-2h5.6v11.2c-1.7-0.4-3.5-0.5-5.3-0.3
	c-0.9,0.2-1.7,0.3-2.6,0.3c-1-0.2-2-0.2-2.9,0c0.8-1.2,2.5-3.6,5.3-7.3h-4.1c-0.5,0.2-1,0.2-1.5,0c-1.8-0.8-3.9-0.2-5,1.5
	c-0.8,1-0.9,2.4-0.3,3.5c0.3,1.3,1.3,2.2,2.6,2.4c0.2,0,1,0.1,2.3,0.3c-0.1,1.4,0.5,2.8,1.5,3.8c0.2,0.4,0.5,0.8,0.9,1.2
	c0.4,0.3,0.8,0.6,1.2,0.9c0.6,0.6,0.4,1.3-0.6,2c-1.2,1.2-1.4,2.2-0.6,3.2c0.6,0.4,1.4,1,2.3,1.8l0.6,0.3c1.3,0.4,2.1,0,2.3-1.2
	c0.4-4.7,0.6-7.1,0.6-7.3c0.4-0.9,1-1.7,1.8-2.4l1.5-0.6v18.8c-0.4,0.5-0.4,1.2,0,1.8v24.3c-2.5-2-4-3-4.4-3.2
	c-1.6-1.2-2.7-0.7-3.5,1.5c-0.2,0.3-0.3,0.6-0.3,0.9c-0.2,0.9,0.1,1.8,0.9,2.4c0.6,0.1,1.2,0.3,1.8,0.6v0.9c0.6,1.6,1.6,1.9,2.9,0.9
	l2.6-1.8v5.6c-0.8,0.2-1.4,0.9-1.5,1.8h1.5v13.2c-0.5,0.4-0.6,1.1-0.2,1.5c0.1,0.1,0.1,0.2,0.2,0.2v5.8c-1.2-0.3-2.3-0.5-3.5-0.6
	v-0.6c0.4-1.6-0.2-2.5-1.8-2.6h-3c-2,0.4-4.1,0.4-6.2,0c-1-0.2-1.4,0.2-1.2,1.2c0.1,0.7,0.4,1.3,0.9,1.8l3.2,1.8
	c1,0.6,1.8,1.1,2.4,1.5c0.2,0.2,0.3,0.6,0.3,0.9c0,0.8-0.4,1.1-1.2,0.9c1,0.2,0.1,0-2.6-0.6c-1.6-0.4-2.3,0.3-2.3,2v3.5
	c-0.5,0.3-1,0.5-1.5,0.6c-1.2,0.5-2,1.6-2,2.9v1.8c0.1,2-0.2,4-0.9,5.9c-0.2,0.6-0.2,1.2,0,1.8c0.5,1.1,1.5,1.9,2.6,2.3
	c0.2,2.3,0.9,3.8,2,4.4c1.4,2.5,2.1,3.8,2.3,3.8c0.3,0.5,0.9,0.8,1.5,0.9c0.5,0.1,1,0.1,1.5,0.3v1.8c0.2,0.6,0.3,1.2,0.3,1.8
	c1.7-0.1,3.4-0.9,4.4-2.3l1.2-1.2h3.5v16.7c-1.2-0.4-2.4-0.9-3.5-1.5c0.4,1.8,1.8,3.1,3.5,3.5v46.9c-0.5,0.4-0.6,1.1-0.2,1.5
	c0.1,0.1,0.1,0.2,0.2,0.2v43.1c-0.2,0-0.4,0.1-0.6,0.3h-0.9l0.9,0.9c0.1,0.3,0.3,0.6,0.6,0.9v9.4c-2-0.8-3.1-1.7-3.5-2.6
	c-0.4-2-1.9-3.5-3.8-4.1c-0.6,0-1.2-0.4-1.5-0.9c-0.6-0.6-1.7-0.5-3.2,0.3c-0.6,0.2-1.2-0.1-1.5-0.6c-0.6-1.2-1.2-2.3-1.8-3.5
	c-0.2-0.5-0.8-0.7-1.2-0.4c-0.1,0-0.2,0.1-0.2,0.1c-0.4,0.4-0.5,0.7-0.3,0.9c0,0.8,0.1,1.6,0.3,2.3c0.1,0.8,0.3,1.6,0.6,2.3
	c0.4,3.1-1.1,4.9-4.4,5.3c-3.7,0.4-7.4,0.5-11.1,0.3c-1.2-0.1-2.4-0.6-3.2-1.5c-1-1-1.8-1.1-2.3-0.3c-1.1,1.1-2.5,1.8-4.1,1.8h-14
	c-6.7-0.2-14.2-0.2-22.6,0l-7,0.3L440,678.6z M511.2,429.6c-0.8,0-1.6,0.5-2,1.2c-0.4,0.8-0.4,1.4,0,1.8c0.6,0.4,1.1,0.2,1.5-0.6
	C511.2,431.3,511.4,430.4,511.2,429.6L511.2,429.6z M456.5,431.3h0.6l-0.3-0.6L456.5,431.3z M489.8,431c-0.6,0-1.2,0.3-1.5,0.9
	c-0.6,0.8-0.5,2,0.3,2.6c0.6,0.6,1.5,0.8,2.3,0.6c1.2-0.4,1.8-1.1,1.8-2c-0.1-0.5-0.2-1-0.3-1.5C491.6,431.3,490.7,431.1,489.8,431
	L489.8,431z M501.3,431.3h-0.6l0.3,0.6L501.3,431.3z M481.1,435.4c0.2,0.4,0.4,0.6,0.6,0.6c0.6,0.2,0.9-0.1,0.9-0.9v-1.8
	c-0.2-0.8-0.6-1.1-1.2-0.9c-0.6,0.1-1,0.6-0.9,1.2c0,0.1,0,0.2,0.1,0.3l0.3,0.6C480.8,434.5,480.9,434.8,481.1,435.4L481.1,435.4z
	 M491.1,440.9c0.1,0.2,0.4,0.3,0.6,0.3c0.9,0,1.8-0.1,2.6-0.3c0.8-0.2,1.2-0.6,1.2-1.2c-0.2-0.6-0.9-0.9-2-0.9c-0.7,0-1.4,0.2-2,0.6
	C490.8,439.7,490.6,440.2,491.1,440.9L491.1,440.9z M446.5,443.9l-0.3,0.3l1.2-0.3H446.5z M419,445.6c1,0.4,1.3,0.2,0.9-0.6
	c0-0.2-0.2-0.3-0.6-0.3h-1.5C418.4,445.4,418.8,445.7,419,445.6L419,445.6z M436,446.2h0.6c0.4,0,0.5-0.2,0.3-0.6
	c0-0.6-0.3-0.6-0.9,0V446.2z M506.9,448.6c0.6,0.2,1.2-0.1,1.5-0.6c0.4-0.8,0.1-1.3-0.9-1.5c-1.1-0.4-2.3-0.5-3.5-0.3l-0.3,0.6
	l0.6,0.9L506.9,448.6z M518.6,446.3h0.6l-0.3,0.3C518.9,446.4,518.8,446.3,518.6,446.3C518.6,446.3,518.6,446.3,518.6,446.3
	c0.1,0,0.3,0.1,0.3,0.2c0,0,0,0.1,0,0.1h-0.3V446.3z M430.1,450.4l-0.3-0.6l-0.3,0.6H430.1z M465.5,452.7c-0.2,0.1-0.3,0.4-0.3,0.6
	c0.3,0.2,0.6,0.3,0.9,0.3C465.9,453.3,465.7,453,465.5,452.7L465.5,452.7z M478.4,453.6c-0.8,0.4-1,0.4-0.6,0H478.4z M467,455.6
	c0.8,1.6,1.9,1.6,3.2,0c0.2-0.3,0.3-0.6,0.3-0.9c-0.1-0.7-0.7-1.2-1.5-1.2c-0.2,0-1,0.1-2.3,0.3C466.8,454.4,466.9,455,467,455.6
	L467,455.6z M493.7,457.1c0.2,0.5,0.8,0.7,1.2,0.4c0.1,0,0.2-0.1,0.2-0.1c0.6-0.2,0.8-0.7,0.6-1.5c-0.1-0.4-0.5-0.7-1-0.7
	c-0.1,0-0.1,0-0.2,0.1C493,455.3,492.7,455.9,493.7,457.1L493.7,457.1z M508.6,458c-0.4,0.8-0.3,1.4,0.3,1.8c1.6,1.3,3.8,2,5.9,1.8
	l0.9-0.3c0.6-0.4,0.7-1.2,0.3-1.8c-0.7-0.6-1.7-1-2.6-0.9c-0.6-0.1-1.2-0.3-1.8-0.6c-0.5-0.2-1-0.5-1.5-0.9h-1.2
	C508.9,457.1,508.8,457.4,508.6,458L508.6,458z M417.8,457.7c0.2,1.6,0.6,2.1,1.2,1.8c0.2-0.4,0.2-0.7,0-0.9
	C418.8,458,418.3,457.6,417.8,457.7z M491.9,464.7c-1.5,0-3,0.4-4.4,1.2c-1.6,0.8-3,1.9-4.1,3.2l1.5,3.5c1.4-1.4,2.2-2.2,2.6-2.6
	c1.1-1.1,2.5-1.8,4.1-1.8c3.9-0.7,7.7-1.7,11.4-2.9c1.4-0.4,1.7-1,0.9-1.8c-1-1.2-1.8-2-2.3-2.6c-1-1.2-2.2-1.2-3.5,0
	c-0.5,0.4-1,0.8-1.5,1.2C495.5,463.6,493.8,464.5,491.9,464.7L491.9,464.7z M433.9,462l0.9,0.6l0.9-0.6c0-0.8-0.5-1-1.5-0.6
	C434,461.5,433.9,461.7,433.9,462L433.9,462z M466.1,463.3c0.4,0.4,0.9,0.6,1.5,0.6c0.3-0.1,0.6-0.3,0.9-0.6c0-0.6-0.4-1.1-1.2-1.5
	c-0.6-0.2-1.2,0.1-1.5,0.6C465.6,462.5,465.8,462.8,466.1,463.3z M525,465.6l-0.6,0.3l0.6,0.3V465.6z M510.1,465.9h-0.6l0.6,0.6
	V465.9z M427.8,467.6l0.9,0.6c0.8-0.2,1.1-0.6,0.9-1.2c-0.1-0.4-0.5-0.6-0.9-0.6C427.8,466.5,427.5,466.8,427.8,467.6z M416.9,467.3
	l0.6,0.3l0.3-0.6l-0.6-0.3L416.9,467.3z M472.3,469.7c0.4,0.8,0.9,1,1.5,0.6c1.3-0.5,2.6-1.1,3.8-1.8c-0.9-0.8-2.1-1.1-3.2-0.9
	c-0.5,0-1.1,0.2-1.5,0.6C472.3,468.4,472.1,468.9,472.3,469.7L472.3,469.7z M479,473.5c0.1,0.2,0.4,0.3,0.6,0.3
	c0.3,0,0.5-0.2,0.6-0.5c0,0,0-0.1,0-0.1c-0.4-1.6-1.2-3.1-2.3-4.4C477.8,470.4,478.2,472.1,479,473.5L479,473.5z M433.3,471.4
	c0.2,0.4,0.5,0.7,0.9,0.9c0.1-0.4-0.1-0.8-0.3-1.2C433.3,470.4,433.1,470.5,433.3,471.4L433.3,471.4z M508.3,471.4
	c-0.4-0.6-1.2-0.7-1.8-0.3v0.9c-0.2,0.2-0.2,0.5,0,0.9c0.2,1.2,0.8,1.8,1.8,1.8c0.6,0,0.9-0.7,0.9-2L508.3,471.4z M518.6,473.2
	c0.2-0.7-0.1-1.4-0.8-1.7c-0.1,0-0.2-0.1-0.4-0.1c-0.9-0.1-1.6,0.5-1.8,1.3c0,0.1,0,0.3,0,0.4c0,1.2,0.7,1.7,2,1.5
	C518.3,474.4,518.7,473.8,518.6,473.2L518.6,473.2z M509.5,472.3c1,0,1.2-0.1,0.6-0.3L509.5,472.3z M489.6,473.8
	c-0.2,0.6,0.1,1.3,0.6,1.8c0.6,0.4,1.1,0.4,1.5,0c0.2,0,0.3-0.2,0.3-0.6c0.2-0.7,0-1.4-0.6-1.8C490.7,472.9,489.9,473.2,489.6,473.8
	L489.6,473.8z M417.2,475.3l0.6,0.6l0.6-0.6c0.2-0.8-0.1-1-0.9-0.6h-0.6L417.2,475.3z M523,475.6c0.2,0,0.3-0.2,0.3-0.6
	c-0.4,0.1-0.6,0.5-0.6,0.9C522.8,475.9,522.9,475.8,523,475.6C523,475.6,523,475.6,523,475.6L523,475.6z M445.9,475.9l0.3-0.3
	l-0.3-0.3V475.9z M465.8,476.1l0.3,0.9l0.6-0.3c0.8-0.6,0.7-1-0.3-1.2h-0.3L465.8,476.1z M522.4,476.4c-0.5,0.1-0.9,0.4-1.2,0.9
	c0,0.4,0.2,0.7,0.6,0.9C522.4,478.4,522.6,477.8,522.4,476.4L522.4,476.4z M498,477.6c-1.4-0.4-2,0-1.8,1.2c0.2,0.8,0.6,1.2,1.2,1.2
	l0.9,0.3c0.5-0.1,0.9-0.4,1.2-0.9c0.4-0.6,0.2-1-0.6-1.2C498.6,478,498.3,477.8,498,477.6L498,477.6z M516.5,478.5
	c-1.6-1.2-2.5-0.9-2.9,0.9c-0.1,0.9-0.1,1.8-0.3,2.6c1.1-0.1,2.2-0.4,3.2-0.9C517.5,480.1,517.5,479.2,516.5,478.5L516.5,478.5z
	 M438.3,478.5c0.2,0,0.4,0.1,0.6,0.3c0.6-0.6,0.5-0.9-0.3-0.9L438.3,478.5z M477,480.8c-0.8-0.8-1.9-1-2.9-0.6
	c-0.1,0.9,0.4,1.7,1.2,2c0.5,0.2,1,0.2,1.5,0c0.4-0.2,0.6-0.4,0.6-0.6c0.2-0.2,0.2-0.6-0.1-0.8C477.1,480.9,477,480.8,477,480.8
	L477,480.8z M506.8,480.2c-0.4,0-0.2,0.6,0.6,1.8v-1.5C507.3,480.4,507.1,480.3,506.8,480.2L506.8,480.2z M456.4,481.7
	c0,0.6,0.4,1,1.2,1.2c0.6-0.2,1-0.8,0.9-1.5c-0.2-0.4-0.4-0.6-0.6-0.6c-0.5-0.2-1.2,0-1.4,0.6C456.5,481.5,456.5,481.6,456.4,481.7
	L456.4,481.7z M510.4,486.1c0.4,0,0.6-0.1,0.6-0.3c0.4-0.6,1.1-1.9,2.1-3.8c-0.5-0.2-1-0.4-1.5-0.6c-0.8-0.2-1.6-0.1-2.3,0.3
	c-0.5,0.1-1,0.3-1.4,0.5c0.6,1.8,1,2.8,1.2,3.2C509.1,486.1,509.6,486.3,510.4,486.1L510.4,486.1z M489.6,482.9
	c-0.9,0.3-1.7,0.8-2.3,1.5c-0.2,0.4-0.8,1.4-1.8,2.9h3.2c1.2-1.4,2-2.3,2.3-2.6c0.4-0.6,0.2-1.1-0.6-1.5
	C490.2,483,489.9,482.8,489.6,482.9L489.6,482.9z M501.6,491.7c1-0.4,1.6-1.3,1.5-2.4c-0.2-1.4-0.3-2.1-0.3-2.3
	c-0.2-0.4-0.5-1-0.9-1.8c-0.2-0.2-0.6-0.3-0.9-0.3c-0.5-0.2-1.2,0-1.4,0.6c0,0.1-0.1,0.2-0.1,0.3c-1,2.9-1.4,5-1.2,6.1
	c0,0.3,0.2,0.5,0.4,0.6c0,0,0.1,0,0.1,0C499.8,492.3,500.7,492,501.6,491.7L501.6,491.7z M467.3,486.4l0.3-0.6H467L467.3,486.4z
	 M516.2,486.7l-0.6,0.6l0.6,0.3V486.7z M462.6,486.7v0.9l0.6-0.3L462.6,486.7z M435.6,489c0.1,0.2,0.4,0.2,0.5,0.1c0,0,0,0,0.1-0.1
	c0.4-0.2,0-0.7-1.2-1.5C435.2,488.1,435.4,488.5,435.6,489L435.6,489z M416.3,489.3l0.6,0.6c0.8-0.2,1.1-0.6,0.9-1.2
	c0-0.3-0.2-0.5-0.4-0.6c-0.1,0-0.1,0-0.2,0l-1.2-0.3L416.3,489.3z M469.9,491.7l0.6,2.6c0.2,0.8,0.6,1.2,1.2,1.2
	c0.3,0,0.5-0.2,0.6-0.4c0-0.1,0-0.1,0-0.2c0.5-1.1,1.3-2,2.3-2.6l0.3-0.6c0.2-0.7,0-1.4-0.6-1.8c-0.9-0.4-1.9-0.5-2.9-0.3l-1.8,0.3
	C469.6,489.9,469.8,490.5,469.9,491.7L469.9,491.7z M491,491.1c0.8,0.2,1.2,0,1.2-0.6c0-0.4-0.4-0.7-1.2-0.9
	C490.8,490.1,490.8,490.6,491,491.1L491,491.1z M480.2,492c1.4,0.4,1.4,0.3,0-0.3l0,0V492z M486,498.1c0.2-0.4,1.1-2,2.6-4.7
	c-1.6-0.6-2.6-0.4-3.2,0.6c-0.9,1.6-2.6,2.5-4.4,2.3c-0.9,0-1.8,0.6-2,1.5c-0.3,0.6-0.5,1.2-0.6,1.8c-0.1,0.6-0.3,1.2-0.6,1.8
	c-0.3,0.8-0.9,1.5-1.8,1.8c-2.7,1.2-3.9,1.7-3.5,1.5c-1.2,0.4-2,1.4-2.1,2.6c-0.3,0.8-0.4,1.7-0.3,2.6c0.2,0,2.4-1,6.5-2.9
	c2.1-1.1,4.4-2,6.7-2.6c0.6,0,0.9-0.4,0.9-1.2C484.2,501.3,484.8,499.4,486,498.1L486,498.1z M465.2,494c-2.2,0.6-2.6,1.7-1.5,3.2
	c0.2,0.5,0.5,1,0.9,1.5c1.2-1,1.9-1.6,2-1.8c0.4-0.4,0.5-1,0.3-1.5C466.8,494.3,466.2,493.8,465.2,494L465.2,494z M493.9,495.8
	c0.2-0.8-0.1-1.2-0.9-1.2c-0.3,0-0.5,0.2-0.6,0.4c0,0.1,0,0.1,0,0.2c-0.2,0.8,0.1,1.2,0.9,1.2L493.9,495.8z M414.8,495.8
	c0.2,0.6,0.7,0.8,1.5,0.6c0.2-0.1,0.3-0.4,0.3-0.6c0-0.8-0.3-1.2-0.9-1.2C415,494.6,414.7,495,414.8,495.8L414.8,495.8z
	 M524.4,495.5L524.4,495.5z M510.1,495.8c-0.1-0.2-0.4-0.2-0.5-0.1c0,0-0.1,0-0.1,0.1c-1.4,0.6-1.5,1.3-0.3,2
	c0.2,0.2,0.6,0.3,0.9,0.3C511.2,497.7,511.2,496.9,510.1,495.8L510.1,495.8z M426,497.5l-0.6-0.6l-0.3,0.9L426,497.5z M433.3,497.5
	c-0.4,0.2-0.5,0.6-0.3,1.2c0.2-0.1,0.3-0.4,0.3-0.6V497.5z M372.4,497.5c-0.8,0-1.3,0.2-1.5,0.6l0.3,0.6c0.8,0.2,1.3,0,1.5-0.6
	C372.9,497.9,372.8,497.7,372.4,497.5L372.4,497.5z M332.2,498.4c0.2-0.2,0.2-0.3,0-0.3c0,0.2-0.1,0.4-0.3,0.6L332.2,498.4z
	 M153.8,499.3v-0.6l-0.6,0.6H153.8z M502.5,503.4c0-0.4-0.2-1.9-0.6-4.4h-1.5c-0.4,1.8-1.1,3.5-2,5c-0.7,1.1-1.3,2.3-1.8,3.5
	c-0.6,1.1-0.2,2.5,0.9,3.1c0.1,0,0.2,0.1,0.2,0.1c1.2,0.8,2.7,1.8,4.7,2.9c0.2,0.2,0.6,0.3,0.9,0.3c1-0.2,1.9-0.4,2.6-0.6
	c0.6-0.2,0.6-1,0-2.3l-0.3-0.9C503.3,507.8,502.3,505.5,502.5,503.4z M440,501c-0.1,0.5,0.3,1.1,0.8,1.2c0.1,0,0.3,0,0.4,0
	c0.4,0.1,0.8-0.2,0.9-0.7c0-0.1,0-0.1,0-0.2v-1.2c-0.2-0.8-0.6-1.2-1.2-1.2c-0.6,0-0.9,0.4-0.9,1.2V501z M398.2,500.1l0.3,0.9
	c0.8-0.2,0.9-0.6,0.3-1.2l-0.3-0.3C398.4,499.6,398.3,499.8,398.2,500.1L398.2,500.1z M172.6,500.7l0.3-0.6h-0.6L172.6,500.7z
	 M522.4,501.3c-0.4-0.6-1.2-0.7-1.8-0.3c-1.4,0.5-2.8,1.1-4.1,1.8c-0.6,0.2-1,0.8-0.9,1.5v2.9c0,0.3,0.1,0.6,0.3,0.9
	c0.5,0.4,1.2,0.4,1.8,0l0.9-0.9l0.6-0.6c1.2-1.2,1.8-1,2,0.6c0.4,2.7,1.5,4.5,3.2,5.3c0.3,0,0.6-0.1,0.9-0.3
	c0.4-0.2,0.6-0.4,0.6-0.6c-0.1-0.6-0.3-1.2-0.6-1.8c0.4,0.6,0.1-1.3-0.9-5.6C524.2,503,523.4,502,522.4,501.3L522.4,501.3z
	 M507.1,502.5c-0.1-0.2-0.4-0.3-0.6-0.3c-1.2-0.6-1.1-0.6,0.3,0L507.1,502.5z M435.6,502.2l-0.6,0.6c0,0.3,0.1,0.6,0.3,0.9l0.6-0.6
	L435.6,502.2z M380.9,504v-0.9l-0.6,0.3L380.9,504z M305.9,503.7h0.6l-0.6-0.3V503.7z M183.4,504.5l0.3,0.6l0.9-0.3
	c0-0.3-0.1-0.6-0.3-0.9l-0.9-0.6V504.5z M138.6,505.7v-0.6l-0.6,0.3L138.6,505.7z M330.8,506.9c-0.2,0.4,0,0.6,0.6,0.6
	c0.5,0,1-0.1,1.5-0.3l0.6-0.9l-0.3-0.6C332.2,505.7,331.3,506.1,330.8,506.9z M276,506.9l0.9-0.3c-0.2-0.8-0.6-1-1.2-0.6l-0.3,0.3
	L276,506.9z M465.8,507.5c-0.4-0.2-0.8,0-1.2,0.6h0.6L465.8,507.5z M359.8,508.1h0.6c0.4-0.1,0.8-0.1,1.2-0.3
	c-0.4,0-0.8-0.1-1.2-0.3h-1.5L359.8,508.1z M448.2,508.1l0.3,0.6l0.3-0.6H448.2z M362.1,508.1v2.4c0,0.8,0.4,0.9,1.2,0.3
	c0.2-0.2,0.2-0.5,0-0.9C362.8,509.3,362.5,508.7,362.1,508.1L362.1,508.1z M232.6,509.3c0.1,0.5,0.5,0.7,1,0.7c0.1,0,0.1,0,0.2-0.1
	l-0.6-0.6H232.6z M506,510.1c0.4-0.2,0.4-0.3,0-0.3V510.1z M371.8,509.8l-0.9,0.3l0.3,0.9l0.6-0.3V509.8z M469.6,511
	c0.2-0.2,0.3-0.6,0.3-0.9l-0.3,0.3V511z M170.8,510.1c-0.6,0.6-0.6,0.9,0,0.9c0.4,0,0.5-0.2,0.3-0.6L170.8,510.1z M332.8,511.3v0.6
	h0.9c0.6-0.6,0.5-0.9-0.3-0.9h-0.6V511.3z M396.4,511.9h0.6l-0.3-0.6c-0.2,0-0.3,0.1-0.3,0.3V511.9z M455.8,512.7
	c-0.2,0.6,0.2,0.9,1.2,0.9l0.9-0.3c0.2-0.1,0.2-0.4,0.1-0.5c0,0,0,0-0.1-0.1c-0.2-0.6-0.7-0.8-1.5-0.6
	C456.1,512.4,455.9,512.5,455.8,512.7L455.8,512.7z M519.4,513c-0.2-0.8-0.7-1-1.5-0.6c-0.6,0.2-0.8,0.7-0.6,1.5
	c0.2,0.8,0.6,1,1.2,0.6C519.3,514.1,519.6,513.6,519.4,513L519.4,513z M197.2,513.3v-0.9l-0.9,0.6L197.2,513.3z M491.3,513
	c0,0.4,0.1,0.6,0.3,0.6h0.6l-0.3-0.9L491.3,513z M430.4,513.6c-0.4,0-0.7,0.2-0.9,0.6l-0.6,1.5c0,1,0.3,1.6,0.9,1.8s1-0.2,1.2-1.2
	c0.2-0.5,0.3-1,0.3-1.5v-1.2H430.4z M482.2,516c0.6-0.2,0.8-0.7,0.6-1.5c-0.4-0.8-0.9-0.9-1.5-0.3c-0.2,0.2-0.3,0.6-0.3,0.9
	C481.1,515.9,481.5,516.2,482.2,516L482.2,516z M252.2,516.8c0.2,0.3,0.5,0.6,0.9,0.6c0.6,0.2,0.9-0.2,0.9-1.2
	c-0.2-0.8-0.6-1.1-1.2-0.9C252.1,515.6,251.9,516.1,252.2,516.8L252.2,516.8z M372.6,517.4c-0.4,0.6-0.2,1,0.6,1.2
	c0.2,0,0.4-0.1,0.6-0.3c0.2-0.2,0.3-0.6,0.3-0.9c0-0.8-0.4-1.1-1.2-0.9C372.8,516.6,372.7,516.8,372.6,517.4L372.6,517.4z
	 M334.8,517.1c0.2,0.6,0.8,0.7,1.8,0.3c-0.3-0.3-0.7-0.5-1.2-0.6C334.7,516.5,334.5,516.6,334.8,517.1L334.8,517.1z M366.2,517.1
	c0,0.2,0.2,0.3,0.6,0.3C366,516.6,365.8,516.6,366.2,517.1L366.2,517.1z M474.3,517.4c-0.4-0.3-1-0.3-1.3,0.1
	c-0.1,0.1-0.1,0.2-0.2,0.2c-0.3,0.4-0.5,0.9-0.6,1.5c0.5-0.1,1-0.2,1.5-0.3c0.4-0.2,0.6-0.4,0.6-0.6
	C474.5,517.9,474.5,517.6,474.3,517.4L474.3,517.4z M417.4,518v-0.3l-0.6,0.3H417.4z M465,521.3c0.6-0.8,1.3-1.5,2-2
	c0.6-0.8,0.4-1.2-0.6-1.2c-0.2,0-0.4,0.1-0.6,0.3C465.6,518.9,465.3,519.9,465,521.3z M354.5,518.6c-0.2,0.8,0,1.3,0.6,1.5h0.9
	c0.4-0.6,0.3-1.3-0.3-1.8c-0.1-0.2-0.4-0.3-0.6-0.3h-0.3L354.5,518.6z M177.2,519.8c-0.4-0.4-0.8,0-1.2,1.2c0.5-0.1,1-0.3,1.5-0.6
	C177.8,520.2,177.6,520,177.2,519.8L177.2,519.8z M482.3,520.4c-0.4-0.4-0.9-0.4-1.5,0c-0.4,0.1-0.8,0.3-1.2,0.6h2
	C482,520.8,482.2,520.6,482.3,520.4L482.3,520.4z M496.9,520.4c-1.3-0.4-2.7,0.1-3.5,1.2c-0.1,0.5-0.3,1-0.6,1.5
	c1.4,0.5,2.7,1.4,3.5,2.6c0.5,0.8,1.4,1.2,2.3,1.2c1.6-0.2,3.2,0.3,4.4,1.5c1,1.2,2.5,1.8,4.1,1.8h1.8c1,0,1.5-0.3,1.5-0.9
	c-0.2-0.3-0.4-0.6-0.6-0.9c-1.9-0.2-3.6-1.5-4.4-3.2c0-0.3-0.1-0.6-0.3-0.9c-0.5-0.4-1-0.8-1.5-1.2c-1.2-0.3-2.4-0.7-3.5-1.2
	l-2.3-1.2L496.9,520.4z M479.3,526.5c1.4,0.5,2.6,1.2,3.8,2c0.7,0.7,1.8,0.8,2.5,0.1c0,0,0.1-0.1,0.1-0.1c1-0.8,0.7-1.8-0.9-2.9
	c-3.3-2.3-4.6-3.2-3.8-2.6c-0.7-0.5-1.3-1.1-1.8-1.8l-0.9,0.3c-1,0.8-1.3,1.6-0.9,2.3c0.3,0.4,0.6,0.8,0.9,1.2l0.9,0.9V526.5z
	 M448.6,521.8v0.6c0.4,0.2,0.7,0.2,0.9,0c0.8-0.6,0.7-0.9-0.3-0.9L448.6,521.8z M460.9,524.8c0.2,0.5,0.8,0.7,1.2,0.4
	c0.1,0,0.2-0.1,0.2-0.1c0.8-0.4,1.5-1.5,2-3.2l-2.9,1.4l-0.6,0.6L460.9,524.8z M443,522.4l-0.3,0.6h0.6L443,522.4z M526.2,522.7h0.3
	v0.3L526.2,522.7z M300.6,522.7l-0.3,0.6h0.6L300.6,522.7z M133.3,527.4c1.4,0.2,2-0.4,1.8-1.8c-0.1-0.9-0.6-1.7-1.2-2.4
	c-0.5-0.4-1.2-0.5-1.8-0.3c-0.5,0.3-0.9,0.9-0.9,1.5C131.1,525.8,132,527.1,133.3,527.4z M492.5,523.3c-0.5,0.1-1,0.3-1.5,0.6
	c-0.2,0-0.4,0.2-0.6,0.6c-0.2,0.3-0.3,0.6-0.3,0.9c0,0.6,0.4,0.8,1.2,0.6c0.4,0,0.6-0.1,0.6-0.3
	C492.2,524.9,492.4,524.1,492.5,523.3z M402.5,524.4c0.8,0,1.1-0.3,0.9-0.9h-0.9l-0.6,0.6l-0.3-0.3L402.5,524.4z M520.6,541.4
	c-2.1-1.7-3.7-4.1-4.4-6.7c-0.2-0.7-0.5-1.4-0.9-2.1c2.8-2.2,6.6-2.2,9.4,0l-0.3-0.3c2-0.4,2.9-1.4,2.9-2.9s0.9-3,2.6-4.4v28.1
	l-1.8,0.3c-0.8,0.2-1.4,1-1.5,1.8c-0.3,0.5-0.5,1.1-0.6,1.8c-1.8,0.2-3.5,0.2-5.3,0c0.7-0.9,1.4-1.9,2-2.9c0.5-0.7,0.9-1.5,1.2-2.4
	c0.8-1.6,0.3-2.1-1.5-1.8c-1.8,0.4-3.7,0.1-5.3-0.9c-0.4-0.2-1.8-0.7-4.1-1.5c1.4-3.1,3.4-4.3,6.1-3.5c0.6,0.2,1.1-0.1,1.5-0.9v-1.5
	L520.6,541.4z M387.3,526.8c-0.1-0.8-0.7-1.5-1.5-1.8c-1,0-1.6,0.6-1.8,1.8H387.3z M354.8,529.2c0.5,0.4,1.2,0.4,1.8,0
	c0.4-0.5,0.6-1.1,0.6-1.8c0-1.2-1-2.1-2.2-2.1c0,0-0.1,0-0.1,0c-0.6-0.1-1.2,0.3-1.5,0.9c-0.4,0.5-0.4,1.2,0,1.8
	C353.8,528.4,354.2,528.8,354.8,529.2z M377.6,526.3c-0.1-0.4-0.5-0.7-0.9-0.7c-0.1,0-0.2,0-0.2,0.1c-0.6,0.2-1,0.6-1.2,1.2
	c-0.2,0.8-0.1,1.3,0.3,1.5c0.4,0.3,1,0.3,1.3-0.1c0.1-0.1,0.1-0.1,0.1-0.2C377.2,527.4,377.4,526.8,377.6,526.3z M479.3,527.1
	l-0.3,0.3c-0.2,0.3-0.3,0.6-0.3,0.9c0,0.2,0.1,0.1,0.3-0.3h0.3V527.1z M435.4,529.5c-0.2,0.2-0.2,0.5,0,0.9c0.9,1.5,2,2.9,3.2,4.1
	c0.5,0.4,1.2,0.5,1.8,0.3c1.1-0.1,2.2-0.3,3.2-0.6c-1-1.4-3.2-3.1-6.7-5.3C436.2,528.5,435.8,528.7,435.4,529.5L435.4,529.5z
	 M397.3,532.1c-0.2-0.8-0.6-1.1-1.2-0.9c-0.4,0.2-0.6,0.4-0.6,0.6c-0.2,0.7,0.1,1.3,0.6,1.8h0.6l0.9-0.6L397.3,532.1z M448.8,531.8
	l-0.6-0.6l-0.6,0.3c0.2,0.4,0.4,0.6,0.6,0.6L448.8,531.8z M142.7,532.1c0.2,0.2,0.5,0.2,0.9,0v-0.6
	C142.8,531.1,142.5,531.3,142.7,532.1L142.7,532.1z M365,532.7c-0.6,1.2-0.5,2,0.3,2.4c0.5,0.4,1.2,0.4,1.8,0c0.5-0.3,1-0.9,1.2-1.5
	c0-1.2-0.7-1.8-2-1.8C365.6,531.6,365.2,531.9,365,532.7L365,532.7z M515.3,532.7H515v-0.3L515.3,532.7z M422.8,533.8
	c0.3,0.2,0.6,0.3,0.9,0.3c0.4,0,0.5-0.3,0.3-0.9c0-0.2-0.2-0.4-0.6-0.6l-0.6,0.3V533.8L422.8,533.8z M494.8,533.3
	c-0.4-0.3-1-0.3-1.3,0.1c-0.1,0.1-0.1,0.2-0.2,0.2c-0.2,0.6-0.2,1.2,0,1.8c0.2,1.2,1,2.1,2,2.6c1.4,0.8,2.3,1.4,2.9,1.8
	c1.8,0,2.6-0.1,2.6-0.3c2.5-0.8,3.4-2.4,2.6-5c-0.2-1-0.7-1.2-1.5-0.6c-1.5,1.5-3.8,1.8-5.6,0.6C496,534,495.4,533.6,494.8,533.3
	L494.8,533.3z M390.2,534.7c-0.3-0.8-1.2-1.1-2-0.8c-0.1,0.1-0.3,0.1-0.4,0.2l-0.6,0.6l0.3,0.9c0.9,1.2,1.7,2.5,2.3,3.8
	c0.4,0.8,0.9,1,1.5,0.6c0.6-0.1,1-0.6,0.9-1.2c0-0.1,0-0.2-0.1-0.3c-0.6-1.6-0.9-2.3-0.9-2.3L390.2,534.7z M467.9,536.5
	c0.2-1.2-0.1-1.9-0.9-2c-0.3,0-0.5,0.2-0.6,0.4c0,0.1,0,0.1,0,0.2v1.5l0.9,0.6L467.9,536.5z M290.9,534.7l-0.3,0.6
	c0.3,0,0.6,0.1,0.9,0.3C291.9,534.8,291.7,534.5,290.9,534.7L290.9,534.7z M445.6,536.2c-0.4-0.6-0.9-1.1-1.5-1.5
	C444.5,535.3,445,535.8,445.6,536.2L445.6,536.2z M247.6,535.6V535l-0.6,0.3L247.6,535.6z M375.3,535.6c0.2,0.3,0.3,0.6,0.3,0.9
	c0.4,0.2,0.7,0.2,0.9,0c0.6-0.6,0.4-1-0.6-1.2L375.3,535.6z M178.1,536.2l0.3-0.3l-0.6-0.3L178.1,536.2z M472.6,536.8
	c0.2,0.6,0.6,1,1.2,1.2c-0.2-1.4-0.5-2-0.9-1.8C472.7,536.3,472.6,536.5,472.6,536.8L472.6,536.8z M457.9,537.9
	c0.2,0.6,0.8,1,1.5,0.9c0.5-0.1,0.9-0.6,0.9-1.2c-0.2-0.8-0.6-1.2-1.2-1.2C458.4,536.6,457.9,537.2,457.9,537.9L457.9,537.9z
	 M213.3,537.1v-0.6h-0.6L213.3,537.1z M432.4,539.1l0.9-0.3l-0.3-0.6l-0.6,0.3V539.1L432.4,539.1z M368.5,539.4
	c-0.2,0.8,0.1,1.2,0.9,1.2l0.6-0.6c0.2-0.8,0-1.2-0.6-1.2C369,538.8,368.7,539,368.5,539.4L368.5,539.4z M480.5,540
	c-1.4-0.8-2-0.4-1.8,1.2c0.1,0.5,0.6,0.9,1.2,0.9c0.4,0.2,0.9,0,1.1-0.4c0-0.1,0.1-0.1,0.1-0.2C481.3,540.7,481.1,540.2,480.5,540
	L480.5,540z M485.5,540.9c0.1-0.5-0.2-1.1-0.8-1.2c-0.1,0-0.3,0-0.4,0l-0.6,0.6c-0.1,0.5,0.3,1.1,0.8,1.2c0.1,0,0.3,0,0.4,0
	L485.5,540.9z M401.7,540.3l0.6-0.6h-0.9L401.7,540.3z M324.9,540.3c-0.5-0.2-1.2,0-1.4,0.6c0,0.1-0.1,0.2-0.1,0.3
	c0,0.6,0.4,1,1.2,1.2c0.6,0.2,1-0.1,1.2-0.9C326,540.9,325.7,540.5,324.9,540.3z M149.1,542.3c0,0.2,0.1,0.4,0.3,0.6l0.6-0.3
	l-0.3-0.9L149.1,542.3z M495.7,542.6c0.3,0,0.5-0.2,0.6-0.4c0,0,0-0.1,0-0.1c-0.2,0-0.4,0.1-0.6,0.3V542.6z M410.2,543.8
	c0.6,0.6,2,0.6,4.1,0c0.4-0.2,0.6-0.4,0.6-0.6c0-0.6-0.4-1-1.2-1.2h-3.5c-0.2,0-0.4,0.1-0.6,0.3
	C409.4,542.9,409.6,543.5,410.2,543.8L410.2,543.8z M226.5,542.6c0.2-0.2,0.1-0.4-0.3-0.6h-0.6l0.3,1.2L226.5,542.6z M452.6,543.2
	c-0.8-0.4-1.2-0.1-1.2,0.9v1.2c0.5-0.1,1-0.3,1.5-0.6c0.2-0.2,0.2-0.5,0-0.9C452.9,543.6,452.8,543.4,452.6,543.2L452.6,543.2z
	 M336.6,543.8l0.6-0.3l-0.6-0.3V543.8z M475.2,544.4c0.4-0.8,0.2-1.1-0.6-0.9l-0.3,0.6c0.2,0,0.3,0.1,0.3,0.3H475.2z M506.3,543.5
	l0.3,0.6l0.3-0.6H506.3z M190.1,545c-0.2,0-0.5,0.2-0.9,0.6c0.2,0,0.4-0.1,0.6-0.3L190.1,545z M471.1,545.3l-0.3,0.6h0.6
	L471.1,545.3z M451.2,545.9c-0.4,0.1-0.8,0.2-1.2,0.3c-0.4,0.2-0.6,0.4-0.6,0.6c-0.2,0.1-0.2,0.4-0.1,0.5c0,0,0,0.1,0.1,0.1
	c0.4,0.4,0.8,0.3,1.2-0.3C450.9,546.7,451.1,546.3,451.2,545.9L451.2,545.9z M436.3,546.4H436l0.3,0.6V546.4z M202.8,547
	c0,0.8,0.3,1,0.9,0.6l0.3-0.6l-0.6-0.6C203.1,546.4,202.9,546.6,202.8,547L202.8,547z M487,547.9c0,0.3,0.1,0.5,0.4,0.6
	c0.1,0,0.1,0,0.2,0c0.6,0,0.9-0.4,0.9-1.2l-0.6-0.6C487,546.9,486.8,547.3,487,547.9L487,547.9z M513.3,547.6L513.3,547.6l-0.3-0.3
	L513.3,547.6z M494.9,547.6c-0.4-0.2-0.7-0.2-0.9,0c-0.4,0.2-0.6,0.4-0.6,0.6c0,1.5,0.9,2.9,2.3,3.5c0.6,0.4,1.4,0.2,2.3-0.6
	c-0.6-0.9-1.3-1.8-2-2.6l-0.3-0.3L494.9,547.6z M442.7,548.8l0.6-0.3l-0.3-0.3L442.7,548.8z M458,550c0.3,0.2,0.6,0.4,0.9,0.6
	c0.8,0,1.1-0.4,0.9-1.2l-0.6-0.6c-0.5-0.1-1.1,0.2-1.2,0.7C457.9,549.7,457.9,549.8,458,550L458,550z M501.3,550.5
	c-0.6-1-1.3-1.4-2-1.2c-0.7,0.2-1.1,0.8-0.9,1.8h3.2C501.5,551,501.3,550.8,501.3,550.5L501.3,550.5z M415.8,551.1l-0.6,0.3v0.3
	l0.3,0.3h0.6C415.8,551.4,415.8,551.1,415.8,551.1L415.8,551.1z M129.3,552c-0.4-0.2-0.7-0.2-0.9,0c-0.1,0.4-0.3,0.8-0.6,1.2h1.5
	C130,552.8,130,552.4,129.3,552L129.3,552z M471.1,554.3c0.4-0.8,0.2-1.3-0.6-1.5c-0.3,0-0.6,0.1-0.9,0.3c-0.6,0.6-0.6,1.1,0,1.5
	h0.9L471.1,554.3z M425.4,553.8c-0.2,0.2-0.3,0.6-0.3,0.9l0.3,0.9l0.6-0.6l0.9-1.5L425.4,553.8z M198.4,555.2
	c0.1,0.2,0.4,0.3,0.6,0.3c0.6-0.6,0.5-0.9-0.3-0.9L198.4,555.2z M203.7,556.7c0.6,0.6,1.1,0.6,1.5,0c0.4-0.4,0.4-0.7,0-0.9
	c-0.4-0.4-0.9-0.3-1.5,0.3V556.7z M383.6,557c-0.2,0.6,0,0.8,0.6,0.6l0.3-0.6l-0.3-0.3l-0.6-0.3V557z M520.7,557L520.7,557v-0.3
	c-0.2,0-0.1,0.1,0.3,0.3H520.7z M504.3,557.3c0-0.2-0.2-0.4-0.6-0.6l-0.3,0.9l0.6,0.3L504.3,557.3z M526.3,557L526.3,557z
	 M436.7,557c-0.6,0.8-1,1.2-1.2,1.2c-0.4,0.8-0.2,1.3,0.6,1.5c0.6,0,1.2-0.3,1.5-0.9c0.4-0.6,0.4-1.1,0-1.5L436.7,557z M491.4,559.3
	c0.4-0.6,0.3-1.3-0.3-1.8c-0.4-0.4-1.1-0.4-1.5,0c-3.9,2.5-5.3,3.6-4.1,3.2c0.7,0.5,1.5,0.8,2.3,0.9c1.5-0.1,2.8-1,3.4-2.4H491.4z
	 M485.3,560.5c-0.4-0.8-0.9-1.4-1.5-2c-0.6-0.8-1-0.8-1.2,0c0,0.3,0.1,0.6,0.3,0.9c0.6,0.7,1.3,1.1,2.2,1.2H485.3z M398.3,558.4
	l-0.6,0.3v0.9l0.9-0.3L398.3,558.4z M141.1,559.3c0.2,1,0.5,1,0.9,0l-0.6-0.9v0.3L141.1,559.3z M456.9,559.9
	c0.6,0.4,0.9,0.3,0.9-0.3l-0.6-0.3l0,0l-0.3,0.3V559.9z M497.3,560.2c0.4-0.6,0.1-0.9-0.9-0.9c-0.4,0-0.6,0.1-0.6,0.3
	c-0.4,0.8-0.2,1.2,0.6,1.2L497.3,560.2z M518.4,560.2c-1-0.2-1.7,0.3-2,1.5c-0.2,0.8,0.1,1.2,0.9,1.2c1.5,0.2,3-0.6,3.5-2.1
	c-0.8-0.3-1.6-0.5-2.5-0.6L518.4,560.2z M403,561.4c-0.4-0.1-0.8,0.2-0.9,0.7c0,0.1,0,0.1,0,0.2c-0.2,0.8,0.1,1.1,0.9,0.9
	c0.8-0.2,1-0.6,0.6-1.2c0.1-0.3-0.1-0.6-0.4-0.6c-0.1,0-0.2,0-0.3,0L403,561.4z M470.2,564.3c0.6,0.7,1.1,1.4,1.8,2
	c0.1,0.2,0.4,0.3,0.6,0.3c0.6-0.2,1-0.8,0.9-1.5c0.2-1.6-0.6-2.6-2.3-3.2c-0.8-0.4-1.2-0.2-1.2,0.6
	C470,563.1,470.1,563.7,470.2,564.3z M332.5,563.1l0.6,0.3c0.2-0.1,0.3-0.4,0.3-0.6l-0.9-0.9V563.1z M512.4,564
	c-0.4-0.9-1.3-1.5-2.3-1.5c-0.4,0-1.8,0.1-4.1,0.3v1.5c0.3,1.2,1.4,2.1,2.6,2c1.2,0.3,2.4-0.1,3.2-0.9
	C512.3,565.1,512.6,564.6,512.4,564L512.4,564z M349.5,564.3l-0.3-0.9c-0.6-0.6-0.9-0.4-0.9,0.6c-0.2,0.2-0.1,0.3,0.3,0.3H349.5z
	 M146.8,564.6l0.3-0.6h-0.6L146.8,564.6z M467.9,566.1c0.6,0.6,1.1,0.5,1.5-0.3c0.3-0.3,0.5-0.7,0.6-1.2h-1.4
	c-0.3,0.1-0.6,0.3-0.9,0.6C467.4,565.4,467.5,565.7,467.9,566.1L467.9,566.1z M476.9,566.4c-0.6,0-0.5,0.6,0.3,1.8v-1.2
	C477.3,566.6,477.2,566.4,476.9,566.4L476.9,566.4z M369.4,566.9v-0.6h-0.3L369.4,566.9z M520.9,566.7c-0.6-0.2-0.8,0-0.6,0.6
	c0.1,0.9,0.7,1.6,1.5,2c0.6,0.4,2.1,1.3,4.4,2.6C525.4,569.4,523.4,567.4,520.9,566.7L520.9,566.7z M303.2,567.8
	c0.4,0.8,0.8,0.8,1.2,0l-0.3-0.6h-0.6c-0.4,0.2-0.6,0.3-0.6,0.3L303.2,567.8z M445.9,567.8c-2.2-0.4-3.4,0.3-3.8,2
	c1.2,0.1,2.4,0,3.5-0.3c0.2,0,0.4-0.1,0.6-0.3c0.2-0.2,0.3-0.6,0.3-0.9c0-0.3-0.2-0.5-0.4-0.6C446,567.8,446,567.8,445.9,567.8
	L445.9,567.8z M478.1,570.2l0.6,0.6c0.1,0.4,0.5,0.6,0.9,0.6c0.2,0,0.4-0.1,0.6-0.3c0.4-0.6,0.3-1.4-0.3-1.8
	c-0.7-0.5-1.5-0.8-2.3-0.9C477.8,568.9,478.1,569.5,478.1,570.2L478.1,570.2z M359.2,569.6c0-0.8-0.4-1.1-1.2-0.9
	c-0.8,0.4-0.9,0.9-0.3,1.5h0.9L359.2,569.6z M165.8,569.9c0.3,0.5,0.9,0.8,1.5,0.9l0.6-0.3c0.1-0.6-0.3-1.2-0.9-1.5h-0.9
	C165.9,569.2,165.8,569.6,165.8,569.9L165.8,569.9z M411.3,569.6L411.3,569.6z M421.9,570.8v-0.9l-0.6,0.6L421.9,570.8z M413.1,571
	c-0.1-0.3-0.3-0.6-0.6-0.9v1.2C412.6,571.2,412.9,571.1,413.1,571L413.1,571z M340.4,571.3c0,0.6,0.4,0.8,1.2,0.6l0.6-0.3
	c0.2-0.4,0.2-0.7,0-0.9c-0.4-0.4-0.9-0.4-1.5,0l-0.3,0.3V571.3z M439.8,574.9c0.1,0.7,0.8,1.2,1.5,1.2c0.6-0.2,1.1-0.8,1.2-1.5
	c0-0.4-0.1-1.8-0.3-4.1l-1.8,1.8C439.8,573,439.6,573.9,439.8,574.9z M461.4,573.7c0.2-0.6,0-1.2-0.6-1.5c-0.5-0.7-1.5-1-2.3-0.6
	c-1.7,1.2-1.7,2.2,0,3.2c0.7,0.4,1.5,0.6,2.3,0.6C461.2,574.9,461.4,574.3,461.4,573.7L461.4,573.7z M490.1,572.8
	c0.2,0,0.2-0.2,0-0.6c0-0.4-0.1-0.6-0.3-0.6c-0.6-0.2-0.9,0-0.9,0.6v1.5C489.4,573.4,489.8,573.1,490.1,572.8L490.1,572.8z
	 M508,573.4c-0.7-0.6-1.7-0.8-2.6-0.6c-0.3,0-0.6,0.1-0.9,0.3c-0.2,0-0.4,0.2-0.6,0.6c-0.6,0.4-0.7,1.3-0.3,2.6
	c0.4,1.2,1,1.8,1.8,1.8h1.2c1.1-0.7,2-1.6,2.6-2.6C509.6,574.7,509.2,574,508,573.4L508,573.4z M399.3,574.3
	c0.4,0.4,0.9,0.6,1.5,0.6l0.3-0.6c0-0.6-0.3-1-0.9-1.2c-0.3,0-0.6,0.1-0.9,0.3V574.3z M517.7,573.7c-0.8-0.6-1.2-0.5-1.2,0.3
	l0.6,0.6C517.5,573.8,517.7,573.5,517.7,573.7L517.7,573.7z M491.6,581c1.2-0.3,2.2-0.8,3.2-1.5c0.8-0.4,1.3-1.1,1.5-2
	c-2.5-1-5-2.2-7.3-3.5l-3.2,3.2c-0.6,0.8-1.7,1.1-2.6,0.9c-0.2-0.2-0.8-0.3-1.8-0.3v1.5c0,1.4,0.5,2,1.5,2c3.5,0.2,5.6,0.3,6.2,0.3
	h1.2L491.6,581z M498.9,579c0.6-0.1,1-0.6,0.9-1.2c0-0.1,0-0.2-0.1-0.3c-0.3-0.8-0.9-1.5-1.8-1.8c-0.8,0-1.4,0.5-1.8,1.5
	c0.6,0.7,1.3,1.3,2,1.8c0.1,0.2,0.3,0.2,0.5,0.1C498.9,579,498.9,579,498.9,579L498.9,579z M462,577.8c-0.2-0.4-0.6-1.1-1.2-2v2.3
	c0.2,0.8,0.6,1,1.2,0.6C462.2,578.5,462.2,578.2,462,577.8L462,577.8z M467.6,577.5c0.8,0.2,1.3,0,1.5-0.6c0.2-0.2,0.1-0.4-0.3-0.6
	c-0.6-0.2-1.2,0.1-1.5,0.6C467.5,577.3,467.6,577.5,467.6,577.5z M426.3,578.1c-0.1,1.1-0.5,2.1-1.2,2.9c-0.7,0.8-1.3,1.7-1.8,2.6
	l0.6,0.6c1.5,0.3,3-0.5,3.5-2c0.6-1.1,0.8-2.3,0.6-3.5c-0.2-0.3-0.3-0.6-0.3-0.9l-1.2-1.2C426.6,576.7,426.5,577.1,426.3,578.1z
	 M417.8,576.6v0.9l0.6-0.3L417.8,576.6z M370,578.6c-0.5,0-0.9,0.2-1.2,0.6h0.6L370,578.6z M367.7,581.8c0.2,0.4,0.4,0.5,0.6,0.3
	c0.6,0,0.8-0.4,0.6-1.2c0-0.5-0.1-1-0.3-1.5c-0.3,0.5-0.5,0.9-0.6,1.5C367.7,581.2,367.6,581.5,367.7,581.8L367.7,581.8z M524.7,581
	c-0.4-0.3-1-0.3-1.3,0.1c-0.1,0.1-0.1,0.1-0.1,0.2c-0.2,0.2-0.2,0.5,0,0.9s0.4,0.6,0.6,0.6h2.6C526.1,582,525.5,581.4,524.7,581
	L524.7,581z M513.3,592.1c2-1,2.7-2.4,2.3-4.4v-1.8c0.1-1.6,0.6-3.1,1.5-4.4c-0.9-0.3-1.7-0.5-2.6-0.6c-2-0.4-3.3,0-4.1,1.2
	c-1.8,1.8-4.2,2.9-6.7,2.9c-0.6,0-1.2,0.1-1.8,0.3c-0.2,0-0.4,0.1-0.6,0.3c-0.6,0.4-0.7,1.2-0.3,1.8c0.3,0.5,0.9,0.8,1.5,0.6
	c3.1-0.5,6.2-0.1,9.1,1.2l1.2,2.1L513.3,592.1z M437.7,581.8l-0.3-0.6c-0.2-0.4-0.4-0.4-0.6,0c0,0.3,0.1,0.6,0.3,0.9l0.3-0.3H437.7z
	 M472.8,583.6c-0.4,0.8-0.1,1.8,0.6,2.3c0.6,0.7,1.3,1.2,2.1,1.8c0.7,0.6,1.7,0.6,2.3,0c0.4-0.4,0.9-0.7,1.5-0.9
	c-1.2-2.7-1.9-4.3-2-4.7c-0.2-0.6-0.8-1-1.5-0.9H474C473.4,582.5,473,583.3,472.8,583.6L472.8,583.6z M405.8,581.9
	c-0.2,0.4-0.2,0.8,0,1.2V581.9z M395.8,584.5l0.3,0.6h0.9c0.2-0.4,0.2-0.7,0-0.9l-0.9-1.2C396,583.1,396,583.5,395.8,584.5
	L395.8,584.5z M361.5,583.9c0,0.4,0.2,0.5,0.6,0.3c0.4,0.1,0.8-0.2,0.9-0.7c0-0.1,0-0.1,0-0.2C361.6,583.4,361.1,583.5,361.5,583.9
	L361.5,583.9z M455.8,585.7c-1.4,0-2,0.6-1.8,1.8c0,0.3,0.2,0.5,0.4,0.6c0.1,0,0.1,0,0.2,0c1,0.2,1.7-0.3,2.1-1.5
	C456.8,585.8,456.5,585.5,455.8,585.7L455.8,585.7z M523.8,586.9c0.4,0.2,0.7,0.2,0.9,0c0.6-0.4,1.1-0.8,1.8-1.2h-2.3
	C523.3,585.9,523.3,586.3,523.8,586.9L523.8,586.9z M433,586.3l0.3-0.6l-0.6,0.3L433,586.3z M481.7,590.7c0.3,0.2,0.6,0.3,0.9,0.3
	c0.6-0.4,0.7-1,0.3-1.8c-0.4-1-1.5-1.7-3.2-2.1c0.8,1.6,1.3,2.5,1.5,2.9L481.7,590.7z M368.9,587.4v0.9l0.9-0.6L368.9,587.4z
	 M332.2,588.6h0.6c-0.2-0.3-0.3-0.6-0.3-0.9l-0.6,0.3L332.2,588.6z M511.5,588.3L511.5,588.3z M354.2,588.6
	c-0.6,0.6-0.5,0.9,0.3,0.9c0.2,0,0.3-0.2,0.3-0.6L354.2,588.6z M463.5,590.4c0.4,0.4,1,0.5,1.5,0.3l0.9-0.6
	c-0.2-0.3-0.3-0.6-0.3-0.9c-0.5-0.4-1.2-0.5-1.8-0.3C463,589.3,462.9,589.8,463.5,590.4L463.5,590.4z M491,594.2h2.3
	c1-0.2,1.6-1.1,1.5-2.1c-0.2-1.6-1.1-2.1-2.6-1.8c-0.4,0-0.8,0.1-1.2,0.3L491,594.2z M506.8,593c0.6-0.6,0.7-1.1,0.3-1.5
	c-0.4-0.4-0.9-0.3-1.5,0.3c-0.6,0.6-0.6,1.4,0,2.3L506.8,593z M430.1,592.4c0.6,0.6,1.1,0.5,1.5-0.3l-0.6-0.6h-0.6l-0.6,0.3
	L430.1,592.4z M522.1,592.4c-0.4-0.6-0.9-0.6-1.5,0c-0.4,0.4-0.5,1-0.3,1.5l0.3,0.9c0.1,0.4,0.5,0.7,1,0.7c0.1,0,0.1,0,0.2-0.1
	c0.2,0,0.4-0.2,0.6-0.6c0.2-0.3,0.3-0.6,0.3-0.9C522.6,593.4,522.4,592.9,522.1,592.4L522.1,592.4z M455.3,593.6v0.9
	c0.9,0.8,2.1,1,3.2,0.6c0.5-0.3,0.9-0.9,0.9-1.5c-0.1-0.6-0.6-1-1.2-1c-0.1,0-0.2,0-0.3,0.1l-0.9,0.3L455.3,593.6z M395.2,593.6
	c0.8,0.6,1.1,0.5,0.9-0.3l-0.6-0.3v0.3L395.2,593.6z M487.5,595l-0.6,0.6c-0.2,0.5,0,1.2,0.6,1.4c0.1,0,0.2,0.1,0.3,0.1h0.9
	c0.2-0.2,0.9-1.1,2-2.6C489.6,594.6,488.6,594.8,487.5,595L487.5,595z M479.6,595.3L479,595v0.6L479.6,595.3z M366.2,595
	c-0.6,0.8-0.5,1.2,0.3,1.2c0.4,0,0.6-0.1,0.6-0.3l-0.3-0.9H366.2z M353.6,595.6l0.6-0.3l-0.6-0.3V595.6z M332,595.9
	c-0.3,0-0.5,0.2-0.6,0.4c0,0.1,0,0.1,0,0.2c-0.2,0.8,0.1,1.1,0.9,0.9l0.3-0.9L332,595.9z M507.7,596.5c-0.2,0.5-0.1,1.1,0.3,1.5
	c0.4,0.4,0.6,0.3,0.6-0.3C508.8,597.1,508.5,596.7,507.7,596.5L507.7,596.5z M312.9,597.4h0.8l-0.6-0.6L312.9,597.4z M419.6,599.7
	c0.4,0.2,0.7,0.2,0.9,0c0.4-0.2,0.6-0.4,0.6-0.6c0.2-0.4,0.1-0.6-0.3-0.6c-0.9-0.6-2-0.6-2.9,0C418.1,599.3,418.8,599.8,419.6,599.7
	L419.6,599.7z M443.9,600c0.2,0.6,0.7,0.8,1.5,0.6c0.8-0.2,1-0.6,0.6-1.2c-0.2-0.6-0.8-1-1.5-0.9C443.9,598.8,443.6,599.5,443.9,600
	L443.9,600z M408.7,599.4c0.3,0.2,0.6,0.3,0.9,0.3l0.6-0.3l-0.6-0.6h-0.9V599.4z M468.2,601.8l0.6,0.6l0.6-0.3
	c0.2-0.8-0.1-1.1-0.9-0.9C468.3,601.3,468.2,601.4,468.2,601.8L468.2,601.8z M490.7,601.8l-0.9-0.6c-0.6,0-0.9,0.4-0.9,1.2
	c0,0.3,0.1,0.5,0.4,0.6c0.1,0,0.1,0,0.2,0h1.2L490.7,601.8z M382.9,601.8l0.3-0.6h-0.6L382.9,601.8z M329.6,603v-0.3l-0.3,0.3H329.6
	z M454.1,603.8l0.6-0.9h-0.9L454.1,603.8z M502.1,603.3c-0.4-0.2-0.9,0-1.1,0.4c0,0.1-0.1,0.1-0.1,0.2c-0.2,0.6,0.1,0.9,0.9,0.9
	c0.4,0.1,0.8-0.2,0.9-0.7c0-0.1,0-0.1,0-0.2c0-0.3-0.2-0.5-0.4-0.6C502.2,603.3,502.2,603.3,502.1,603.3L502.1,603.3z M479,604.1
	c-0.8-0.2-1.2,0.1-1.2,0.9v2.3c0.4-0.3,0.8-0.6,1.2-0.9c0.2-0.3,0.4-0.6,0.6-0.9c0.2-0.4,0.2-0.7,0-0.9
	C479.6,604.5,479.4,604.3,479,604.1L479,604.1z M518.5,605.6c-1.4-1.4-2.6-1.3-3.8,0.3c-0.2,0.4,0,0.9,0.4,1.1
	c0.1,0,0.1,0.1,0.2,0.1c0.8,0.4,1.8,0.4,2.6,0C518.8,606.7,519,606.2,518.5,605.6L518.5,605.6z M443.2,605h-0.9
	c0,0.3,0.1,0.6,0.3,0.9h0.9C443.4,605.3,443.3,605,443.2,605L443.2,605z M415.7,605.6c-0.2,0.6,0.1,0.9,0.9,0.9l0.6-0.3
	c0.2-0.8-0.1-1.1-0.9-0.9h-0.5L415.7,605.6z M495.7,605.3h-0.6l0.3,0.6L495.7,605.3z M475.8,611.8c-0.4,1.8-1,3.6-1.8,5.3
	c0.7,0.4,1.4,0.9,2,1.5c1.8,1.2,2.7,0.8,2.9-1.2c0.7-3.2,0.2-6.5-1.2-9.4C476.8,609,476.1,610.3,475.8,611.8z M513.3,612.1
	c-0.4-1-1.2-1.3-2.4-0.9c-0.5,0.1-0.9,0.6-0.9,1.2c0,0.3,0.1,0.6,0.3,0.9c0.6,0.1,1.2,0.3,1.8,0.6l0.6-0.3l0.9-0.6L513.3,612.1z
	 M451.7,612.6l0.3,0.6h0.6v-0.9L451.7,612.6z M519.1,613.5c-0.8-0.8-1.2-0.7-1.2,0.3l0.9,0.3C518.8,613.9,519,613.7,519.1,613.5
	L519.1,613.5z M470.5,617.3c-0.2,0.1-0.3,0.4-0.3,0.6c-0.2,0.8,0.1,1.2,0.9,1.2c1.1-0.3,2.1-1,2.6-2h-2.3
	C471.1,617.1,470.8,617.2,470.5,617.3L470.5,617.3z M455.5,619.3c0.2,0,0.7,0.4,1.5,1.2c0.4,0.2,0.6,0.4,0.6,0.6
	c0.3,0,0.6,0.1,0.9,0.3c1,0.3,2.1-0.4,2.3-1.4c0,0,0,0,0-0.1c0-0.6-0.7-1-2-1.2c-0.4-0.4-0.9-0.7-1.5-0.9c-0.6-0.4-1.1-0.4-1.5,0
	c-0.5,0.2-0.7,0.7-0.5,1.2C455.4,619.2,455.5,619.3,455.5,619.3L455.5,619.3z M491,620.2c1-0.4,1-0.7,0-0.9l-0.6,0.3L491,620.2z
	 M482.5,619.9c0.8,0,0.9-0.2,0.3-0.6l-0.6,0.3v0.3L482.5,619.9z M515.6,627.8l2.9,2.9c0.7,0.2,1.4,0.5,2,0.9
	c-0.2-1.5-0.5-2.9-0.8-4.4c-0.2-1.4,0.1-2.9,0.9-4.1c0.4-0.8,0.7-1.4,0.9-1.8c0.2-0.2,0.2-0.5,0-0.9c-0.4-0.6-1.1-0.8-1.8-0.6
	l-2.3,0.9c-1.3,0.3-2.1,1.5-1.8,2.8c0,0,0,0.1,0,0.1c0,0.3,0.1,0.6,0.3,0.9c0,0.3,0.1,0.6,0.3,0.9c0,0.9-0.3,1.7-0.9,2.3
	L515.6,627.8z M427.2,624.4c0.6,0.6,1.1,0.6,1.5,0c0.5-0.2,0.7-0.8,0.4-1.2c0-0.1-0.1-0.2-0.1-0.2c-0.5-0.4-1.1-0.6-1.8-0.6
	c0.2-0.8,0-1.3-0.6-1.5c-0.8-0.2-1.1,0.1-0.9,0.9c0,0.6,0.4,0.9,1.2,0.9C426.7,623.2,426.8,623.9,427.2,624.4z M448,621.7l-0.6-0.6
	l-0.6,0.3l0.3,0.6l0.3-0.3H448z M494.8,624.7c-0.6,0.6-0.2,1,1.2,1.2c-0.1-0.4-0.3-0.8-0.6-1.2C495.4,624.3,495.2,624.3,494.8,624.7
	L494.8,624.7z M440,627l0.9-0.3l-0.6-0.6L440,627z M458.8,628.8c-0.4,0.6-0.1,0.9,0.9,0.9l0.6-0.3c0.4-0.2,0.6-0.4,0.6-0.6
	c0.2-0.6-0.1-0.9-0.9-0.9H459C459,627.9,459,628.2,458.8,628.8z M521.5,635.8c0.6-1.8,0.4-3-0.6-3.8c-0.9,1.7-1.5,3.5-2.1,5.3
	c0.5,0.1,1,0,1.5-0.3C521.1,636.6,521.5,636.2,521.5,635.8L521.5,635.8z M477,632.6l0.6,0.6v-0.9L477,632.6z M428.9,633.2v-0.6
	l-0.6,0.3L428.9,633.2z M507.1,633.2c-1.4,0.4-2.8,1.3-3.8,2.3c-0.5,0.3-1,0.9-1.2,1.5c-0.2,0.5,0,1.2,0.6,1.4
	c0.1,0,0.2,0.1,0.3,0.1c1.1,0.2,2.2,0.1,3.2-0.3c0.9-0.3,1.9-0.5,2.9-0.6c-0.2-1.9-0.3-3.1-0.3-3.5
	C508.9,632.9,508.3,632.6,507.1,633.2L507.1,633.2z M419.5,637c-0.3,0.9,0,1.9,0.6,2.6c0.4-0.2,0.6-0.4,0.6-0.6
	c0.7-0.5,1-1.5,0.6-2.3c0-0.3-0.2-0.5-0.4-0.6c-0.1,0-0.1,0-0.2,0C419.9,635.9,419.5,636.2,419.5,637L419.5,637z M527.1,637.3
	c-0.4-0.6-0.9-0.6-1.5,0c-0.4,0-0.9,0.4-1.5,1.2c-1.2,1.4-2.5,1.8-3.8,1.2c-0.6-0.4-1.1-1.1-1.5-1.8c-1.3,1.6-1.9,3.8-1.5,5.9
	c0.2,0.8,0.6,1.2,1.2,1.2c2.8-0.2,5.5-0.7,8.2-1.5c0.2-0.2,0.3-0.6,0.3-0.9C527.8,640.9,527.6,639,527.1,637.3z M485.2,638.1
	c0.3,0,0.6,0.1,0.9,0.3c0.6,0.4,1.1,0.2,1.5-0.6l-0.3-0.6c-0.3,0-0.6-0.1-0.9-0.3h-1.5C484.9,637,485,637.4,485.2,638.1L485.2,638.1
	z M509.5,637.9c0.3,0.3,0.7,0.5,1.2,0.6c0.6,0.4,0.8,0.3,0.6-0.3C510.8,637.7,510.1,637.6,509.5,637.9L509.5,637.9z M473.2,638.7
	l-0.6-0.6l-0.9,0.3l0.6,0.6L473.2,638.7z M444.4,641.4v0.6h0.9l-0.3-0.9L444.4,641.4z M481.4,643.4c-0.4,0.4-0.3,0.9,0.3,1.5
	l0.6,0.3c0.2,0,0.4-0.2,0.6-0.6c0.2-0.5,0.1-1.1-0.3-1.5l-0.9-0.9L481.4,643.4z M471.1,644c1,0.4,1.1,0.3,0.3-0.3
	c-0.2-0.2-0.6-0.3-0.9-0.3c-0.1,0.3,0.1,0.6,0.4,0.6C471,644,471,644,471.1,644L471.1,644z M421.9,646.3l0.3,0.6l0.6-0.3
	c0.2-0.4,0.2-0.6,0-0.6l-0.9-0.9V646.3z M453.5,648.3c1.9-0.2,3-1.2,3.2-2.9C455.4,646.1,454.3,647.1,453.5,648.3L453.5,648.3z
	 M438.6,646.3c0,0.8,0.4,1.1,1.2,0.9c0.4-0.1,0.7-0.5,0.7-1c0-0.1,0-0.1-0.1-0.2c-0.2-0.3-0.5-0.6-0.9-0.6c-0.4-0.1-0.8,0.2-0.9,0.7
	C438.6,646.2,438.6,646.2,438.6,646.3L438.6,646.3z M479.3,647.2c-0.6-0.6-1.1-0.6-1.5,0c-0.3,0.4-0.3,1,0.1,1.3
	c0.1,0.1,0.1,0.1,0.2,0.1c0.8,0.2,1.3,0,1.5-0.6C479.6,647.8,479.5,647.5,479.3,647.2L479.3,647.2z M502.8,649
	c-0.2,1.8,0.6,2.5,2.3,2.3c0.8-0.2,1.6-0.5,2.3-0.9c-0.4-1.4-1.7-2.5-3.2-2.6C503.5,647.7,502.9,648.3,502.8,649z M430.4,649
	l0.9,0.3l0.3-0.6l-0.6-0.3h-0.3L430.4,649z M483.1,650.1l0.6-0.3l-0.6-0.3V650.1z M470.2,649.9v-0.3h-0.6L470.2,649.9z M526.8,651
	c-0.6-0.8-0.9-0.7-0.9,0.3l0.6,0.3C526.7,651.3,526.8,651,526.8,651z M495.1,651c-0.4-0.3-1-0.3-1.3,0.1c-0.1,0.1-0.1,0.1-0.1,0.2
	c-0.2,0.2-0.3,0.6-0.3,0.9c0.5,0.6,0.8,1.3,1.2,2h1.8c-0.1-0.9-0.3-1.8-0.6-2.6C495.8,651.4,495.5,651.3,495.1,651z M509.2,652.2
	c-0.3-0.5-0.9-1-1.5-1.2C508.2,651.5,508.7,651.9,509.2,652.2z M436.8,651.3c-0.8,0.6-0.7,1,0.3,1.2l0.9-0.3
	c-0.2-0.3-0.3-0.6-0.3-0.9C437.3,651.1,437,651.1,436.8,651.3z M510.1,653.4c1,1,1.8,1.2,2.3,0.6c0.4-0.2,0.6-0.7,0.6-1.5
	c-1.1,0.2-2.1,0.3-3.2,0.3C509.9,652.9,510.1,653.1,510.1,653.4z M422.5,653.4l0.3,0.6l0.3,0.3v-1.8L422.5,653.4z M486.6,654.2
	c-0.6,0.6-0.8,1.1-0.6,1.5c0.2,0.6,0.7,0.8,1.5,0.6c1.2-0.4,1.6-1.1,1.2-2l-0.6-0.6C487.5,653.7,487,653.9,486.6,654.2L486.6,654.2z
	 M503.3,654.5c-0.8-0.2-1.3,0-1.5,0.6c0,0.2,0.1,0.4,0.3,0.6c0.6,0.2,1.2,0.5,1.8,0.9c0.4,0.4,0.9,0.7,1.5,0.9
	c0.6,0.6,1.1,0.6,1.5,0c0.2-0.6,0-1.3-0.6-1.8C505.9,655.1,504.9,654.7,503.3,654.5L503.3,654.5z M494.3,654.5c-0.6,0-0.6,0.2,0,0.6
	V654.5z M426.9,660.4c0.3,0.2,0.6,0.3,0.9,0.3c0.6,0,1-0.4,1.2-1.2c0.2-0.8,0-1.3-0.6-1.5l-2.6-1.8c-0.8-0.7-1.7-1.3-2.6-1.8
	c-0.8,1.7-0.7,3.7,0.3,5.3C424.5,660.1,425.7,660.3,426.9,660.4L426.9,660.4z M449.8,657.2l0.9-0.3c0.2-0.1,0.2-0.4,0.1-0.5
	c0,0,0-0.1-0.1-0.1c-0.4-0.8-0.8-0.8-1.2,0L449.8,657.2z M521,656.3c-1.1-0.6-2.5-0.5-3.5,0.3c-0.3,0.1-0.5,0.4-0.4,0.7
	c0,0.1,0,0.1,0.1,0.2c0.7,0.6,1.7,0.8,2.6,0.6c0.6,0,1-0.4,1.2-1.2V656.3z M460,656l-0.6,0.6h0.6V656z M466.8,658
	c0.1,0.9,0.7,1.6,1.5,2c0.2,0.2,0.6,0.3,0.9,0.3c0.5,0,1.1-0.2,1.5-0.6c0.4-0.5,0.4-1.2,0-1.8c-0.3-0.5-0.9-0.8-1.5-0.6
	C468.3,657.5,467.5,657.7,466.8,658L466.8,658z M445.1,657.7h-0.6l0.3,0.6L445.1,657.7z M475.8,666c0.6,0.8,1.7,1,3.2,0.6
	c1.2-0.2,1.9,0.1,2,0.9c0.4,1,0.7,1.5,0.9,1.5c0.4,0,0.7-0.5,0.9-1.5c0.4-2,0.4-4.1,0-6.2c-0.8-0.2-1.2-0.6-1.2-1.2v-1.5
	c-0.9,0.2-1.7,0.4-2.6,0.6c-1.2,0.5-2.2,1.3-2.9,2.3c-0.2,0.2-0.3,0.6-0.3,0.9C475.2,663.5,475.2,664.9,475.8,666z M511.5,659.3v0.6
	l0.6-0.3L511.5,659.3z M493.4,661c-0.5-0.4-1.2-0.4-1.8,0c-1.3,0.8-3,0.9-4.4,0.3h-4.4c1.7,1.3,3.1,2.7,4.4,4.4v-0.3l0,0
	c1.1,0.4,2.1,0.6,3.2,0.9c0.7,0.4,1.5,0.7,2.3,0.9c0.2-1.5,0.5-2.9,0.9-4.4c0.2-0.8,0.3-1.2,0.3-1.2L493.4,661z M520,663
	c0.1-0.5-0.2-1.1-0.8-1.2c-0.1,0-0.3,0-0.4,0c-0.6,0.2-1,0.6-1.2,1.2c-0.1,0.5,0.3,1.1,0.8,1.2c0.1,0,0.3,0,0.4,0
	C519.4,664.2,519.8,663.8,520,663L520,663z M498.6,663.3c0.2,0,0.4-0.1,0.6-0.3v-0.6l-0.6-0.3l-1.2,0.3L498.6,663.3z M416.3,663.6
	c0.2,0.8,0.6,1,1.2,0.6c0.2-0.2,0.3-0.6,0.3-0.9c0-0.8-0.3-1.1-0.9-0.9C416.3,662.5,416.1,662.8,416.3,663.6L416.3,663.6z
	 M441.2,665.4v0.6c1,0,1.2-0.3,0.6-0.9C441.6,664.7,441.4,664.8,441.2,665.4L441.2,665.4z M504.5,665.4c-0.5-0.4-1.2-0.4-1.8,0
	c-1.7,0.8-2.7,2.5-2.6,4.4c-0.1,0.9,0.5,1.6,1.3,1.8c0.1,0,0.3,0,0.4,0h0.9c0.4-0.2,0.6-0.4,0.6-0.6c1.1-1.1,1.9-2.5,2-4.1l0.3-0.9
	L504.5,665.4z M527.9,667.1l-0.3-0.6v0.3L527.9,667.1z M447.4,672.7c0.8,0.4,1.4,0.3,1.8-0.3c0.9-0.9,1.4-2.2,1.2-3.5
	c0-0.6-0.3-1.2-0.9-1.5c-0.6-0.2-1.3-0.1-1.8,0.3c-0.4,0.8-0.8,1.7-1.2,2.6C446.1,671.1,446.4,671.9,447.4,672.7L447.4,672.7z
	 M468.2,669.5v-0.6c-0.3,0.2-0.6,0.3-0.9,0.3l0.3,0.6c0.2-0.2,0.3-0.3,0.3-0.3H468.2z M459.1,675.6c0.4,0.2,0.7,0.2,0.9,0
	c0.4-0.2,0.6-0.4,0.6-0.6c-0.4-1.9-1.1-3.7-2-5.3c-0.6-0.4-1.3-0.3-1.8,0.3c-0.9,0.8-1.3,2-1.2,3.2C456.8,674,458,674.8,459.1,675.6
	L459.1,675.6z M416.6,670.1l0.3,0.6l0.6-0.3v-0.6L416.6,670.1z M474.3,674.2c-0.2-0.8-0.6-1.1-1.2-0.9c-0.2,0-0.4,0.2-0.6,0.6
	c-0.6,1.9-0.2,2.5,1.2,1.8C474.3,675.4,474.5,674.7,474.3,674.2L474.3,674.2z M454.1,673.6c0.3,0.2,0.6,0.1,0.8-0.1
	c0,0,0.1-0.1,0.1-0.1h-0.3L454.1,673.6z M486,675.9c0,0.2,0.2,0.3,0.6,0.3c0.8,0.2,1.2-0.1,1.2-0.9l-0.6-0.6
	c-0.5-0.1-1.1,0.2-1.2,0.8C486,675.7,486,675.8,486,675.9L486,675.9z M501.3,675.6l-0.3,0.6l0.9-0.3L501.3,675.6z M520.3,676.8
	L520.3,676.8z M520.6,676.8c-0.5,0.3-0.9,0.5-1.5,0.6c-0.6,0.8-0.4,1,0.6,0.6c0.4-0.2,0.7-0.7,0.6-1.2L520.6,676.8z"/>
<path d="M524.1,184.9c-2-1-4.4-1-7.2,0c-1.3,0.6-2.1,0.3-2.3-0.9c-0.5-1.6-1.7-2.7-3.3-3.1c0.8,0.3-4.5-1.3-15.9-4.8
	c-2.2-0.8-3.1-1.1-2.9-0.9c-2.8-1.3-5.8-2.4-8.8-3.2c-4.1-1.2-7.1-2.1-8.8-2.6c-2.5-1.1-5.1-1.8-7.8-2.1c-2.4-0.2-3.9-0.7-4.6-1.5
	c-0.6-0.5-1.3-0.8-2-0.9c-1.1-0.4-3.4-1.2-6.8-2.4l-6.8-2c-4.2-1.7-8.5-2.7-13-3.2c-3.7-0.2-6.4-1.2-8.2-2.9
	c-1.2-0.8-2.5-1.4-3.9-1.8c-1.3-0.5-2.6-0.9-3.9-1.2c-19.1-6.1-30.8-9.8-35.1-11.1c-1.6-0.4-3.1-1.2-4.2-2.3
	c-0.2-0.2-0.3-0.4-0.4-0.7l-61.7-19.2l-81.1,19.3c0,0.1-0.1,0.2-0.2,0.3c-1.1,0.6-2.2,1.3-3.3,2c-4.6,0.6-6.9,1-7.2,1.2
	c-6.3,1.4-17.7,4-34.2,7.9c-3.5,1-9.5,2.4-17.9,4.4c-7.8,1.8-13.9,3.2-18.2,4.4c-0.9,0.2-2.5,0.5-4.9,0.9c-1.7,0.5-3.5,0.9-5.2,1.2
	c-4.1,1.2-7.1,2-8.8,2.6c-0.9,0.2-2.6,0.5-5.2,0.9c-1.7,0.1-3.4,0.5-4.9,1.2c-11.9,2.7-18,4.1-18.2,4.1c-0.7,0.1-1.4,0.3-2,0.6
	c-0.6,0.2-1.3,0.3-1.9,0.3c0.4,0-7,1.9-22.2,5.6c-3.3,0.8-5.2,1.4-5.9,2c-0.7,1-1,3.1-1,6.4v102c0,0.2,0.1,1.4,0.3,3.5
	c0.3,1,1.2,1.8,2.3,2c1.3,0.2,2.6,0.1,3.9-0.3c5.2-1.4,30.7-8.5,76.6-21.4l36.2-10h0.6c2.2-0.8,4.5-1.5,6.8-2.1
	c3.3-0.8,5.7-1.4,7.2-1.8c5.2-1.6,9.8-2.8,13.7-3.8c7.6-2.2,12.3-3.5,14-4.1c1.1-0.4,3.4-1.1,6.8-2.1c2.3-0.5,4.6-1.2,6.9-2
	c0.9-0.4,1.9-0.7,2.9-0.9c3.4-0.5,6.8-1.3,10.1-2.3c2.8-0.8,6.8-2,12-3.5c1.7-0.4,6.5-1.7,14.3-3.8c5.9-1.7,10.6-3.1,14.3-4.1
	c-1.5,0.8,1.7-0.1,9.8-2.6c2.6-1,5.5-1,8.2,0c11.7,3.9,20.6,6.6,26.7,8.2c1,0.2,2,0.5,3,0.9c2.1,1,4.5,1.6,6.8,1.8
	c0.6,0.3,1.3,0.4,2,0.6c0.6,0.3,1.3,0.5,2,0.6c0.9,0.2,2.2,0.6,3.9,1.2c1.3,0.6,2.6,1.1,3.9,1.5c0.7,0.1,1.4,0.3,2,0.6
	c2.2,1.2,6.6,2.7,13.4,4.7c6.9,2.1,10.5,3.3,10.8,3.5l19.8,5.7c1,0,2,0.3,2.9,0.9c3.4,1.6,6.8,2.9,10.4,3.8
	c13.7,4.1,20.3,6.1,19.9,6.1c1,0.1,2,0.4,2.9,0.9c2.8,1.2,11.3,3.8,25.4,7.9c2.4,0.8,5.3,1.7,8.8,2.6h2c1-0.1,2-0.3,2.9-0.6
	c0.3,1.6,1.4,2.8,2.9,3.2c3.3,1.4,4.6,1.9,3.9,1.5c8.5,2.7,16.6,5.3,24.4,7.6l3.9,0.9v-0.3c1.5,0.5,2.9,1.2,4.2,2.1v-17l-2.3,1.5
	c-0.6,0.6-1.2,0.8-1.6,0.6c-0.7,0-1-0.4-1-1.2V274c0-1.2,0.7-1.7,2-1.5c1,0.1,2,0.3,2.9,0.6v-26.4c-0.9-0.6-0.9-1.2,0-1.8v-46.9
	c-2.2-0.8-3.5-1.9-3.9-3.5l2,0.9c0.7,0.1,1.4,0.3,2,0.6v-11.1c-1,0.2-1.9,0.4-2.9,0.6C526,185.3,525,185.1,524.1,184.9z M84,266.7
	l-0.6-0.3l0.6-0.3V266.7z M98,182h-0.6c0-0.3-0.1-0.6-0.3-0.9h1l0.3,0.6L98,182z M103.8,186.7c-0.6,0.2-1-0.1-1-0.9v-0.3h0.7
	l0.7,0.6L103.8,186.7z M113.3,274l-1-1.2h1.7l0.3,0.9L113.3,274z M127,192.8c-0.4,0.4-1,0.3-1.6-0.3c-0.7-0.8-0.4-1.2,0.7-1.2
	c0.6,0,1.1,0.3,1.3,0.9C127.5,192.6,127.4,192.8,127,192.8z M141.3,265.5c-0.9,0.2-1.3-0.1-1.3-0.9c0-0.2,0.2-0.4,0.7-0.6
	c0.6,0,1.1,0.3,1.3,0.9L141.3,265.5z M151.8,167.6c-0.2,0.2-0.4,0.3-0.7,0.3c0.3-0.3,0.6-0.5,1-0.6L151.8,167.6z M155.3,200.1
	c0.2,0.1,0.3,0.4,0.3,0.6C155.7,201.1,155.5,200.9,155.3,200.1L155.3,200.1z M161.9,177.9h-0.3l-0.3-0.3c0.2-0.4,0.3-0.6,0.3-0.6
	C162.4,177,162.5,177.3,161.9,177.9L161.9,177.9z M166.1,169.7h0.7l-0.3,0.6L166.1,169.7z M168.7,179.1c-0.5,0.2-1.1,0.3-1.6,0.3
	c-0.2-0.1-0.3-0.3-0.3-0.6c0-0.2,0.1-0.5,0.3-0.6c0.6-0.4,1.4-0.4,2,0C169.2,178.6,169.1,178.9,168.7,179.1L168.7,179.1z M191.8,165
	l-0.3-0.6c0.4-0.2,0.6-0.2,0.6,0l0.3,0.6H191.8z M215.6,158v-0.6l0.7,0.3L215.6,158z M264.8,157.4l-0.7,0.3v-0.6l0.7-0.3V157.4z
	 M274.9,145.7l-0.3-0.6h0.6L274.9,145.7z M278.5,190.5l-0.6-0.3v-0.6c0.6-0.4,1.1-0.2,1.3,0.6C279.1,190.4,278.9,190.5,278.5,190.5
	L278.5,190.5z M288.9,219.8v-0.6l1,0.3L288.9,219.8z M302.9,163.8c-0.2,0.6-0.7,0.9-1.3,0.9c-0.8-0.1-1.3-0.7-1.3-1.5
	c0.2-0.6,0.8-0.8,1.6-0.6C302.8,162.8,303.1,163.3,302.9,163.8L302.9,163.8z M310.8,120.5l-0.7,0.3c-0.2,0-0.5,0.1-0.6,0.3
	C309.8,120.7,310.3,120.5,310.8,120.5z M310.8,128.1c-0.2,0.1-0.3,0.4-0.3,0.6h-0.7C310,128.4,310.4,128.2,310.8,128.1z
	 M310.4,219.2l-0.7,0.6c-0.4-0.2-0.7-0.4-0.7-0.6c-0.2-0.1-0.2-0.3-0.1-0.5c0,0,0.1-0.1,0.1-0.1l1.3-0.9V219.2z M310.1,210.4v-0.3
	l0.3,0.3H310.1z M311.1,185.5l-0.6-0.3V184l1,0.9L311.1,185.5z M312.1,133.9l-1,0.3l-0.3-0.3v-0.6l0.3-0.3
	C311.9,132.9,312.3,133.2,312.1,133.9L312.1,133.9z M313.1,139.5c-0.4-0.6-0.3-0.7,0.3-0.3c0.6,0.1,1.1,0.3,1.6,0.6
	C313.9,140,313.2,139.9,313.1,139.5L313.1,139.5z M348.6,139.8l-0.7-0.3l-0.6-0.9L348.6,139.8z M335.6,140.4c0.6,0,1.1,0.4,1.3,1.2
	c0,0.3-0.1,0.6-0.3,0.9c-0.6,0.4-1.1,0.2-1.3-0.6c-0.5-0.8-0.5-1.3,0.2-1.5H335.6z M319.9,194.3c-0.2,0-0.5-0.1-0.7-0.3
	c-0.4-0.6-0.2-1,0.7-1.2h1l0.7,0.6C321.3,194,320.8,194.3,319.9,194.3z M328.3,186.4l-0.3-0.6l0.7-0.3l0.3,0.6L328.3,186.4z
	 M334.2,218v-0.6l0.6,0.3L334.2,218z M336.1,151.5c-1-0.2-1.9-0.7-2.6-1.5c-0.2-0.6-0.2-1.2,0-1.8c0.3-0.6,1-0.8,1.6-0.6
	c1.3-0.2,2.4,0.7,2.6,2c0,0,0,0.1,0,0.1C338,151.3,337.5,151.9,336.1,151.5L336.1,151.5z M339.4,192.5h-0.6
	c-0.4-0.2-0.7-0.4-0.7-0.6c0-0.6,0.3-0.9,1-0.9c0.4,0,0.7,0.1,1,0.3C340.5,191.7,340.3,192.1,339.4,192.5L339.4,192.5z M343.3,206.8
	c-0.9,0.2-1.4,0-1.6-0.6c-0.2-0.2-0.2-0.5,0-0.9c0.3-0.2,0.6-0.3,1-0.3c0.6,0.1,1.1,0.3,1.6,0.6
	C344.3,206.3,343.9,206.8,343.3,206.8L343.3,206.8z M344.6,132.1v0.3c-0.2,0.2-0.4,0.3-0.6,0.3l-0.3-0.6l1-0.3L344.6,132.1z
	 M348.2,218c-0.9-0.2-0.9-0.4,0-0.6l0.6,0.3L348.2,218z M348.8,157.3l-0.6,0.3h-1c-0.7-0.2-1.1-0.8-1-1.5c-0.2-1.2,0.1-1.9,1-2
	c0.7-0.2,1.4-0.1,2,0.3C350.5,155.4,350.4,156.4,348.8,157.3L348.8,157.3z M349.5,204.3v-0.9c0.4-0.4,0.7-0.9,1-1.5
	c0.2,0.5,0.3,1,0.3,1.5c0.2,0.8,0,1.2-0.7,1.2C349.9,204.7,349.8,204.6,349.5,204.3z M350.8,188.7h0.7l-0.3,0.6L350.8,188.7z
	 M351.1,210.4l-0.6-0.3l1-0.3L351.1,210.4z M351.4,201.6h-0.3c0.4-0.2,0.7-0.3,1-0.6L351.4,201.6z M352.1,162.4l-0.6,0.6
	c-0.9-0.2-1.2-0.7-1-1.5v-0.3h0.6C352,161.2,352.3,161.6,352.1,162.4L352.1,162.4z M353.7,133.4l-0.6-0.3l0.3-0.9h1.6L353.7,133.4z
	 M356.3,140.7c-0.2,0.2-0.4,0.3-0.7,0.3c-0.9-0.2-1.2-0.7-1-1.5c0.2-0.4,0.4-0.6,0.7-0.6c0.6-0.2,1.1,0.1,1.3,0.9
	C356.7,140.1,356.6,140.4,356.3,140.7L356.3,140.7z M359.6,158.5l-0.7,0.3l-1-0.3c-0.2-0.4-0.3-0.6-0.3-0.6h0.3c0.4-0.6,1-0.6,1.6,0
	c0.2,0.1,0.2,0.3,0.1,0.5C359.7,158.5,359.6,158.5,359.6,158.5L359.6,158.5z M359.6,150.6l-1,0.3l-0.7-0.6c-0.6-1.6-0.1-2.4,1.6-2.4
	c0.4-0.2,0.7-0.1,0.7,0.3C360.5,149.1,360.2,150,359.6,150.6L359.6,150.6z M366.1,223.9l0.3-0.6l0.3,0.6H366.1z M366.8,179.9
	c-0.9-0.2-1.1-0.6-0.7-1.2c0.2-0.6,0.7-0.7,1.3-0.3c0.4,0.2,0.7,0.4,0.7,0.6C368.1,179.8,367.6,180.1,366.8,179.9z M370.3,149.5
	c-0.2,0-1.1-0.1-2.6-0.3c0.3-0.5,0.5-0.9,0.6-1.5c0.5-0.6,1.2-0.8,2-0.6c1.5,0,2.1,0.6,1.6,1.8C371.8,149.3,371.2,149.5,370.3,149.5
	L370.3,149.5z M375.9,162.4c-0.9,0.2-1.4,0-1.6-0.6c-0.4-0.9-1-1.7-1.6-2.3c-0.5-0.7-1-1.5-1.3-2.3l0.6-0.9c0.9-0.4,2-0.2,2.6,0.6
	c0.9,1.3,1.7,2.6,2.3,4.1C377.1,161.7,376.8,162.2,375.9,162.4L375.9,162.4z M379.1,170.6h-0.7l0.7-0.6V170.6z M381.1,216v0.3
	l-1-0.3l0.3-0.6h0.3l0.3,0.3L381.1,216z M381.7,207.5l-0.6-0.3v-0.9h0.7c0.2,0,0.3,0.2,0.3,0.6L381.7,207.5z M382.4,155
	c-0.2,0.8-0.7,1-1.3,0.6c-0.7-0.2-0.9-0.7-0.7-1.5c0.1-0.5,0.6-0.8,1.1-0.7c0.1,0,0.1,0,0.2,0.1C382.3,153.8,382.6,154.4,382.4,155
	L382.4,155z M383,235v-0.6h0.3L383,235z M383,182l-0.3-0.9l0.3-0.6l0.7,0.9L383,182z M415.6,199.9c0.2-0.2,0.4-0.1,0.6,0.3
	c0.2,0.3,0.3,0.6,0.3,0.9c-0.4,0.8-0.7,1.5-1,2.4c-0.1-0.8-0.3-1.6-0.7-2.4C415,200.3,415.2,199.9,415.6,199.9L415.6,199.9z
	 M414.3,176.5l0.3,0.3l-0.3,0.6l-0.7,0.6l-0.3-0.9C413.6,176,413.9,175.8,414.3,176.5L414.3,176.5z M411.4,155.1
	c0.4,0.4,0.6,0.7,0.6,0.9l-0.6-0.3V155.1z M388.6,146c1.1,0.6,1,0.9-0.3,0.9l-0.6-0.6L388.6,146z M386,197.3l-0.3-0.6l0.6-0.6
	c0.4,0,0.7,0.1,0.7,0.3C387.4,197.1,387.1,197.4,386,197.3z M387,162.1l0.7-0.6c0.2,0.4,0.2,0.6,0,0.6
	C387.4,162.8,387.2,162.8,387,162.1L387,162.1z M388.3,185.5c-0.2,0-0.4-0.2-0.6-0.6c-0.2-0.1-0.3-0.4-0.3-0.6c0.4-0.8,1-1,1.6-0.6
	l0.7,0.6C389.6,185.1,389.1,185.5,388.3,185.5L388.3,185.5z M395.8,222.1l-0.7-0.3v-0.6h1C397,221.8,396.8,222.1,395.8,222.1z
	 M399.7,235.9v-0.6h0.7L399.7,235.9z M399.3,193.7v-1.2c0.4,0.1,0.6,0.5,0.7,0.9C400.2,194.4,400,194.5,399.3,193.7z M400.3,165.6
	l-0.6,0.6c-0.9,0.6-2,0.7-2.9,0.3l-0.7-0.6c-0.2-0.3-0.3-0.6-0.3-0.9c0.2-0.6,0.7-0.9,1.3-0.9c0.3,0,0.7,0.1,1,0.3
	C400,164.6,400.8,165,400.3,165.6L400.3,165.6z M403.3,228l-0.3-0.3l0.6-0.3L403.3,228z M408.8,221.8c-0.2,0.4-0.4,0.6-0.7,0.6
	c-0.4,0-1.4-0.1-2.9-0.3c0.4-0.8,1.1-1.3,2-1.5c0.9-0.2,1.4,0,1.6,0.6c0.1,0.1,0.2,0.3,0,0.5C408.9,221.8,408.8,221.8,408.8,221.8
	L408.8,221.8z M409.5,193.1v-0.6h0.7L409.5,193.1z M412.1,206.6c-0.2,0-0.5-0.1-0.7-0.3c-0.2-0.4,0.4-0.6,2-0.6
	C413.1,206.2,412.6,206.5,412.1,206.6L412.1,206.6z M415.3,203.7c0,1-0.7,1.6-2,1.8C413.5,204.5,414.3,203.7,415.3,203.7
	L415.3,203.7z M417.3,246.7c-0.4,0.4-1,0.3-1.6-0.3c-0.4-0.4-0.6-1-0.3-1.5c-0.9,0-1.3-0.3-1.3-0.9c-0.2-0.8,0.1-1.1,1-0.9
	c0.7,0.2,0.9,0.7,0.7,1.5c0.6,0,1.2,0.2,1.6,0.6C417.9,245.9,417.9,246.3,417.3,246.7L417.3,246.7z M425.4,168.8l0.7,0.3h-0.7V168.8
	z M419.6,214.8l-0.6-0.6l0.3-0.6c0.4,0,0.7,0.1,1,0.3C420.6,214.7,420.4,215,419.6,214.8L419.6,214.8z M422.2,161.2l-0.3,0.3h-0.3
	v-0.6l0.6-0.3v0.3l0.3,0.3H422.2z M425.1,181.7c-0.6-0.6-0.4-1.3,0.7-2.1c0.7-0.6,1.1-0.5,1.3,0.3c0.2,0.5,0.1,1.1-0.3,1.5l-1,0.3
	L425.1,181.7z M427.1,204.2h-0.3l-0.3-0.6c0.2-0.6,0.4-0.7,0.6-0.3c0,0.3,0.1,0.6,0.3,0.9H427.1z M492.9,181.7l0.7,0.3l-0.3,0.3
	c-0.2,0.2-0.4,0.3-0.6,0.3l-0.3-0.6L492.9,181.7z M484.8,179.9c0.6-0.4,1.4-0.4,2,0c0.5,0.5,0.6,1.2,0.3,1.8c0,0.2-0.1,0.4-0.3,0.6
	c-0.3,0.2-0.6,0.4-1,0.6c-2,1.3-3.7,1.4-5.2,0.3C482.9,181.4,484.3,180.3,484.8,179.9L484.8,179.9z M485.8,195.2
	c-0.4,0.3-0.8,0.6-1.3,0.9v-1.5c0-0.6,0.3-0.8,1-0.6c0.2,0,0.3,0.2,0.3,0.6C485.9,195,485.9,195.2,485.8,195.2L485.8,195.2z
	 M477.3,213c0,0.2-0.3,0.2-1,0l-0.6-0.6l-1.6-2.9c2,0.2,3.1,0.9,3.6,2C478,212.4,477.9,212.8,477.3,213L477.3,213z M477.6,241.7v0.6
	L477,242L477.6,241.7z M474.4,191.7c0.7,0.4,0.8,1,0.3,1.8c-0.3,0.2-0.6,0.3-1,0.3c-0.2,0-0.4-0.2-0.6-0.6l-0.7-0.6
	c-0.1-0.6-0.3-1.2-0.6-1.8C472.6,190.8,473.5,191.1,474.4,191.7L474.4,191.7z M471.1,188.7c0.2,0,0.3,0.2,0.3,0.6v1.2
	C470.5,189.3,470.4,188.7,471.1,188.7L471.1,188.7z M469.8,203.7c0.7,0,1.3,0.3,1.6,0.9c0.9,1.5,1.7,3,2.3,4.7
	c-0.6,0.2-1.1,0.5-1.6,0.9c-0.8,0.6-1.8,0.6-2.6,0c-0.8-0.5-1.6-1.1-2.3-1.8c-1.1-0.8-1.2-1.9-0.3-3.2c0.4-0.4,0.7-0.9,1-1.5H469.8z
	 M473.7,217.4v0.6l-0.6-0.3L473.7,217.4z M462.6,175.5c0.5-0.4,1.2-0.4,1.6,0c0.4,0.2,0.5,0.5,0.3,0.9c-0.1,0.5-0.6,0.8-1.1,0.6
	c-0.1,0-0.1,0-0.2-0.1l-1-0.6C462.4,176.1,462.5,175.8,462.6,175.5L462.6,175.5z M461,186.7c-0.2,0,0.4-0.7,2-2
	c0.7-0.8,1.5-0.8,2.6,0c0.8,0.4,1.3,1.2,1.6,2c0.9,2.1-0.1,3.1-2.9,2.9c-0.8,0-1.6-0.2-2.3-0.6C459.9,188.6,459.6,187.8,461,186.7
	L461,186.7z M450.2,171.4c0.4-0.6,1-0.6,1.6,0v0.6c-0.4,0.8-1,0.9-1.6,0.3l-0.3-0.3L450.2,171.4z M452.5,194c1.1,0.6,1.5,1.3,1.3,2
	c-0.1,0.6-0.4,1.2-0.7,1.8c-1,0-1.9-0.3-2.6-0.9c-1.1-0.4-1.3-1.2-0.6-2.3C450.3,193.6,451.2,193.4,452.5,194z M448.5,182
	c0.4-0.4,0.7-0.5,0.7-0.3c0.6,0.6,0.4,0.9-0.7,0.9V182z M432.9,170.6l0.6,0.3l-0.6,0.3V170.6z M430,249.1l0.3-0.6l0.7,0.6H430z
	 M432.3,196.9c-0.2,0.8-0.5,1.2-1,1.2c-0.6,0.2-1.3,0-1.6-0.7c0-0.1-0.1-0.1-0.1-0.2c-0.3-0.9,0-1.9,0.7-2.6c0.2-0.2,0.9-0.8,2-1.8
	C432.5,194.2,432.5,195.6,432.3,196.9L432.3,196.9z M433.5,228c-1.1,0.2-1.3-0.1-0.6-0.9l0.6,0.3C433.8,227.8,433.8,228,433.5,228z
	 M435.8,223c-0.6,0.2-1.3,0-1.6-0.6c-0.4-0.6-0.2-1.1,0.7-1.5c0.6-0.2,1.3,0,1.6,0.6C436.9,222.1,436.7,222.6,435.8,223L435.8,223z
	 M436.8,191.3c-0.2,0.4-0.4,0.6-0.7,0.6c-0.6,0-2,0.1-3.9,0.3c0.4-1.8,1.8-2.4,4.2-2c0.4,0,0.6,0.2,0.6,0.6
	C437.1,191,437,191.2,436.8,191.3L436.8,191.3z M438.5,244.3c-0.4,0-0.7-0.1-0.7-0.3c-0.2-0.6,0-0.7,0.7-0.3V244.3z M441.7,169.3
	c-0.4,0.6-0.9,0.7-1.3,0.3c-0.3-0.1-0.5-0.4-0.4-0.7c0-0.1,0.1-0.1,0.1-0.2c0.3,0,0.7-0.1,1-0.3c0.4,0,0.9-0.1,1.3-0.3
	C442.2,168.6,442,169,441.7,169.3L441.7,169.3z M444,235.3c-0.2,0-0.5,0.1-0.7,0.2l-0.3-0.8h1L444,235.3z M444,166.7
	c0,0.2-0.4,0.5-1.3,0.9c-0.1-0.7-0.4-1.4-0.7-2c0-0.3,0.1-0.6,0.3-0.9h1C444.8,165.3,445.1,166,444,166.7L444,166.7z M445.6,209.5
	c0-0.3,0.1-0.6,0.3-0.9c0.2-0.6,0.8-0.9,1.6-0.9c0.4,0.2,0.7,0.4,0.7,0.6c0.9,0.8,0.5,1.5-1,2C446.4,210.6,445.8,210.3,445.6,209.5
	L445.6,209.5z M446.9,216.8c-0.4-0.6-0.6-0.9-0.6-0.9l1.3-0.3c1.7-0.6,3-0.6,3.9,0c0,0.6-0.4,1.2-1,1.5c-0.9,0.4-2,0.4-2.9,0
	L446.9,216.8z M451.8,251.7c-0.4,0-0.7-0.1-1-0.3c-0.2-0.4,0.4-0.7,2-0.9C452.6,251,452.2,251.5,451.8,251.7z M452.8,242.3
	c-0.3,0.6-1,0.8-1.6,0.6l-0.3-1.8c-0.9,0.8-1.5,1.4-2,1.8h1.6c-0.5,0.2-1.1,0.2-1.6,0c-0.9-1.2-1.1-1.9-0.7-2l1-0.6l0.6,0.6
	c0.3,0,0.7,0.1,1,0.3C452.6,241.4,453.2,241.7,452.8,242.3z M454.4,201c-0.7,0.4-1.1,0.2-1.3-0.6v-2.4c0.6,1,1.1,1.7,1.3,2
	C454.6,200.4,454.6,200.8,454.4,201L454.4,201z M457.3,212.7h-0.7c-0.9-0.2-1.2-0.6-1-1.2c0.3-0.2,0.6-0.3,1-0.3
	c0.6,0,1.1,0.3,1.3,0.9C458,212.4,457.8,212.5,457.3,212.7L457.3,212.7z M460.3,199.3l-0.3-0.3l0.7-0.3h1l0.6,0.3l-0.3,0.6
	c-0.5,0.4-1.2,0.3-1.5-0.2C460.3,199.4,460.3,199.3,460.3,199.3z M462.5,224.5c-0.2,0.3-0.6,0.5-0.9,0.3c0,0-0.1,0-0.1-0.1l-0.3-0.9
	l0.7-0.6C462.8,223.3,463,223.7,462.5,224.5z M464.2,266.1c-0.2,0-0.5-0.1-0.6-0.3c0.5-0.2,1,0,1.2,0.4c0,0,0,0.1,0.1,0.1
	L464.2,266.1z M465.5,261.4v-0.9h0.7l0.3,0.6L465.5,261.4z M464.5,241.5c-0.9,0-1.2-0.4-1-1.2c0-0.2,0.1-0.4,0.3-0.6
	c0.3-0.2,0.7-0.3,1-0.3h2.6C466.7,240.4,465.7,241.2,464.5,241.5L464.5,241.5z M471.3,255.3h-0.6v-0.9c0.2-0.2,0.4-0.3,0.6-0.3
	C472.2,254.5,472.2,254.9,471.3,255.3z M473.3,270.2v0.3h-0.6l-0.7-0.6l0.3-0.6C473.2,268.9,473.5,269.2,473.3,270.2L473.3,270.2z
	 M473.3,239.7c0,1.2-0.8,1.7-2.3,1.5c-1.1-0.5-2.2-1.1-3.3-1.8c1-2,1.8-4,2.3-6.1c0.3-1.2,1-2.2,2-2.9
	C473.5,232.7,473.9,235.8,473.3,239.7L473.3,239.7z M474,228l-2,1.8c-0.1-1,0-2,0.3-2.9c0.3-0.2,0.6-0.3,1-0.3
	c0.4,0.2,0.6,0.4,0.6,0.6C474.2,227.5,474.2,227.8,474,228L474,228z M476.6,267.3c-0.2,0-0.5-0.1-0.7-0.3l-0.7-0.9l0.7-0.6l1-0.3
	c0.6,0.1,1,0.6,1,1.2C477.6,267.1,477.2,267.4,476.6,267.3z M477.9,272.3V272l0.6,0.3H477.9z M483.1,219.3c-0.9-0.2-1.2-0.6-1-1.2
	c0.2-0.4,0.4-0.6,0.7-0.6c1.2-0.3,2.4-0.5,3.6-0.6c-1.3,1.6-2.2,2.4-2.6,2.4C483.5,219.4,483.2,219.4,483.1,219.3
	C483.1,219.2,483.1,219.2,483.1,219.3L483.1,219.3z M485.1,225.4l-0.6-0.6c-0.2-0.8,0.1-1.2,1-1.2c0.4,0,0.6,0.2,0.6,0.6
	C486.2,224.9,485.9,225.3,485.1,225.4L485.1,225.4z M487.3,242.4l-1,0.3v-0.9c0.4-0.2,0.6-0.2,0.6,0
	C487.6,241.7,487.8,241.9,487.3,242.4L487.3,242.4z M486.7,216.6c0-1.2-0.1-2.4-0.3-3.5c0.5-0.1,1.1-0.2,1.6-0.3
	c1.7-0.4,2.7,0.2,2.9,1.8c0,0.9-0.7,1.7-1.7,1.7C488.4,216.5,487.5,216.6,486.7,216.6L486.7,216.6z M490.6,276.7
	c-0.4-0.7-0.8-1.4-1.3-2c-0.2-0.8,0.1-1.3,1-1.5c0.9,0,1.4,0.3,1.6,0.9c0.2,0.2,0.3,1.1,0.3,2.6L490.6,276.7z M490.9,247.1
	c0.4-0.4,0.6-0.4,0.6,0c0.3,0.4,0.6,0.9,0.7,1.5C490.7,248.1,490.2,247.6,490.9,247.1L490.9,247.1z M491.3,228.1l0.3-0.6l0.3,0.6
	H491.3z M495.8,199.9c-0.2,0.4-0.4,0.6-0.7,0.6c-0.9-0.1-1.8-0.3-2.6-0.6c-0.3,0.8-0.9,1.5-1.6,2l-2.6,1.2c-1.2,0.6-2.5,0.8-3.9,0.9
	c-0.9,0-3.3-0.1-7.2-0.3c-0.9,0-1.4-0.7-1.6-2.1c-0.2-1.8,0.5-2.3,2.3-1.8c1.3,0.5,2.7,0.1,3.6-0.9l0.6-0.6l1-0.9l1.3-1.2
	c2.6,1.4,5.3,2.5,8.1,3.5c0.3-0.5,0.6-1,1-1.5c0.5-0.4,1.2-0.4,1.6,0C495.7,198.6,496,199.3,495.8,199.9
	C495.8,199.8,495.8,199.9,495.8,199.9z M520.9,189.3l3.6,1.8l1.3,2.9l-6.2-3.5c-0.2-0.3-0.3-0.6-0.3-0.9
	C519.5,189,520,188.9,520.9,189.3z M520.2,214.2c0.9-0.2,1.3,0.1,1.3,0.9v0.9c-0.2,0.8-0.7,1.1-1.3,0.9c-0.6-0.1-1-0.6-1-1.2
	C519.2,215,519.6,214.4,520.2,214.2L520.2,214.2z M515.7,195.7l0.6,0.3l-0.3,0.3c-0.7,0.6-1,0.4-1-0.6H515.7z M503.3,184.9
	c1.8-0.4,3.7-0.4,5.5,0c1.5,0.4,2.1,1.1,1.6,2c-0.3,0.6-0.7,1.1-1.3,1.5c-0.7,0.1-1.3,0.2-2,0.3h-1c-1.3,0.1-2.6-0.7-2.9-2
	L503.3,184.9z M501.3,195.5c1.6-0.8,3.4-0.7,4.9,0.3l0.6,0.9l-0.3,0.9c-0.9,1-1.6,1.9-2.3,2.6c-1.5,1.2-2.6,0.9-3.3-0.9
	c-0.2-0.8-0.4-1.7-0.7-2.6C500.3,196.1,500.7,195.6,501.3,195.5z M497.8,225.9l0.6-0.6c0.7-0.2,1.1,0.1,1.3,0.9
	c0,0.6-0.4,0.9-1.3,0.9C497.8,227.1,497.5,226.7,497.8,225.9z M504,279.8h-0.8c-0.4-0.2-1.7-0.8-3.8-1.8c-0.9-0.4-1-0.8-0.3-1.2
	c0.2-0.2,0.5-0.2,1,0l2.9,0.3l1,0.9C504.4,278.6,504.4,279.3,504,279.8L504,279.8z M502,273.7c-1.7,0.2-2.5-0.7-2.3-2.6
	c0.1-0.6,0.7-1.1,1.4-1c0.1,0,0.2,0,0.2,0.1c1.6,0.1,3,1.1,3.6,2.6C503.9,273,502.9,273.3,502,273.7L502,273.7z M500.6,260.5
	c-0.2,0.2-0.5,0.2-1,0c-0.7-0.4-0.8-1-0.3-1.8c0.3-0.5,0.8-0.9,1.3-1.2c1.3-0.8,2.7-1.2,4.2-1.2C504.3,258.4,502.7,260,500.6,260.5
	L500.6,260.5z M502.6,214.2c0.5-0.6,1.3-0.7,2-0.3c0.4,0.4,0.3,0.9-0.3,1.5l-1.3,1.2C502.3,215.6,502.2,214.8,502.6,214.2
	L502.6,214.2z M505.6,255.5c0,0.2-0.1,0.4-0.3,0.6c-0.1-0.5,0.2-1,0.6-1.2L505.6,255.5z M505.9,220.4c-0.6-0.4-0.9-0.9-0.6-1.5
	c0.9,0,1.3,0.4,1.3,1.2C506.3,220.5,506.1,220.6,505.9,220.4L505.9,220.4z M508.2,275.4c-0.2,0-0.5-0.1-0.7-0.3h2l1.6-0.3
	C510.4,275.8,509.1,276.1,508.2,275.4L508.2,275.4z M509.2,261.1v-0.6l0.7-0.3l0.3,0.6C509.9,261,509.5,261.1,509.2,261.1
	L509.2,261.1z M511.2,235.6l-1,0.3c-0.9,0.3-1.9-0.2-2.3-1.2v-0.6c0.2-0.6,0.8-0.9,1.6-0.9c0.6-0.2,1.3,0,1.6,0.6l0.7,0.9
	L511.2,235.6z M511.5,214.5c-0.9-1.4-1.5-2.4-2-2.9c-0.6-0.3-1.3-0.5-2-0.6l-8.8-0.9c-0.9,0-1.3-0.4-1.3-1.2c0-0.6,0.4-1,1.3-1.2
	c0.3-0.2,0.6-0.3,1-0.3c-0.7,0,0-0.1,2-0.3c2.8-0.2,4.9-1.1,6.2-2.6c1-0.9,2.2-1.5,3.6-1.5c1.3,0,2.1,0.5,2.3,1.5
	c0,0.2,0.1,2.3,0.3,6.4c0.2,1.2-0.4,2.3-2,3.2L511.5,214.5z M512.8,228.9V228c0.6-0.8,1.6-1.2,2.6-1.2l2.6,0.6c0,0-0.2,0.5-0.7,1.5
	c-0.5,0.4-1,0.7-1.6,0.9C514.1,229.7,513.2,229.4,512.8,228.9L512.8,228.9z M518,235.6c0,0-0.1,0.3-0.3,0.9l-1-0.6l0.3-0.6l0.7,0.3
	H518z M516.1,242.9c0.3-0.2,0.6-0.3,1-0.3l2-0.6c0.7,0,1.3,0.3,1.6,0.9c0.2,0.2,0.2,0.5,0,0.9c-0.4,0.4-0.7,0.8-1,1.2
	c-0.1,0.4-0.4,0.8-0.7,1.2c-0.7,1.1-0.7,2.4,0,3.5c0.5,1.1,1.2,2.2,2,3.2c1,1.2,1.3,2.9,0.7,4.4c-0.6,1.6-2.2,2.5-3.9,2.3
	c0.2-1.4,0.3-2.2,0.3-2.3c0.4-1.6,0.3-2.7-0.3-3.5c-1.4-2.5-2.6-5.2-3.6-7.9C513.6,244.5,514.2,243.5,516.1,242.9L516.1,242.9z
	 M517.7,285.1l-0.3-0.6c0.4-0.6,0.8-0.7,1-0.3C518.9,284.8,518.7,285.1,517.7,285.1L517.7,285.1z M519.3,280.1
	c-0.6,0.2-1.3,0.3-2,0.3c-1.1,0-1.6-0.3-1.6-0.9c0-0.6,0.4-1,1.3-1.2h2l1,0.3C520.3,279.3,520.1,279.7,519.3,280.1L519.3,280.1z
	 M527.5,259c0.4,1.9,0.3,3.8-0.3,5.6c-0.2,0.6-0.7,1-1.3,1.2c-2.7,0.7-5.4,1.1-8.1,1.5c-0.8,0.1-1.5-0.4-1.6-1.2
	c-0.5-2.1,0.2-4.3,1.6-5.9c0.4,0.7,0.9,1.3,1.6,1.8c1.6,0.6,3.4,0,4.2-1.5c0.5-0.8,1.2-1.5,2-2C526.2,258.3,526.9,258.5,527.5,259
	L527.5,259z M523.6,207.7h2.2c-0.6,0.4-1.2,0.9-1.6,1.5c-0.4,0.2-0.8,0.2-1,0C522.5,208.6,522.6,208.2,523.6,207.7L523.6,207.7z
	 M526.5,205.7c0,0-0.1,0.6-0.3,1.8c-1.8-1.4-2.9-2.3-3.6-2.6c-0.2,0-0.3-0.2-0.3-0.6c0-0.8,0.4-1.2,1.3-1.2
	C525.5,202.9,526.4,203.8,526.5,205.7L526.5,205.7z"/>
<path class="st0" d="M77.2,422.7v251.1l330.3,2l-330.3-2"/>
<path class="st1" d="M526.8,381.2c-1.3,0.8-2.2,0.6-2.6-0.6c-0.4-1.2-1.4-2-2.6-2.3c-1.1-0.4-1.3-1.2-0.7-2.4c0.2-0.6,0.6-1.1,1-1.5
	c0.5-0.9,1.6-1.3,2.6-0.9c0.4,0.2,2.3,0.9,5.5,2v-22.6c-0.5-0.3-0.7-0.9-0.4-1.4c0.1-0.2,0.2-0.3,0.4-0.4v-31.9
	c-2.6-0.2-4.6-0.3-5.9-0.3c0.6-0.7,1.4-1.1,2.3-1.2l3.6-0.3v-17c-4.6,1-7.2,1.6-7.8,2c0.4,3.1,0.2,5.5-0.7,7
	c-0.5-0.2-0.9-0.4-1.4-0.7c-0.3-0.5-1.1-1.9-2.5-4.3c-1-2.1-3.2-3.5-5.5-3.5h-99.4v115.1c2,0,4.3,0.1,6.7,0.1c0.4,0,1.4-0.1,2.9-0.3
	c0.7-0.1,1.3-0.5,1.6-1.2v-0.7c0-0.2,0.1-0.3,0.3-0.3c0.7-1.6,1.4-2,2.3-1.2c2.2,2.7,5.7,3.9,9.1,3.2c-1.5,0.2,1.6,0.3,9.5,0.3h14
	l14-0.3h17.6c3.9,0.2,9,0.2,15.3,0h15c0.9,0,1.1-0.7,0.6-2c0-0.6-0.1-1.2-0.3-1.8c-0.2-0.6-0.3-1.2-0.3-1.8c-0.2-1-1-1.8-2-2
	c-0.6-0.3-1.3-0.5-2-0.6c-0.6-0.3-1.3-0.5-2-0.6c-1.6-0.5-2.9-1.8-3.3-3.5c-0.2-0.2-0.1-0.5,0.3-0.9c0.3-0.2,0.6-0.3,1-0.3
	c2.6,0.6,5.2,0.9,7.8,0.9c0.4,0,1.5,0.1,3.3,0.3c1.3,0,2,0.6,2,1.8c-0.1,0.6-0.2,1.2-0.3,1.8c1.3,0,2.6,0.1,3.9,0.3v-5.9
	c-0.4-0.5-0.4-1.2,0-1.8v-13.2c-1.1-0.6-1.1-1.2,0-1.8v-5.6C528.7,379.9,527.7,380.5,526.8,381.2z M418.6,333.7l0.3,0.6h-0.7
	L418.6,333.7z M414,381.7l-0.7-0.6h1L414,381.7z M415.6,305.9c-0.7,0.4-1.1,0.2-1.3-0.6l0.3-0.9c0.9-0.2,1.3,0.1,1.3,0.9
	C416.2,305.5,416.1,305.7,415.6,305.9L415.6,305.9z M416.3,350.7l0.3-0.3h0.7c0.7,0,1,0.4,1,1.2l-1,0.6
	C416.4,352,416.1,351.5,416.3,350.7L416.3,350.7z M420.2,399.3c0,0.9-0.5,1.7-1.3,2h-0.7c-0.6-0.7-0.8-1.8-0.3-2.6
	c0.2-0.8,0.8-1.1,1.6-0.9C420.2,398.1,420.4,398.6,420.2,399.3L420.2,399.3z M422.8,381.5c0,0.3-0.1,0.6-0.3,0.9h-1
	c-0.7-0.4-0.7-0.9,0-1.5l0.7-0.6C423,380.3,423.2,380.7,422.8,381.5L422.8,381.5z M422.5,371.5c-0.2,0-0.3-0.1-0.3-0.3
	c0.2,0,0.5,0.1,0.6,0.3l0.3,0.3C422.9,371.8,422.7,371.7,422.5,371.5L422.5,371.5z M423.5,356.5l-0.7-0.2v-0.9l0.6,0.6L423.5,356.5z
	 M423.2,346.5v-0.6c0.3-0.5,1-0.7,1.5-0.4c0,0,0.1,0.1,0.1,0.1c0.2,0.1,0.2,0.3,0.1,0.5c0,0-0.1,0.1-0.1,0.1
	c-0.3,0.6-0.9,0.8-1.5,0.5c-0.1,0-0.1-0.1-0.2-0.1L423.2,346.5z M425.8,387.2h-1l-0.3-0.6v-1.2l1.3,0.3c0.2,0,0.3,0.2,0.3,0.6
	c0.1,0.4,0,0.7-0.3,1V387.2z M425.4,330.4v-0.6c0.2-0.2,0.4-0.3,0.6-0.3c0.2,0.4,0.3,0.6,0.3,0.6L425.4,330.4z M431,385.5
	c-0.6,0-1-0.4-1-1.2c-0.2-0.6,0.1-1.2,0.6-1.4c0.6-0.2,1.2,0.1,1.4,0.6c0.1,0.2,0.1,0.5,0,0.7c-0.1,0.9-0.4,1.3-1,1.3L431,385.5z
	 M432.6,341.8l-0.3-0.6l1,0.3L432.6,341.8z M435.9,331.3V331h0.3c0,0.3-0.1,0.4-0.4,0.4L435.9,331.3z M436.9,359.7l-0.6-0.3h0.6
	V359.7z M438.2,370.8l-0.6,0.3l-0.3-0.6c0-0.4,0.1-0.6,0.3-0.6c0.8-0.1,1,0.2,0.6,1L438.2,370.8z M438.5,309.3
	c-0.5,0.4-1.2,0.3-1.6-0.2c0,0,0-0.1-0.1-0.1c-0.7-1.6-1-2.4-1-2.4l0.3-1.2c0.3-0.7,0.9-1.1,1.6-1.2c0.9-0.2,1.3,0.1,1.3,0.9v3.5
	c0,0.6-0.2,0.7-0.7,0.7L438.5,309.3z M439.8,391.9l-0.3,0.6l-0.3-0.6H439.8z M440.1,406.6h-0.6c-0.7-0.6-0.4-1,0.6-1.2l0.7,0.3
	c-0.3,0.3-0.5,0.6-0.7,1L440.1,406.6z M514.1,411.3c0.2-0.6,0.8-0.8,1.6-0.6c0.7,0.2,1.1,0.8,1,1.5c-0.2,1.4-0.9,1.9-2,1.5
	c-1.1-0.1-1.3-0.9-0.7-2.2L514.1,411.3z M523.5,359.7c-0.5,2.4-1.9,4.5-3.9,5.9c0.2-0.5,0.3-1,0.3-1.5c-0.3-1.9,0.5-3.8,2-5
	c0.6-0.6,1.2-0.7,1.6-0.3V359.7z M524.5,350c-0.2,0.2-0.4,0.1-0.7-0.3c0-0.2,0.1-0.4,0.3-0.6l0.7,0.3L524.5,350z M525.5,341.8
	l0.3,0.9l-0.6,0.6c-0.4,0.6-1.1,0.7-2,0.3c-1.3-0.3-2.3-1.2-2.9-2.4v-0.9c0.2-0.6,0.7-0.9,1.3-0.9c1.7-0.1,3.3,0.9,3.9,2.5
	L525.5,341.8z M523.8,319.7l-0.3,1.5C523.2,320.6,523.3,320,523.8,319.7z M516.6,322.9l1,0.3h0.3c0.5,0.2,1.1,0.2,1.6,0h0.3
	c1.3,0.2,2.6,0.3,3.9,0.3c-0.9,1.1-1.8,2.3-2.6,3.5c-0.7,0.8-0.7,1.9,0,2.6c0.2,0.2,1.1,1.1,2.6,2.6c0.4,0.6,0.4,1.4,0,2v1.8
	c-2,0.1-4.1-0.6-5.5-2c-0.9-1-2.5-2.5-4.9-4.7c-2.2-1.8-2.3-3.7-0.3-5.9c0.9-1,1.3-1.5,1.3-1.5L516.6,322.9z M519.2,366.8
	c-0.2,0.1-0.3,0.4-0.3,0.6C518.9,367,519,366.8,519.2,366.8L519.2,366.8z M517.2,358.1c-0.5,0.6-1.3,0.9-2,0.6c-1.1-0.4-1.4-1.1-1-2
	c0.1-0.8,0.8-1.3,1.6-1.2c0.2,0,0.5,0.1,0.7,0.3C517.8,356.1,517.9,356.9,517.2,358.1L517.2,358.1z M509.4,310.9
	c1.5-2.2,3.2-2.2,4.9,0c0.2,0.2,0.3,0.6,0.3,0.9c-0.2,0.3-0.4,0.6-0.7,0.9c-1.9,0.4-3.6,1.2-5.2,2.4c0,0.2-0.5,0.4-1.6,0.6
	C507.2,314.4,507.9,312.8,509.4,310.9L509.4,310.9z M505.5,303.3h1v1.2c0,0.2-0.1,0.4-0.3,0.6l-0.7,0.3c-0.9-0.2-1.3-0.6-1.3-1.2
	C504.3,303.4,504.7,303.1,505.5,303.3z M505.2,330.8c0.9,0.2,1.1,0.7,0.7,1.5c-0.3,0.2-0.6,0.3-1,0.3l-0.7-0.6
	c-0.3-0.4-0.6-0.9-0.6-1.5C504.1,330.7,504.7,330.8,505.2,330.8L505.2,330.8z M497.1,316.2c0.2,0,0.3,0.1,0.3,0.3h0.4l-0.3,0.3
	c0,0-0.1,0.2-0.3,0.6L497.1,316.2z M496.8,318.2v1.2c-0.3-0.2-0.3-0.7-0.1-1c0,0,0.1-0.1,0.1-0.1V318.2z M491.9,340.7
	c-0.3,0.6-1,1-1.6,0.9c-0.9-0.2-1.2-0.6-1-1.2c0.2-0.7,0.9-1.2,1.6-1.2C491.8,339.5,492.1,340,491.9,340.7L491.9,340.7z
	 M489.3,325.3h-2c-0.7,0-1-0.4-1-1.2v-0.9h3.3l1.6,0.6C492.1,324.4,491.4,324.9,489.3,325.3z M484.7,319.4c-0.6-0.3-1-0.8-1-1.5
	c-0.2-2.4,0.8-3.2,2.9-2.6c0.6,0.3,1.3,0.5,2,0.6c0.2,0.9,0.2,1.8,0,2.6C487.8,319.7,486.4,320,484.7,319.4L484.7,319.4z M490.6,313
	c0,0.6-0.7,1.5-2,2.6c-0.7-1.6-1.1-2.5-1.3-2.9c-0.1-0.9-0.3-1.8-0.7-2.6c1.3,0.2,2.1,0.3,2.3,0.3
	C490.7,310.7,491.2,311.6,490.6,313L490.6,313z M487.3,306.8c0.2-0.4,0.4-0.5,0.6-0.3c0.9,0.4,0.9,0.8,0,1.2
	c-0.5,0.3-1.1,0.4-1.6,0.3C486.6,307.6,486.9,307.2,487.3,306.8L487.3,306.8z M483.4,308.6c0.3-0.2,0.6-0.3,1-0.3h1.6
	c0.2,0.6,0.3,1.2,0.3,1.8c-0.6-0.1-1.3-0.2-2-0.3C483.5,309.7,483.2,309.3,483.4,308.6L483.4,308.6z M479.2,351.6
	c0.7-0.4,1.5-0.9,2.6-1.5c1.2-0.6,2.2-1.5,2.9-2.6l3.6,0.3v-0.3c2,1.2,3.6,0.9,4.9-0.9c0-0.3,0.2-0.6,0.3-0.9l0.7-0.6l0.6-0.6
	c1.1-1,2.1-1.1,2.9-0.3c2.2,1.6,3.5,2.9,3.9,4.1l0.3,0.6l-0.6,0.3c-3.5,1-7.1,1.8-10.8,2.4c-0.8,0.2-1.7,0.3-2.6,0.3
	c-0.7,0.1-1.4,0.2-2.1,0.3c-0.2,0.1-1.9,0.7-5.1,1.8c-0.6,0.2-1.3,0-1.6-0.6C478.7,352.9,478.7,352.1,479.2,351.6L479.2,351.6z
	 M493.8,394.7c-1.1-0.5-1.6-1.8-1.1-2.9c0-0.1,0.1-0.2,0.1-0.3c0.6-1.1,1.3-2.2,2-3.2c0.9-1.6,1.7-3.3,2.3-5h1.7
	c0.4,2.5,0.6,4,0.6,4.4c0,1.9,1.1,3.8,3.3,5.6c0.4,0.4,0.4,0.9,0,1.5c0,0.6-0.7,2.3-2,5C496.8,396.9,494.5,395.3,493.8,394.7
	L493.8,394.7z M494.1,400l-0.6-0.3v-0.6h0.3C494.7,399.1,494.8,399.4,494.1,400L494.1,400z M495.4,363.6c-1.1,0.4-1.8,0.2-2.3-0.6
	l-0.3-0.3c0,0,0.1-0.2,0.3-0.6l0.6-0.3h1c0.6,0.2,1.1,0.6,1.3,1.2C496.1,363.4,495.9,363.6,495.4,363.6L495.4,363.6z M496.4,369.5
	c0.3-0.3,0.6-0.5,1-0.6c0.7,0,1.3,0.3,1.6,0.9c0.7,1,1,2.3,1,3.5c0.1,1-0.4,1.9-1.3,2.3c-0.7,0.1-1.3,0.2-2,0.3
	c-0.9,0-1.4-0.3-1.6-0.9C495,373.1,495.5,371.2,496.4,369.5L496.4,369.5z M491.9,383.9l-0.3,0.6l-0.3-0.6H491.9z M490.3,379.5
	l-1,0.9l-0.6-0.3c-0.3-0.3-0.4-0.9,0-1.3c0.1-0.1,0.2-0.2,0.3-0.2c0.2-0.2,0.4-0.2,0.6,0c0,0,0,0,0,0L490.3,379.5z M486.7,375.4
	l0.3-0.3c0.2-0.2,0.4-0.3,0.6-0.3l0.2,0.3C487.5,375.2,487.1,375.3,486.7,375.4L486.7,375.4z M487.7,397v0.3L487,397H487.7z
	 M484.4,369.8h-2c0-2,1.6-3.5,3.6-3.5c0,0,0,0,0,0c0.4,0,0.8,0.2,1,0.6c0.2,0.1,0.2,0.3,0.1,0.5c0,0-0.1,0.1-0.1,0.1
	C486.7,368.7,485.7,369.6,484.4,369.8L484.4,369.8z M487.7,359.5c-0.6,0.4-1.5,0.3-2-0.3c-0.4-0.4-0.6-1-0.3-1.5
	c0-0.2,0.2-0.4,0.7-0.6c0.9,0,1.4,0.3,1.6,0.9l0.3,0.9L487.7,359.5z M476.6,398.5l0.3-0.6l0.6,0.9h-0.3l-0.3,0.3L476.6,398.5z
	 M476.9,404.7v0.3l-0.7,0.3H474c0.4-0.3,0.8-0.5,1.3-0.6C475.7,404.3,476.4,404.3,476.9,404.7L476.9,404.7z M474.3,388.9
	c-1.9-2-2.2-5-0.7-7.3c0.3-0.7,1.1-1,1.8-0.7c0.1,0,0.1,0.1,0.2,0.1c0.5,0.3,1,0.7,1.3,1.2c0.8,1.3,1.6,2.7,2.3,4.1
	c0.9,1.4,0.5,2-1,2C476.9,388.2,475.6,388.4,474.3,388.9L474.3,388.9z M476.3,320v-0.6c0,0.2,0.1,0.4,0.3,0.6
	c0.2,0.1,0.3,0.4,0.3,0.6C476.4,320.9,476.2,320.7,476.3,320L476.3,320z M474,316.5c0-0.6,0.4-1,1.3-1.2c2.2,0,2.7,0.8,1.6,2.3
	c-0.2,0.6-0.6,1.1-1,1.5l-2-1.8C473.8,317.1,473.8,316.8,474,316.5L474,316.5z M472.8,337.6c0.4,0,0.3,0.1-0.3,0.3L472.8,337.6z
	 M474.7,357.5c0,0.2-0.1,0.4-0.3,0.6c-0.4,0-0.7-0.1-1-0.3c-0.9-1-1.3-2.5-1.3-4.7c1.3,1.2,2.1,2.7,2.5,4.3L474.7,357.5z
	 M466.6,352.3c0.2-0.2,0.4-0.3,0.6-0.3c1.6-0.5,3.3-0.1,4.6,0.9c-1.5,0.5-2.9,1.1-4.2,1.8c-0.6,0.4-1.2,0.2-1.6-0.6
	C465.7,353.4,465.9,352.6,466.6,352.3L466.6,352.3z M471.4,365.4c0,0.2-0.2,0.4-0.7,0.6c-1.6,0.5-3.2-0.3-3.9-1.8v-0.9l1-0.3
	c1.2,0.1,2.4,0.7,3.3,1.5c0.2,0.2,0.2,0.5,0.2,0.8L471.4,365.4z M457.7,336.7c0.4-0.4,0.7-0.4,0.7,0c0.3,0.4,0.6,0.9,0.6,1.5
	C457.4,337.4,457,336.9,457.7,336.7z M458.7,359.5h0.7l0.6,0.3l-0.3,0.9c-0.9,0.4-1.2,0.1-1-0.9L458.7,359.5z M448.9,313.5
	c0.2-0.2,0.8-0.7,1.6-1.5c-0.1,0.7-0.4,1.4-0.7,2c-0.2,0.8-0.6,1.1-1.3,0.9c-0.2,0-0.3-0.2-0.3-0.6
	C448.2,314.2,448.4,313.9,448.9,313.5L448.9,313.5z M448.2,366c-0.2-0.6,0-1,0.7-1.2c0.9-0.4,1.4-0.2,1.6,0.6c0.2,0.6,0,1-0.7,1.2
	C449.2,366.8,448.6,366.5,448.2,366L448.2,366z M450.2,397.6l-0.6,0.3l-0.3-0.3l-0.3-0.9l1-0.3C450.7,396.8,450.8,397.2,450.2,397.6
	L450.2,397.6z M454.5,408.7c-0.4,0-0.7-0.1-1-0.3c-0.4-0.4,0.1-0.7,1.6-0.9C455.1,408.1,454.9,408.5,454.5,408.7L454.5,408.7z
	 M454.1,313.3c-0.6,0.2-1.3,0-1.6-0.6c-0.6-0.2-1.1-0.5-1.6-0.9c0.4-0.5,0.8-1.1,1-1.8c1.1-1.2,2-1.4,2.6-0.6c0.6,0.5,1,1.1,1.3,1.8
	C455.9,312.4,455.4,313,454.1,313.3z M458.6,392.1H458v-0.9h0.7V392.1z M458,381.2c-1.5,0-2.2-0.5-2-1.5c0-1.2,0.7-1.8,2-1.8
	c0.8-0.1,1.5,0.4,1.6,1.2C460,380.3,459.5,381,458,381.2L458,381.2z M459.9,402.6h-0.6v-1.2h0.3C460.5,401.6,460.6,402,459.9,402.6
	L459.9,402.6z M459.9,370.1l0.3-0.6l0.3,0.6H459.9z M461.6,347.3c-0.8,0.5-1.9,0.4-2.6-0.3v-0.6c0.6-0.4,1.3-0.5,2-0.3
	C461.8,346.3,462,346.6,461.6,347.3z M460.9,340.3c-0.6-0.1-1.1-0.6-1.3-1.2c0-0.2-0.1-0.4-0.3-0.6c1.3-0.4,2.6-0.5,3.9-0.3v0.9
	C462.8,339.9,461.8,340.4,460.9,340.3L460.9,340.3z M464.8,373.3c1.7-0.3,3.3-0.7,4.9-1.2c-0.2,0.9-0.3,1.7-0.3,2.6
	c0,1-0.7,1.8-1.6,2c-0.8,0.4-1.4,1.1-1.6,2c-0.1,0.7-0.8,1.1-1.4,0.9c-0.1,0-0.1,0-0.2-0.1c-0.3-0.3-0.5-0.6-0.6-0.9
	c-0.2-1.4-0.4-2.5-0.7-3.5C463,374.3,463.5,373.7,464.8,373.3z M463.5,394.1c-0.2-1.1-0.1-2.2,0.3-3.2c0.9-2.2,2.4-3,4.6-2.6
	c1.9,0.2,3.7,0.5,5.5,0.9c-5,2.5-8.1,4.2-9.5,5L463.5,394.1z M467.4,402.9c-0.6,0.1-1.1,0.3-1.6,0.6c0.1-0.5,0.3-1,0.7-1.5
	c0.2-0.8,0.6-1,1.3-0.6c0.2,0.2,0.4,0.6,0.3,0.9L467.4,402.9z M472.3,413.1l0.3-0.6l0.3,0.6H472.3z M480.5,411.9
	c-0.3,0.5-1,0.8-1.6,0.6l-0.7-0.3l-0.3-0.3c-2.2-1.6-4-2.8-5.5-3.8c-0.6-0.6-0.8-1.2-0.3-1.8l1.6-0.9c0.9,1,2,1.8,3.3,2.4
	c1.3,0.7,2.5,1.6,3.6,2.6C480.9,410.9,480.9,411.4,480.5,411.9L480.5,411.9z M480.8,380.3c0.2-0.6,0.7-0.9,1.3-0.9
	c0.1,0.5-0.2,1-0.7,1.2C481,381,480.8,380.9,480.8,380.3L480.8,380.3z M482.1,399.3l-0.7,0.3l-0.3-0.9c0-0.8,0.3-0.9,1-0.3l0.3,0.3
	L482.1,399.3z M482.1,379.1c-1-1.6-1.7-3.2-2.3-5c2,0.8,4.1,1.3,6.2,1.5C485,377.1,483.7,378.3,482.1,379.1L482.1,379.1z
	 M488.3,409.8c-0.3,0.6-1,0.8-1.6,0.6c-0.4,0-0.7-0.1-1-0.3c-0.4-0.5-0.4-1.3,0-1.8c0.7-0.6,1.7-0.9,2.6-0.9
	C488.7,408.2,488.7,409.2,488.3,409.8L488.3,409.8z M500.7,412.5c-2.6-1.4-4.5-2-5.5-1.8c-0.7-0.1-1.4-0.3-2-0.6l-1.3-1.2
	c-0.9-0.8-2.1-1.4-3.3-1.8c0.3-0.4,0.5-0.9,0.7-1.5c1-1.5,3-2,4.6-1.2l3.3,1.5l3.3,0.9c1.7,0.4,2.6,1.9,2.6,4.4
	C502.7,412.9,502,413.3,500.7,412.5L500.7,412.5z M501.7,330.2c0.3-0.4,0.9-0.4,1.2-0.1c0,0,0,0,0.1,0.1H501.7z M503.9,364.4
	l-0.3-0.6c0.4-1,0.7-1.5,0.7-1.5s0.1,0.5,0.3,1.5L503.9,364.4z M503.9,356.2c0-0.3,0.2-0.6,0.3-0.9c0.6-0.6,1.4-0.1,2.3,1.5
	c0.2,0.2,0.3,0.6,0.3,0.9c-0.2,0.6-0.8,0.9-1.6,0.9C504.4,358.2,503.8,357.2,503.9,356.2L503.9,356.2z M508.2,413.7l-0.3-0.6
	l0.3-0.6l0.3,0.6L508.2,413.7z M508.5,391.7l-0.6-0.3h0.6V391.7z M508.2,381.4l-0.3,0.6c-0.5,0.4-1.2,0.4-1.6,0
	c-0.8-0.3-1.2-1.3-0.8-2.1c0.2-0.4,0.5-0.7,0.8-0.8c0.4,0,0.7,0.1,1,0.3l1.3,0.6C508.5,379.9,508.4,380.5,508.2,381.4L508.2,381.4z
	 M509.2,369.7l-1,0.3l-1.3,0.3l-0.3-1.2c-0.5-1.4,0-3,1.3-3.8c0.4-0.6,1-0.5,1.6,0.3C510.3,366.8,510.2,368.2,509.2,369.7
	L509.2,369.7z M512.1,345.4c-1.5,0-2.9-0.3-4.2-0.9c-2.8-1.2-3.1-2.6-1-4.4c0.7-0.5,1.5-1,2.3-1.5c0,2.3,1.3,3.8,3.9,4.4
	c0.9,0.2,1.1,0.7,0.7,1.5l-0.7,0.6C512.8,345.3,512.4,345.4,512.1,345.4L512.1,345.4z M512.4,363.2c0-0.3,0.1-0.7,0.3-0.9
	c1.3-1,2.3-0.7,2.9,0.9c0.4,1.4-0.1,2-1.6,1.8C513.1,365,512.4,364.3,512.4,363.2L512.4,363.2z M515,370.9l-0.3,0.6l-0.7-0.3
	c-0.2-0.1-0.2-0.3-0.1-0.5c0,0,0.1-0.1,0.1-0.1C514.5,370.1,514.8,370.2,515,370.9L515,370.9z M517.7,398.4l-1,0.3
	c-0.9-0.4-1.1-0.9-0.6-1.5c0-0.4,0.3-0.8,0.6-0.9c0.9-0.2,1.4,0,1.6,0.6C518.5,397.8,518.3,398.3,517.7,398.4L517.7,398.4z
	 M520.6,391.7c-0.2-1.8-1.1-2-2.6-0.9c-0.3,0.2-0.6,0.4-1,0.6l-0.6,0.6c-1.3,0.8-2.2,0.5-2.6-0.9c-0.7-2.1,0.1-3.7,2.3-4.7
	c0.8-0.6,1.7-1,2.6-1.2c3.2-1.3,5-0.3,5.2,3.1c0.2,2.6,0.9,5.2,2,7.6C523.2,396.1,520.9,394.3,520.6,391.7L520.6,391.7z"/>
<path d="M402.7,380.3c-0.7-0.1-0.9-0.5-0.7-1.1c0-0.4,0.2-0.6,0.7-0.7v-77.2h-60.3l-43.7,0.3l-8.5-0.3h-42c-6.3-0.2-10.6-0.3-13-0.3
	l-39.5,0.3c-3.7-0.2-16.2-0.2-37.5,0h-4.9c-2,0.2-3.5,0.3-4.6,0.3c-8.3-0.2-19-0.3-32.3-0.3H79.1c-3,0.2-4.6,1.6-4.6,4.1
	c-0.2,6.4-0.3,10.6-0.3,12.3c0,1.2,0.1,2.4,0.3,3.5c-0.1,1.3,0.8,2.5,2.1,2.6c0.1,0,0.1,0,0.2,0c0.3,0.2,0.6,0.4,1,0.6
	c1.5,0.6,1.5,1.3,0,2c-2.4,1.2-3.6,2.9-3.6,5.3v75.8l0.3,3.8v1.8c0.2,1.8,1.8,3.1,3.6,2.9h30.6c2.4,0.2,4.3,0.3,5.9,0.3h174
	c35.6-0.2,55.1-0.3,58.3-0.3l1.3-0.3l1.6,0.3c3.5,0.2,6.9,0.2,10.4,0c-0.7,0.2,3.1,0.3,11.4,0.3c2.8,0,5.7-0.2,8.5-0.6
	c1.5-0.2,3-0.2,4.6,0c1.5,0.3,3,0.5,4.6,0.6c2.4-0.2,4.8-0.2,7.2,0h6.3L402.7,380.3z M95.1,315.9c0-0.6,0.1-0.9,0.3-0.9
	c0.6-0.4,1.1-0.1,1.3,0.9c0.2,1.2,0.3,2.3,0.3,3.5c0.2,0.8-0.1,1.2-1,1.2c-0.7,0-1-0.4-1-1.2L95.1,315.9z M95.8,352.8v0.6h-0.3
	L95.8,352.8z M77.8,392.9h0.7c0.4,0.4,0.7,0.8,1,1.2C78.3,393.7,77.8,393.3,77.8,392.9z M85.9,316.2l-0.7,0.6l-1-0.3l-0.7-0.9l1-0.6
	c0.7-0.4,1.1-0.2,1.3,0.6c0.2,0.1,0.2,0.3,0.1,0.5C86,316.1,86,316.1,85.9,316.2L85.9,316.2z M87.2,305.3c0.3-0.5,0.8-0.9,1.3-1.2
	c0.6-0.4,1.5-0.3,2,0.3v0.9c-0.4,0.9-1.1,1.7-2,2c-0.6,0.2-1.2,0.1-1.6-0.3l-0.7-0.9L87.2,305.3z M88.5,410.8l-1-0.3l-0.3-0.9
	l-0.3-0.6c-0.2-1.4,0.2-2,1.3-2c0.9,0,1.4,0.3,1.6,0.9c0.4,0.4,0.7,0.9,0.7,1.5C90.7,410.7,90.1,411.2,88.5,410.8L88.5,410.8z
	 M95,390l-0.7-0.3l0.7-0.3V390z M95.3,380.9c-0.7,0-0.9-0.5-0.7-1.5c0-0.8,0.3-1.2,1-1.2c0.7,0.2,1.1,0.8,1,1.5
	C96.7,380.5,96.3,380.9,95.3,380.9L95.3,380.9z M96.6,363l0.3-0.6l0.3,0.6H96.6z M104.1,308.5c-0.2,0.8-0.7,0.9-1.3,0.3
	c-1-0.7-1.3-2.1-0.7-3.2c0.4-0.8,1-1.1,1.6-0.9c0.6,0.2,1,0.8,1,1.8C104.6,307.9,104.4,308.5,104.1,308.5L104.1,308.5z M108.4,368
	v-0.6h0.7L108.4,368z M111,383.3v-0.6l0.6,0.6H111z M115.6,356.9c-0.4,0.4-1.1,0.5-1.6,0.3c-1.3-0.2-1.7-0.8-1.3-1.8
	c0.2-0.8,1-1,2.3-0.6c0.4,0.1,0.7,0.3,1,0.6C116.3,355.8,116.2,356.3,115.6,356.9L115.6,356.9z M118.2,312.4h-0.7l0.7-0.6V312.4z
	 M128.3,340.2l0.3,0.6C128.4,341.2,128.3,341,128.3,340.2L128.3,340.2z M130.6,395h-0.7l0.3-0.6h0.6L130.6,395z M132.9,384.7
	c-0.4,0.4-0.7,0.2-0.7-0.6h0.7C133,384.3,133.1,384.5,132.9,384.7C132.9,384.7,132.9,384.7,132.9,384.7L132.9,384.7z M133.9,316.2
	c0,0.2-0.2,0.4-0.6,0.6h-1c-0.7,0.1-1.3,0.2-2,0.3H127c-1.3-0.2-2.4-1.1-2.9-2.3c0-0.3,0.1-0.6,0.3-0.9l0.4-0.6h0.3
	c3.9,0.4,6.5,0.9,7.8,1.5C133.8,315.3,134,315.8,133.9,316.2L133.9,316.2z M135.2,323.8c0,0-0.1-0.2-0.3-0.6c0.2-0.8,0.6-1,1.3-0.6
	c0.2,0,0.3,0.2,0.3,0.6C136.2,324,135.8,324.2,135.2,323.8L135.2,323.8z M137.2,380.3l-0.3-0.3v-0.6c0.3,0.1,0.4,0.4,0.3,0.7
	C137.2,380.2,137.1,380.3,137.2,380.3L137.2,380.3z M137.8,404.3l-0.3-0.6l1,0.3L137.8,404.3z M140.1,335.5c-0.4,0.4-1,0.6-1.6,0.6
	c0.2-0.6,0.7-0.9,1.3-0.9C140.1,335,140.2,335.1,140.1,335.5L140.1,335.5z M142.4,310.6c0-0.8,0.4-1.2,1.3-1.2
	c1.7,0.2,2.4,0.8,2,1.8c-0.2,1.4-0.4,2.5-0.7,3.5c0,0.2-0.2,0.5-0.6,0.9l-1-0.6C142.8,313.6,142.4,312.1,142.4,310.6L142.4,310.6z
	 M145.3,327.6v0.6l-0.7-0.3L145.3,327.6z M143.7,344.9v-0.3h0.6c0.6,0.2,0.9,0.9,0.6,1.5h-0.7C143.6,345.8,143.4,345.5,143.7,344.9
	L143.7,344.9z M145.7,388.5l-0.7,0.3l-0.3-0.9c0-0.4,0.2-0.6,0.7-0.6c0.9,0.2,1.1,0.6,0.2,1.2L145.7,388.5z M146.7,376.8l-0.3-0.6
	c0.7-0.2,1,0,1,0.6H146.7z M147,339l-0.7-0.3l0.3-0.6l0.6,0.3L147,339z M155.5,380.9c-0.2-0.4-0.2-0.6,0-0.6l1.3-0.6
	c-0.6,1.2-1,1.5-1.4,1.2L155.5,380.9z M186.4,339.6l-0.3,0.3l-0.3-0.6L186.4,339.6z M181.5,334.3l-0.3,0.3l-0.3-0.3H181.5z
	 M159.4,397.6V397c0.2-0.2,0.4-0.3,0.7-0.3c0.3,0.6,0.1,0.9-0.8,0.9L159.4,397.6z M161.7,309.7l0.7-0.3l0.3,0.9
	c-1,0.6-1.3,0.4-1.1-0.6L161.7,309.7z M171.8,315.9c0.4-0.8,0.9-0.8,1.3,0c0.3,0.4,0.4,1,0.3,1.5c-0.4-0.3-0.8-0.5-1.3-0.6
	c-0.6-0.4-0.7-0.7-0.5-0.9H171.8z M173.8,332.6c-0.4,0.8-0.9,0.8-1.3,0c0-0.2,0.1-0.4,0.3-0.6l1-0.3L173.8,332.6z M175.4,327.3
	l0.3-0.6l0.3,0.6H175.4z M178.8,377.1h-0.7c0.3-0.4,0.8-0.5,1.3-0.3L178.8,377.1z M178.8,311.5l-0.7-0.6l0.7-0.3l0.7,0.3
	L178.8,311.5z M183.3,349.3l-1,0.3l-1-0.3c-0.4-0.6-0.7-0.9-0.7-0.9l2-1.5h1C185,347.1,184.9,347.9,183.3,349.3z M186.9,367.4
	c-0.4,0-0.7-0.2-0.7-0.6l-1-1.2l2-0.6c0.4-0.2,0.8-0.2,1,0l0.6,0.9C188.8,366.9,187.9,367.6,186.9,367.4z M200.6,313.8l-0.3-0.6
	c0.2-0.4,0.4-0.5,0.6-0.3C201.6,313.3,201.5,313.6,200.6,313.8L200.6,313.8z M205.8,304.4v-0.6l0.3,0.3L205.8,304.4z M211.4,399.4
	l-0.3-0.3l0.7-0.3L211.4,399.4z M219.8,315.6V315l0.6,0.6H219.8z M223.1,400.8l-0.6,0.6c-0.5,0.2-1,0-1.3-0.4c0,0,0-0.1-0.1-0.1
	c-0.2-0.6-0.3-0.9-0.3-0.9l1-0.6c0.2,0,0.5,0.1,0.7,0.3c0.4,0,0.6,0.2,0.6,0.6L223.1,400.8z M227,349.8c-1.3,0.2-2.2-0.5-2.6-2.1
	c-0.2-0.4-0.2-0.7,0-0.9c0.3-0.2,0.7-0.3,1-0.3c1.3,0.6,2.1,1.2,2.3,1.8C228.1,349,227.9,349.5,227,349.8L227,349.8z M257.3,336.9
	c-0.2,0-0.3-0.2-0.3-0.6c0-0.6,0.4-1.1,1-1.2c0.4,0,0.6,0.1,0.6,0.3c0.2,0.3,0.3,0.6,0.3,0.9C258.6,336.9,257.9,337.2,257.3,336.9
	L257.3,336.9z M264.1,341.3l-0.7,0.3c-0.1-0.5,0.2-1,0.7-1.2V341.3z M274.6,368l0.3-0.6l0.3,0.6H274.6z M275.6,351
	c-1.1,0.4-1.4,0.1-1-0.9c0.2-0.7,0.5-1.4,1-2c0.2,0.7,0.3,1.3,0.3,2C275.9,350.7,275.8,351,275.6,351L275.6,351z M274.9,307.6
	c-1.6-0.2-3.2-0.8-4.6-1.8c-0.2-0.2-0.4-0.5-0.3-0.9c0-0.8,0.4-1.2,1.3-1.2c1.6,0.2,3.2,0.8,4.6,1.8c0.2,0.2,0.4,0.6,0.3,0.9
	C276.2,307.3,275.8,307.7,274.9,307.6L274.9,307.6z M281.1,387.9l-0.3-0.3h0.3V387.9z M370,358l0.3,0.6h-0.7L370,358z M359.9,326.4
	l0.7,0.6v0.3c0,0,0.1,0.4,0.3,1.2C360,327.7,359.8,327,359.9,326.4L359.9,326.4z M356,318.5c0.4-0.2,0.6-0.1,0.6,0.3v1.5
	c-0.2,0.3-0.6,0.5-0.9,0.3c0,0-0.1,0-0.1-0.1C354.4,320,354.5,319.3,356,318.5L356,318.5z M336.8,403.2c0,0.3-0.1,0.6-0.3,0.9
	c-0.6,0.4-1.1,0.2-1.3-0.6v-0.9l0.7-0.6C336.5,402,336.8,402.4,336.8,403.2z M333.2,347.2l1.3-1.8h1l0.7,0.3c0,1-0.5,1.8-1.3,2.3
	c-0.2,0.2-0.4,0.3-0.7,0.3C333.1,348.4,332.8,348,333.2,347.2L333.2,347.2z M300.9,346.6l0.3,0.6l-1,0.3
	C299.7,346.9,299.9,346.6,300.9,346.6L300.9,346.6z M289.2,346.9h0.6l-0.6,0.6V346.9z M290.5,358.6l-0.6-0.3l0.3-0.6l0.6,0.3
	L290.5,358.6z M289.8,329c-0.4-0.2-0.5-0.5-0.3-0.9c0.4-0.8,0.9-0.7,1.3,0.3c0.2,0.4,0.5,1.1,1,2.1
	C291.1,330.2,290.4,329.7,289.8,329L289.8,329z M295.1,370.9h-0.7l-0.3-0.6c0.2-0.4,0.4-0.6,0.6-0.6
	C295.8,370,296,370.4,295.1,370.9L295.1,370.9z M292.8,330.8l3.6,0.3C295.2,331.4,293.9,331.4,292.8,330.8L292.8,330.8z M296,352.8
	l0.6-0.3h0.7l1,0.6C297.6,353.3,296.7,353.2,296,352.8L296,352.8z M295.8,324.7c-0.6-0.3-0.9-1.1-0.7-1.8c0.2-0.6,0.8-0.9,1.6-0.9
	c0.9,0.2,1.8,0.6,2.6,1.2c0,0.3,0.2,0.6,0.3,0.9c0,0.8-0.3,1.2-1,1.2C297.7,325.4,296.6,325.2,295.8,324.7z M299.3,374.8l0.6,0.3
	c0.2,0,0.5,0.1,0.6,0.3C300.1,375.4,299.6,375.2,299.3,374.8L299.3,374.8z M302,362.5c-0.7,0.2-1-0.1-1-0.9c0-0.3,0.1-0.7,0.3-0.9
	c0.6-0.4,1.1-0.3,1.3,0.3C303,361.8,302.8,362.3,302,362.5L302,362.5z M307.8,322.3h0.6l0.7,0.6C308.5,323,308,322.7,307.8,322.3z
	 M310,390.3h-0.6c0.3-0.4,0.8-0.5,1.3-0.3L310,390.3z M311.3,395.6L311,395c0.4-0.2,0.6-0.2,0.6,0
	C312.1,395.4,312,395.6,311.3,395.6L311.3,395.6z M311.3,381.5l0.3-0.3l0.3,0.6L311.3,381.5z M314,401.2h0.6c0,0.2,0.1,0.4,0.3,0.6
	C314.5,401.7,314.1,401.5,314,401.2L314,401.2z M321.8,315.9c0.6-0.6,1.2-0.5,1.6,0.3v0.6c-0.4,0.8-1,1-1.6,0.6
	C321.2,316.7,321.2,316.3,321.8,315.9L321.8,315.9z M323.8,338.7c-0.7,0.8-1.4,0.6-2.3-0.6v-0.9l0.7-0.6c1.1-0.4,1.7,0,2,1.2
	C324.1,338.2,324,338.5,323.8,338.7z M325.1,398.2v-0.6l0.6,0.3L325.1,398.2z M326.1,365.7v-0.6l0.6,0.3L326.1,365.7z M327.7,313.5
	l-0.3-0.9c0.1-0.5,0.6-0.8,1.1-0.6c0.1,0,0.1,0,0.2,0.1c0.2,0,0.3,0.2,0.3,0.6C329,313.3,328.5,313.5,327.7,313.5L327.7,313.5z
	 M332.3,372.4c0.2-1.4,0.9-1.6,2-0.6c0.5,0.2,0.7,0.7,0.5,1.1c0,0.1-0.1,0.2-0.2,0.3c-0.2,0.6-0.8,0.8-1.6,0.6
	C332.2,373.5,332,373,332.3,372.4L332.3,372.4z M332.9,379.2c0.5-0.1,1.1-0.2,1.6-0.3c0.9-0.2,1.4,0,1.6,0.6
	c0.2,0.7-0.1,1.4-0.6,1.8c-1.3,0.8-2.2,0.4-2.6-1.2V379.2z M337.8,411.7c-0.1,0.7-0.6,1.2-1.3,1.5c-1.3,0.2-2.5-0.5-2.9-1.8v-0.9
	l0.3-0.6c0.7-0.6,1.8-0.7,2.6-0.3c0.9,0.2,1.5,1,1.3,1.9C337.8,411.6,337.8,411.6,337.8,411.7z M339.8,339c-0.2,0-0.3-0.2-0.3-0.6
	c-0.2-0.4-0.2-0.7,0-0.9c0-0.2,0.3-0.6,1-1.2c0.2,0.5,0.3,1,0.3,1.5C340.9,338.4,340.6,338.8,339.8,339z M340.8,369.8v-0.6l0.6,0.6
	H340.8z M340.8,336.1c0.4-1,1.1-1.4,2-1.2l-0.7,0.6C341.7,335.8,341.2,336,340.8,336.1z M343,344.9l-0.7-0.6
	c-0.4-0.8-0.2-1.1,0.7-0.9c0.4,0,0.7,0.2,0.7,0.6C343.6,344.2,343.4,344.5,343,344.9L343,344.9z M344.7,394.1v0.3l-0.3,0.3H344
	l-0.3-0.6l1-0.3L344.7,394.1z M347.6,368l-0.6,0.3c-0.7,0.2-1-0.1-1-0.9c0.2-0.2,0.4-0.3,0.6-0.3C347.4,367.1,347.8,367.4,347.6,368
	L347.6,368z M347.9,401.4c-0.2-0.6,0-0.5,0.7,0.3L347.9,401.4z M349.9,327.6l-0.3-0.6h0.6L349.9,327.6z M354.2,395
	c-0.2,0.2-0.4,0.3-0.7,0.3l-0.3-0.9l1-0.3L354.2,395z M352.8,382.7c-0.9-0.2-1.1-0.7-0.7-1.5c0.5-0.6,1.2-0.8,2-0.6
	c1.7,0,2.4,0.5,2,1.5c-0.2,0.6-0.7,0.9-1.3,0.9C354.1,383,353.4,382.9,352.8,382.7z M356.3,402.3l-0.6,0.6c-0.9-0.4-1.1-0.9-0.7-1.5
	v-0.6l0.3-0.3c0.9-0.2,1.3,0.1,1.3,0.9C356.7,401.7,356.6,402,356.3,402.3z M355.3,356c-0.7-0.8-0.5-1.3,0.3-1.5
	c0.2-0.2,0.5-0.2,1,0c1,0.5,1.9,1.2,2.6,2c0.8,0.7,1.7,1.4,2.6,2c0.9,0.4,0.9,0.9,0,1.5l-1,0.3c-0.9,0-1.9-0.3-2.6-0.9l-1.6-1.8
	L355.3,356z M359.6,412.3l-0.6,0.3l-1-0.3c-0.4-1-0.1-1.8,1-2.3c0.3-0.2,0.6-0.3,1-0.3l1.6,0.9L359.6,412.3z M361.2,378.9l-0.6-0.3
	c0-0.8,0.3-0.9,1-0.3C361.4,378.4,361.3,378.6,361.2,378.9L361.2,378.9z M363.2,370.4c-1.5,1-2.9,0.6-4.2-1.2
	c-0.9-1-0.8-1.8,0.3-2.4c0.5-0.4,1.2-0.4,1.6,0c0.7,0.2,2.2,0.8,4.6,1.8C364.2,369.6,363.4,370.2,363.2,370.4L363.2,370.4z
	 M366.4,412l0.7-0.6C367.3,411.4,367.1,411.6,366.4,412L366.4,412z M371.7,411.1h-3.6c0.1-0.8,0.5-1.5,1-2c0.6-0.4,1.4-0.4,2,0
	c0.6,0.3,1,0.8,1,1.5C372,410.9,371.9,411.1,371.7,411.1L371.7,411.1z M371.7,380c-0.4,0.4-1,0.6-1.6,0.6h-1
	c-0.7-0.2-1.2-0.6-1.6-1.2c-0.2-0.8,0.3-1.5,1.6-2c0.6-0.2,1.3-0.2,2,0C372.1,378,372.3,378.9,371.7,380L371.7,380z M375.2,328.2
	l-0.6-0.3c-0.2-0.8,0.1-1.2,1-1.2c0.2,0.2,0.4,0.6,0.3,0.9L375.2,328.2z M379.5,316.8v-0.9c0,0,0.1-0.1,0.3-0.3
	C379.9,316,379.7,316.4,379.5,316.8L379.5,316.8z M381.5,312.1c0.5-0.8,1.4-1.3,2.3-1.2c0.7,0,1.3,0.3,1.6,0.9
	c0.2,0.2,0.2,0.5,0,0.9c-0.3,0.9-0.9,1.6-1.6,2.1c-1.1,0.4-2.4,0.6-3.6,0.6C380.5,314.2,381,313.1,381.5,312.1L381.5,312.1z
	 M385.7,321.2c0.1,0.5,0,1-0.3,1.5c0,0.2-0.2,0.3-0.6,0.3c-0.9-0.2-1-0.6-0.3-1.2C384.9,321.6,385.3,321.4,385.7,321.2L385.7,321.2z
	 M385.4,396.7l-1.3,1.2c-0.8-0.5-1.5-0.9-2.3-1.5c-0.7-0.4-0.9-0.9-0.7-1.5c0.2-0.6,0.8-0.8,1.6-0.6c0.7,0.2,1.3,0.3,2,0.3
	C385.8,394.9,386,395.6,385.4,396.7L385.4,396.7z M383.1,384.4l0.3-0.3c0.6-0.4,1-0.2,1,0.6l-0.3,0.6l-0.6-0.3L383.1,384.4z
	 M384.4,332.9c-0.5,0.4-1.2,0.3-1.5-0.2c0,0-0.1-0.1-0.1-0.1c-0.2-0.4-0.1-1,0.3-1.8c1.1-1.2,1.9-1.2,2.6,0c0.1,0.6,0.2,1.2,0.3,1.8
	C385.5,332.8,384.9,332.9,384.4,332.9L384.4,332.9z M390.3,407.9v0.3l-0.7,0.3H389c-1.1,0.2-1.5,0-1.3-0.6c0.4-0.5,1-0.8,1.6-0.9
	C390.1,406.6,390.4,406.9,390.3,407.9L390.3,407.9z M388,340.8l1-0.3v0.9L388,340.8z M386.7,336.1l-0.3-3.5c2.1-0.2,4.2-0.1,6.2,0.3
	C391,334.6,388.9,335.7,386.7,336.1L386.7,336.1z M392.9,327.6c-0.4-0.2-0.6-0.4-0.6-0.6l0.3-0.6l0.7,0.3L392.9,327.6z M396.5,308.6
	c-1.1,0.2-1.5-0.1-1.3-0.9c0-0.2,0.2-0.4,0.6-0.6c1.5-0.6,3.2-0.8,4.9-0.6C399.6,307.7,398,308.4,396.5,308.6L396.5,308.6z"/>
</svg>
